<svg width="96" height="42" viewBox="0 0 96 42" fill="none" xmlns="http://www.w3.org/2000/svg">
<path d="M22.0146 19.1512V28.0028C22.0146 28.1463 21.9576 28.2839 21.8561 28.3854C21.7547 28.4868 21.617 28.5438 21.4736 28.5438H18.6793C18.5359 28.5438 18.3983 28.4867 18.2969 28.3853C18.1954 28.2839 18.1384 28.1463 18.1383 28.0028V13.6052C18.1383 13.4617 18.1953 13.3241 18.2968 13.2227C18.3982 13.1212 18.5359 13.0642 18.6793 13.0642H21.2651C21.4086 13.0642 21.5462 13.1212 21.6476 13.2227C21.7491 13.3241 21.8061 13.4617 21.8061 13.6052V15.6328C21.8061 15.6328 22.7304 12.7405 25.4736 12.7405C25.4736 12.7405 28.1869 12.4125 29.2902 15.4241C29.2902 15.4241 30.2145 12.7405 33.0173 12.7405C33.0173 12.7405 37.1855 12.4927 37.1855 16.8057L37.2172 19.181V28.0326C37.2172 28.1761 37.1602 28.3137 37.0588 28.4152C36.9573 28.5166 36.8197 28.5736 36.6762 28.5736H33.8818C33.7383 28.5736 33.6007 28.5166 33.4993 28.4151C33.3979 28.3137 33.3408 28.1761 33.3408 28.0326L33.3153 18.3759C33.3947 16.1893 31.6257 16.3484 31.6257 16.3484C29.3994 16.3882 29.6136 19.181 29.6136 19.181V28.0326C29.6136 28.1761 29.5566 28.3137 29.4552 28.4152C29.3537 28.5166 29.2161 28.5736 29.0726 28.5736H26.2784C26.135 28.5736 25.9974 28.5166 25.8959 28.4151C25.7945 28.3137 25.7375 28.1761 25.7374 28.0326V18.5944C25.7374 18.5944 25.9008 16.3283 23.9128 16.3283C23.9131 16.3283 21.9452 16.07 22.0146 19.1512ZM94.042 19.1247V27.9761C94.042 28.1196 93.9849 28.2571 93.8835 28.3586C93.7821 28.46 93.6445 28.5171 93.501 28.5171L90.5949 28.5734C90.4515 28.5733 90.3139 28.5163 90.2124 28.4149C90.111 28.3134 90.054 28.1759 90.0539 28.0324V18.5944C90.0539 18.5944 90.2173 16.3283 88.2296 16.3283C88.2296 16.3283 86.3311 16.2348 86.3311 19.7878V28.0026C86.331 28.1461 86.274 28.2836 86.1725 28.3851C86.0711 28.4865 85.9335 28.5435 85.7901 28.5436H82.9956C82.8521 28.5435 82.7146 28.4865 82.6131 28.3851C82.5117 28.2836 82.4547 28.1461 82.4546 28.0026V13.6052C82.4547 13.4617 82.5117 13.3242 82.6131 13.2227C82.7146 13.1213 82.8521 13.0643 82.9956 13.0642H85.5814C85.7248 13.0642 85.8624 13.1212 85.9639 13.2227C86.0654 13.3241 86.1224 13.4617 86.1224 13.6052V15.6328C86.1224 15.6328 87.0467 12.7405 89.7899 12.7405C89.7899 12.7405 92.7284 12.2947 93.7181 15.368C93.7183 15.3678 94.042 16.0018 94.042 19.1247ZM73.8666 12.6809C70.2933 12.6809 67.3962 15.6924 67.3962 20.7613C67.3962 25.2241 69.6325 28.8418 73.8666 28.8418C77.8621 28.8418 80.3369 25.2241 80.3369 20.7613C80.3369 15.7819 77.4401 12.6809 73.8666 12.6809ZM76.1219 20.9402C76.1219 22.8485 75.8834 23.8623 75.8834 23.8623C75.544 25.8796 74.0796 25.8825 73.8637 25.8717C73.6306 25.881 72.1539 25.86 71.8483 23.8623C71.8483 23.8623 71.6098 22.8485 71.6098 20.9402V20.6223C71.6098 18.714 71.8483 17.7002 71.8483 17.7002C72.1539 15.7024 73.6309 15.6814 73.8637 15.6905C74.0796 15.6798 75.544 15.6824 75.8834 17.7002C75.8834 17.7002 76.1219 18.714 76.1219 20.6223V20.9402ZM65.7744 15.6127V13.547C65.7744 13.4035 65.7173 13.266 65.6159 13.1645C65.5145 13.0631 65.3769 13.0061 65.2334 13.006H55.9973C55.8538 13.006 55.7162 13.063 55.6147 13.1645C55.5133 13.2659 55.4563 13.4035 55.4563 13.547V15.5968C55.4563 15.7402 55.5133 15.8778 55.6148 15.9792C55.7162 16.0807 55.8538 16.1377 55.9973 16.1378H60.815L55.1125 24.4102C55.1125 24.4102 54.8878 24.7456 54.8952 25.1161V27.6324C54.8952 27.6324 54.858 28.4952 55.8365 27.9945C55.8365 27.9945 57.5745 26.9444 60.4887 26.9444C60.4887 26.9444 63.3666 26.9087 65.2854 28.0849C65.2854 28.0849 66.0819 28.447 66.0819 27.6507V25.4605C66.0819 25.4605 66.1542 24.8809 65.394 24.519C65.394 24.519 63.1856 23.3063 60.2895 23.5052L65.7744 15.6127ZM15.9817 25.9691L15.107 24.6375C14.8286 24.1404 14.8487 23.5837 14.8487 23.5837V17.4416C14.9679 12.1341 9.08395 12.5914 9.08395 12.5914C3.85331 12.5914 3.08069 16.6621 3.08069 16.6621C2.86266 17.4805 3.49669 17.5003 3.49669 17.5003L6.05262 17.7596C6.05262 17.7596 6.48843 17.8593 6.64705 17.3405C6.64705 17.3405 6.98363 15.5645 8.86592 15.5645C10.914 15.5645 10.8928 17.3223 10.8928 17.3223V18.7939C6.80425 18.9305 4.90955 20.0655 4.90955 20.0655C2.38511 21.4967 2.54398 24.3394 2.54398 24.3394C2.54398 28.9708 6.95691 28.7719 6.95691 28.7719C9.77952 28.7719 11.4493 26.7047 11.4493 26.7047C11.9462 27.5797 12.8607 28.4141 12.8607 28.4141C13.3182 28.9102 13.7951 28.4937 13.7951 28.4937L15.8625 26.7247C16.3195 26.3865 15.9817 25.9691 15.9817 25.9691ZM8.33446 25.9118C7.00677 25.9118 6.51323 24.5925 6.73364 23.2958C6.95429 21.9991 8.10022 20.9801 10.893 21.0099V21.7982C10.992 25.2422 9.43961 25.9118 8.33446 25.9118ZM53.1138 25.9691L52.2394 24.6375C51.961 24.1404 51.9808 23.5837 51.9808 23.5837V17.4416C52.1 12.1341 46.2161 12.5914 46.2161 12.5914C40.9854 12.5914 40.2128 16.6621 40.2128 16.6621C39.9948 17.4805 40.6288 17.5003 40.6288 17.5003L43.1847 17.7596C43.1847 17.7596 43.6205 17.8593 43.7792 17.3405C43.7792 17.3405 44.1157 15.5645 45.998 15.5645C48.0461 15.5645 48.0249 17.3223 48.0249 17.3223V18.7939C43.9366 18.9305 42.0417 20.0655 42.0417 20.0655C39.5172 21.4967 39.6761 24.3394 39.6761 24.3394C39.6761 28.9708 44.089 28.7719 44.089 28.7719C46.9116 28.7719 48.5814 26.7047 48.5814 26.7047C49.0785 27.5797 49.9926 28.4141 49.9926 28.4141C50.4501 28.9102 50.9272 28.4937 50.9272 28.4937L52.9943 26.7247C53.4516 26.3865 53.1138 25.9691 53.1138 25.9691ZM45.4666 25.9118C44.1389 25.9118 43.6453 24.5925 43.8658 23.2958C44.0864 21.9991 45.2323 20.9801 48.0249 21.0099V21.7982C48.1241 25.2422 46.572 25.9118 45.4666 25.9118Z" fill="#ede9fe" fill-opacity="0.75"/>
<path d="M60.1491 37.5949C60.1491 37.5949 59.9154 38.0016 60.2026 38.0925C60.2026 38.0925 60.527 38.2192 60.9315 37.8437C60.9315 37.8437 63.882 35.2663 63.9531 30.5738C63.9531 30.5738 63.9748 29.9877 63.7396 29.8274C63.7396 29.8274 62.8153 29.0097 59.4915 29.2585C59.4915 29.2585 56.5942 29.4541 55.0125 30.8584C55.0125 30.8584 54.8703 30.9827 54.8703 31.1425C54.8703 31.1425 54.8362 31.4877 55.7057 31.3381C55.7057 31.3381 58.6027 30.929 60.3268 31.1425C60.3268 31.1425 61.2159 31.2491 61.4647 31.5516C61.4647 31.5516 61.8735 31.8894 61.66 33.0088C61.66 33.0093 61.0732 35.8531 60.1491 37.5949Z" fill="#ede9fe" fill-opacity="0.75"/>
<path d="M59.5652 33.0931C59.5652 33.0931 59.9979 33.6536 59.2997 34.1371C59.2997 34.1371 51.8413 40.1029 39.3181 40.1029C39.3181 40.1029 26.4271 40.7389 15.6631 30.9589C15.6631 30.9589 15.2858 30.6275 15.52 30.3196C15.52 30.3196 15.7294 30.0362 16.2716 30.3444C16.2716 30.3444 26.3973 36.6539 39.6957 36.6539C39.6957 36.6539 48.9391 37.0117 58.4209 32.9566C58.4209 32.9566 59.1763 32.5652 59.5652 33.0931Z" fill="#ede9fe" fill-opacity="0.75"/>
</svg>
