<svg width="95" height="33" viewBox="0 0 95 33" fill="none" xmlns="http://www.w3.org/2000/svg">
<g clip-path="url(#clip0_111_19)">
<path d="M22.2578 17.0697C22.2192 13.0205 25.5659 11.075 25.7164 10.9824C23.8327 8.23016 20.9068 7.85188 19.8646 7.80941C17.3748 7.55465 15.0047 9.27624 13.7386 9.27624C12.4725 9.27624 10.5232 7.84415 8.45807 7.88662C5.74058 7.92522 3.23539 9.46539 1.83418 11.8972C-0.98367 16.7841 1.11621 24.041 3.86844 28.013C5.21561 29.9547 6.81368 32.1433 8.92127 32.0623C10.9517 31.9812 11.716 30.7498 14.1633 30.7498C16.6105 30.7498 17.3015 32.0623 19.4438 32.0237C21.6248 31.9812 23.0067 30.0396 24.3423 28.0902C25.8786 25.8321 26.5155 23.6512 26.5541 23.5353C26.5039 23.516 22.3041 21.9064 22.2578 17.0697Z" fill="#ede9fe" fill-opacity="0.75"/>
<path d="M18.2319 5.1769C19.3513 3.82201 20.104 1.94216 19.8994 0.0661621C18.2898 0.131783 16.3404 1.13926 15.1863 2.49415C14.1518 3.69077 13.2447 5.60537 13.4917 7.44276C15.2789 7.58172 17.1163 6.52792 18.2319 5.1769ZM36.3742 21.0495L34.5214 26.6659H32.1397L38.2039 8.81695H40.9831L47.0705 26.6659H44.6077L42.7009 21.0495H36.3742ZM42.2261 19.2469L40.4813 14.1091C40.0837 12.9434 39.8213 11.8857 39.5549 10.8512H39.5047C39.2384 11.9089 38.9489 12.9935 38.6053 14.0821L36.8606 19.243L42.2261 19.2469ZM48.877 18.0309C48.877 16.3904 48.8268 15.0625 48.7689 13.8466H50.8611L50.9691 16.0469H51.0193C51.9728 14.4835 53.4821 13.5571 55.5742 13.5571C58.6738 13.5571 61.0015 16.1781 61.0015 20.0729C61.0015 24.6818 58.1952 26.9554 55.1766 26.9554C53.482 26.9554 51.9998 26.2143 51.2316 24.9443H51.1814V31.9079H48.877V18.0309ZM51.1776 21.4471C51.1776 21.7945 51.2278 22.1072 51.2857 22.4005C51.7103 24.0141 53.1115 25.1296 54.7829 25.1296C57.2456 25.1296 58.6777 23.1185 58.6777 20.1771C58.6777 17.6063 57.3267 15.4138 54.864 15.4138C53.2775 15.4138 51.7952 16.5525 51.3397 18.3011C51.2586 18.5906 51.1814 18.9381 51.1814 19.2546L51.1776 21.4471ZM63.4102 18.0309C63.4102 16.3904 63.36 15.0625 63.3021 13.8466H65.3942L65.5023 16.0469H65.5525C66.5059 14.4835 68.0152 13.5571 70.1074 13.5571C73.207 13.5571 75.5346 16.1781 75.5346 20.0729C75.5346 24.6818 72.7284 26.9554 69.7098 26.9554C68.0152 26.9554 66.533 26.2143 65.7648 24.9443H65.7146V31.9079H63.4102V18.0309ZM65.7146 21.4471C65.7146 21.7945 65.7648 22.1072 65.8227 22.4005C66.2473 24.0141 67.6485 25.1296 69.3199 25.1296C71.7827 25.1296 73.2147 23.1185 73.2147 20.1771C73.2147 17.6063 71.8637 15.4138 69.401 15.4138C67.8145 15.4138 66.3322 16.5525 65.8767 18.3011C65.7957 18.5906 65.7185 18.9381 65.7185 19.2546L65.7146 21.4471ZM77.9472 7.86351H80.2787V26.6621H77.9472V7.86351ZM84.9648 20.6789C85.015 23.8288 87.0299 25.1296 89.3576 25.1296C91.0251 25.1296 92.0326 24.8401 92.905 24.4695L93.3026 26.1371C92.4842 26.5077 91.0792 26.9323 89.041 26.9323C85.096 26.9323 82.7375 24.3383 82.7375 20.4705C82.7375 16.6027 85.015 13.5571 88.7477 13.5571C92.932 13.5571 94.0437 17.2358 94.0437 19.5943C94.0437 20.0729 93.9935 20.4396 93.9626 20.6789H84.9648ZM91.7971 19.0114C91.8241 17.5291 91.1872 15.2247 88.5662 15.2247C86.2077 15.2247 85.1771 17.3979 84.9918 19.0114H91.7971Z" fill="#ede9fe" fill-opacity="0.75"/>
</g>
<defs>
<clipPath id="clip0_111_19">
<rect width="93.5489" height="32" fill="white" transform="translate(0.498535 0.0661621)"/>
</clipPath>
</defs>
</svg>
