<svg width="136" height="27" viewBox="0 0 136 27" fill="none" xmlns="http://www.w3.org/2000/svg">
<g clip-path="url(#clip0_111_5)">
<path d="M123.218 19.0107C124.902 20.4943 127.249 21.2846 129.483 21.1816L130.698 21.1024C131.513 21.0033 132.569 20.5953 133.244 20.1258C133.463 19.9713 133.679 19.8149 133.892 19.6524C133.938 19.6191 133.98 19.5812 134.018 19.5395C134.806 18.7076 135.325 17.6419 135.373 16.4832L135.42 16.1167L135.4 15.5779C135.323 14.0646 134.097 12.888 132.75 12.4047L128.975 11.0756C128.51 10.9204 128.093 10.6444 127.767 10.2753C127.674 10.1709 127.594 10.0559 127.528 9.93264C127.176 9.20767 127.459 8.22123 128.278 7.98948C129.206 7.73395 130.24 7.97165 131.019 8.51439L131.647 8.93036C131.647 8.93036 131.984 9.17994 132.108 9.29482L133.356 10.4199L135.16 7.87855C134.095 7.00304 133.067 6.57717 132.167 6.40682C131.048 6.17315 129.898 6.13163 128.765 6.28401C128.723 6.29001 128.682 6.29795 128.641 6.30778C127.55 6.56924 126.361 7.0169 125.707 7.99146L125.398 8.44902L125.079 9.05119C124.856 9.79993 124.675 10.614 124.825 11.4064C124.939 12.0026 125.122 12.5948 125.496 13.0801C125.585 13.199 125.758 13.4466 125.758 13.4466L126.41 13.9933L127.646 14.6648L129.838 15.4175C130.052 15.4928 130.273 15.5462 130.484 15.6354L131.578 16.0811C131.966 16.2454 132.285 16.5402 132.48 16.915C132.595 17.1526 132.655 17.4129 132.658 17.677C132.66 17.9411 132.604 18.2024 132.494 18.4421C132.384 18.6818 132.222 18.8939 132.02 19.0631C131.819 19.2324 131.582 19.3545 131.328 19.4207C131.143 19.4563 130.954 19.4841 130.765 19.4999C130.709 19.5082 130.652 19.5075 130.596 19.4979C129.241 19.3751 127.926 18.6739 126.967 17.7172C126.853 17.6182 126.727 17.535 126.619 17.43L125.297 16.1781L123.218 19.0107Z" fill="#ede9fe" fill-opacity="0.75"/>
<path d="M108.534 9.19372C108.612 9.34625 108.681 9.50471 108.738 9.66714L111.741 16.2434L113.381 12.3115L112.105 9.21749L110.524 10.0415L110.066 8.80153L114.787 6.2146L119.087 16.1523L121.802 9.18976C121.856 9.06497 121.993 8.85699 121.917 8.72626C121.862 8.64108 121.631 8.79756 121.625 8.80153C121.21 9.03922 120.375 9.50867 120.375 9.50867L119.702 8.32217L123.413 6.32354L124.27 8.22115L119.268 20.8864L117.11 20.8765L114.427 14.6845C113.984 15.8869 113.458 17.0516 112.942 18.2242C112.917 18.2678 112.899 18.3173 112.879 18.3648L111.952 20.9003L109.619 20.8983L104.584 9.30069L103.011 10.099L102.456 8.84114L107.344 6.2146C107.65 7.24264 108.049 8.23898 108.534 9.19372Z" fill="#ede9fe" fill-opacity="0.75"/>
<path d="M70.8462 2.11816H72.5611L72.5651 19.1313L70.8757 19.1372L70.8738 20.7654L76.5916 20.7615L76.6014 19.1253L74.7467 19.1273L74.7624 6.03024L84.9183 20.8031L87.3499 20.8169L87.3657 2.04685L89.0708 2.03695L89.0767 0.527575L83.2643 0.529556L83.2604 2.06072L85.1998 2.04883L85.1978 14.4387L75.485 0.476074L70.8521 0.478055L70.8462 2.11816Z" fill="#ede9fe" fill-opacity="0.75"/>
<path d="M64.8273 7.28608C64.5162 7.8308 64.2307 8.38938 63.9728 8.95986L58.0167 21.9737C57.2961 23.5564 56.2998 25.1767 54.5927 25.7967C53.6161 26.1453 52.5371 26.173 51.5704 25.767C51.4109 25.7095 51.0624 25.5411 51.0624 25.5411C51.0624 25.5411 51.1234 25.25 51.1569 25.1173L51.8008 22.2847C52.3599 22.5442 52.9782 22.6373 53.5886 22.6611C53.7185 22.6512 53.8504 22.6333 53.9804 22.6274C54.7621 22.6076 55.5103 22.2035 55.9611 21.5578L56.5774 20.6842L51.4956 9.26688L49.8042 10.0156L49.312 8.83903L54.3368 6.2937L58.0423 14.9755C58.1801 15.342 58.318 15.7857 58.5346 16.1165C58.7039 16.374 58.8397 15.7857 58.8397 15.7857L62.376 7.93974C61.8166 8.17425 61.2698 8.43806 60.7378 8.73008C60.4656 8.29432 60.2089 7.84903 59.968 7.39502L63.8901 5.52515L64.8273 7.28608Z" fill="#ede9fe" fill-opacity="0.75"/>
<path d="M43.1035 20.7655L50.0086 20.7675L50.0027 19.4463L48.4709 19.4542L48.461 1.85285L49.8117 1.36953L49.8078 0.0661621L43.1429 2.37578V3.59199L44.5901 3.10867L44.6019 19.5097L43.1055 19.5018L43.1035 20.7655ZM35.084 9.34226L36.6591 8.80744L36.6532 19.4958H35.149L35.1509 20.7398L42.0521 20.7338L42.0481 19.4542H40.5754L40.5813 6.25617L35.466 7.86458L35.0958 7.9656L35.0938 8.39345L35.084 9.34226Z" fill="#ede9fe" fill-opacity="0.75"/>
<path d="M40.3372 1.6291C40.4877 2.00719 40.544 2.4166 40.5011 2.82161C40.4582 3.22661 40.3174 3.61489 40.0911 3.95258C40.0045 4.09718 39.7367 4.33487 39.7367 4.33487C39.7367 4.33487 39.4886 4.48343 39.3468 4.54484C38.449 4.93704 37.2755 4.77263 36.6198 4.00012C36.5426 3.91049 36.474 3.81365 36.4151 3.71092C36.2152 3.36422 36.1109 2.97014 36.113 2.56936C36.1151 2.16857 36.2234 1.77561 36.4269 1.43102C36.7675 0.858568 37.3661 0.462408 38.0237 0.36931C38.8251 0.212827 39.6697 0.561448 40.1324 1.24086C40.2112 1.36169 40.2821 1.49242 40.3372 1.6291ZM102.079 17.0259L101.654 16.6059L100.947 17.2537L100.173 17.8222C99.0118 18.5293 97.5627 18.7016 96.2415 18.3887C96.028 18.3341 95.8198 18.2605 95.6193 18.1688C94.9313 17.8515 94.3173 17.3921 93.8173 16.8205C93.3173 16.2489 92.9424 15.5778 92.7171 14.851L102.048 14.8549L102.068 12.8087C102.014 10.5269 101.067 8.03303 98.9626 6.91586C98.622 6.72372 97.8757 6.49197 97.8757 6.49197L97.4091 6.34935C97.4091 6.34935 97.1472 6.28002 96.5172 6.25031C95.8871 6.2206 95.3574 6.24239 95.3574 6.24239C95.3574 6.24239 94.755 6.27606 94.5777 6.30775C93.4906 6.4466 92.4622 6.88305 91.6046 7.56952C90.9785 8.05482 90.3957 8.57775 89.9862 9.26707C89.6475 9.82764 89.2911 10.3704 89.0962 11.0023C89.0332 11.2023 88.9879 11.3885 88.9249 11.5886C88.5022 12.9655 88.4539 14.4313 88.7851 15.8334C89.1016 17.1275 89.7796 18.3035 90.7391 19.2224C91.6985 20.1413 92.8994 20.7648 94.1997 21.0192C94.3749 21.0528 94.5541 21.0806 94.7313 21.1123C95.3673 21.2172 95.9127 21.1657 96.527 21.1321C97.2902 21.0881 98.043 20.9326 98.7618 20.6705L99.7659 20.215L100.711 19.6108C100.711 19.6108 101.784 18.8561 102.597 17.5904C102.609 17.5785 102.079 17.0259 102.079 17.0259ZM92.0358 12.3789L92.0063 11.7371L92.0634 11.2399C92.5044 9.47703 93.2546 8.69858 94.2548 8.24894C94.6624 8.06472 95.1724 8.02313 95.1724 8.02313C95.1724 8.02313 95.5386 7.98153 95.7276 7.97361C96.2683 7.96691 96.8021 8.09599 97.2806 8.34917C97.7592 8.60235 98.1674 8.97162 98.4684 9.42355C98.7283 9.82962 98.9193 10.2793 99.0315 10.7467C99.2461 11.5569 99.3485 12.4205 99.2993 13.2584L92.2406 13.2524L92.0358 12.3789ZM32.3866 19.4959L32.3984 10.3644C32.3925 9.85339 32.2626 9.378 32.1346 8.8927C31.92 8.04293 31.2938 7.29617 30.5456 6.86436C30.3838 6.77032 30.2161 6.68695 30.0436 6.61478L29.506 6.44839C29.506 6.44839 28.9646 6.30973 28.7834 6.29983C27.3185 6.22852 25.8123 6.48999 24.5147 7.19911C24.4439 7.24071 24.308 7.35164 24.2273 7.35956C23.9378 7.38729 24.2155 6.6326 24.2155 6.6326C24.2155 6.6326 23.8217 6.52762 23.7961 6.50781L22.7132 6.26616L21.6578 10.2L22.7998 10.4912C22.9278 10.5269 23.0754 10.5526 23.0754 10.5526C23.0754 10.5526 23.613 9.60975 23.8394 9.36809L24.2371 8.96995C24.7884 8.4391 25.5366 8.21725 26.2986 8.20932C27.1275 8.20932 27.9191 8.62133 28.24 9.41959C28.5038 10.0772 28.618 10.7943 28.5668 11.5034L26.7259 11.5569C26.5014 11.5628 26.275 11.5727 26.0486 11.5826C26.0084 11.5849 25.9684 11.5882 25.9285 11.5925L24.2174 11.852C23.8472 11.91 23.4854 12.0138 23.1404 12.161C22.9829 12.2264 22.8293 12.2997 22.6698 12.3571C22.2209 12.5255 21.8035 12.7731 21.4511 13.0841C19.5589 14.7281 19.4683 17.7766 20.945 19.7019C21.0592 19.8525 21.1892 19.9911 21.3388 20.108C22.1146 20.6963 23.0459 21.0647 24.0127 21.1657L24.5778 21.1836C25.4201 21.2822 26.2731 21.1481 27.0454 20.7956C27.8176 20.4431 28.4797 19.8856 28.9606 19.183L29.3091 20.73L33.7255 20.7201L33.7294 19.486L32.3866 19.4959ZM28.5747 16.7802C28.5637 17.1463 28.4416 17.5003 28.2247 17.7945C28.0079 18.0888 27.7068 18.3092 27.3618 18.4263C26.703 18.632 26.0005 18.6505 25.3319 18.4798C25.1023 18.41 24.8924 18.2865 24.7195 18.1193C24.2709 17.7109 23.9789 17.1571 23.8945 16.5544C23.8136 16.1005 23.8042 15.6366 23.867 15.1798C24.0481 14.1755 24.8377 13.3554 25.828 13.1455C26.2317 13.0821 26.6353 13.0365 27.0429 13.0068H27.1236L28.62 13.0801C28.618 13.0801 28.6102 15.5482 28.5747 16.7802ZM19.9074 9.99997L19.8897 9.79793C19.8897 9.79793 19.7873 9.06899 19.7086 8.66293C19.7086 8.66293 19.6062 7.90428 19.299 6.97528C18.9919 6.04629 18.5902 5.39856 18.5902 5.39856C18.4466 5.13566 18.2854 4.88286 18.1078 4.6419L17.6333 3.99814C16.1684 2.10647 13.8352 0.969493 11.4921 0.686238L10.1139 0.533717L0.708216 0.553525L0.712154 2.18571L2.44876 2.19363L2.43104 19.1889C2.42908 19.2048 0.621582 19.1869 0.621582 19.1869L0.631427 20.7914L7.63694 20.8092C9.81459 20.8389 11.9785 20.6289 14.0616 19.9634C14.2506 19.904 14.4495 19.8406 14.6287 19.7515L14.9969 19.589C16.5228 18.8363 17.8321 17.6815 18.663 16.186L19.0765 15.4373L19.0824 15.4254C19.7873 13.712 20.0334 11.8401 19.9074 9.99997ZM15.4576 11.6737C15.4261 11.9395 15.4064 12.2065 15.3985 12.474C15.3035 14.0817 14.7596 15.6299 13.8293 16.9407L13.5576 17.2497C12.3683 18.5392 10.6691 19.177 8.94235 19.1651L6.56977 19.1889L6.58158 2.14609L9.34992 2.15005C10.5648 2.28475 11.7323 2.75419 12.6873 3.52077C14.2762 4.80432 15.0894 6.80692 15.3532 8.79366C15.3828 9.01749 15.3847 9.24528 15.4182 9.46713C15.5206 10.198 15.5462 10.9428 15.4576 11.6737Z" fill="#ede9fe" fill-opacity="0.75"/>
</g>
<defs>
<clipPath id="clip0_111_5">
<rect width="134.887" height="26" fill="white" transform="translate(0.577148 0.0661621)"/>
</clipPath>
</defs>
</svg>
