<svg width="135" height="27" viewBox="0 0 135 27" fill="none" xmlns="http://www.w3.org/2000/svg">
<g clip-path="url(#clip0_111_36)">
<path d="M11.02 4.16866C9.44526 4.16866 8.97282 4.86156 8.97282 6.40485V8.956H13.1932L12.7838 13.1134H8.97282V25.6802H3.90202V13.1134H0.500488V8.98749H3.90202V6.49934C3.90202 2.27892 5.60279 0.0742188 10.2956 0.0742188C11.272 0.0742188 12.2799 0.13721 13.2562 0.263193V4.16866" fill="#ede9fe" fill-opacity="0.75"/>
<path d="M13.5398 16.7985C13.5398 12.1371 15.7445 8.60962 20.4059 8.60962C22.9255 8.60962 24.4688 9.90094 25.2247 11.5387V8.98757H30.075V25.7118H25.1932V23.1921C24.5003 24.7984 22.894 26.0582 20.3744 26.0582C15.7445 26.0582 13.5083 22.5622 13.5083 17.8693M18.6106 17.9323C18.6106 20.4205 19.524 22.0898 21.8861 22.0898C23.9649 22.0898 25.0042 20.578 25.0042 18.1843V16.4835C25.0042 14.0899 23.9334 12.5781 21.8861 12.5781C19.524 12.5781 18.6106 14.2158 18.6106 16.7355V17.9323Z" fill="#ede9fe" fill-opacity="0.75"/>
<path d="M40.5947 8.60962C42.5474 8.60962 44.4371 9.01906 45.445 9.74346L44.3111 13.334C43.2718 12.83 42.1064 12.5781 40.9411 12.5781C38.201 12.5781 37.0042 14.1529 37.0042 16.8615V17.8379C37.0042 20.5465 38.201 22.1213 40.9411 22.1213C42.1064 22.1213 43.2718 21.8378 44.3111 21.3339L45.445 24.9244C44.4371 25.6173 42.5789 26.0582 40.5947 26.0582C34.642 26.0582 31.9648 22.8772 31.9648 17.7434V16.956C31.9648 11.8222 34.642 8.60962 40.5947 8.60962Z" fill="#ede9fe" fill-opacity="0.75"/>
<path d="M46.1064 17.9638V16.4835C46.1064 11.7277 48.8151 8.60962 54.3268 8.60962C59.5236 8.60962 61.8228 11.7592 61.8228 16.4205V19.0977H51.1772C51.2717 21.3969 52.3111 22.4047 55.1142 22.4047C56.941 22.4047 58.7677 22.0583 60.5 21.3969L61.4133 24.8614C60.0905 25.5543 57.3504 26.0897 54.9252 26.0897C48.5001 26.0582 46.1064 22.8772 46.1064 17.9638ZM51.1772 15.7591H57.2874V15.3497C57.2874 13.5229 56.563 12.0741 54.3268 12.0741C52.0591 12.0741 51.1772 13.5229 51.1772 15.7591Z" fill="#ede9fe" fill-opacity="0.75"/>
<path d="M80.5938 17.8693C80.5938 22.5306 78.3576 26.0581 73.6963 26.0581C71.1766 26.0581 69.4129 24.7983 68.72 23.192V25.7117H63.9326V0.578146L69.0034 0.137207V11.3182C69.7278 9.83787 71.3656 8.64104 73.7278 8.64104C78.3576 8.64104 80.6253 12.1371 80.6253 16.8299M75.523 16.7039C75.523 14.3418 74.6097 12.578 72.1845 12.578C70.1058 12.578 69.0034 14.0583 69.0034 16.452V18.2157C69.0034 20.6094 70.1373 22.0897 72.1845 22.0897C74.6097 22.0897 75.523 20.3259 75.523 17.9638V16.7039Z" fill="#ede9fe" fill-opacity="0.75"/>
<path d="M82.2632 17.7434V16.893C82.2632 12.0741 85.0033 8.60962 90.578 8.60962C96.1528 8.60962 98.8929 12.0741 98.8929 16.893V17.7434C98.8929 22.5622 96.1528 26.0267 90.578 26.0267C85.0033 26.0267 82.2632 22.5937 82.2632 17.7434ZM93.8536 16.5465C93.8536 14.3418 92.9402 12.5781 90.578 12.5781C88.2159 12.5781 87.3025 14.3418 87.3025 16.5465V18.1213C87.3025 20.326 88.2159 22.0898 90.578 22.0898C92.9402 22.0898 93.8536 20.326 93.8536 18.1213V16.5465Z" fill="#ede9fe" fill-opacity="0.75"/>
<path d="M100.625 17.7434V16.893C100.625 12.0741 103.365 8.60962 108.94 8.60962C114.515 8.60962 117.255 12.0741 117.255 16.893V17.7434C117.255 22.5622 114.515 26.0267 108.94 26.0267C103.365 26.0267 100.625 22.5937 100.625 17.7434ZM112.215 16.5465C112.215 14.3418 111.302 12.5781 108.94 12.5781C106.578 12.5781 105.664 14.3418 105.664 16.5465V18.1213C105.664 20.326 106.578 22.0898 108.94 22.0898C111.302 22.0898 112.215 20.326 112.215 18.1213V16.5465Z" fill="#ede9fe" fill-opacity="0.75"/>
<path d="M124.216 16.9559L129.223 8.956H134.578L129.349 17.2394L134.798 25.7117H129.412L124.216 17.5228V25.7117H119.176V0.578148L124.216 0.105713" fill="#ede9fe" fill-opacity="0.75"/>
</g>
<defs>
<clipPath id="clip0_111_36">
<rect width="134.298" height="26" fill="white" transform="translate(0.500488 0.0661621)"/>
</clipPath>
</defs>
</svg>
