<svg width="170" height="48" viewBox="0 0 170 48" fill="none" xmlns="http://www.w3.org/2000/svg">
<g opacity="0.84">
<rect x="0.5" y="19.2" width="9.59998" height="9.59999" fill="#F5F3FF"/>
<rect x="29.2998" y="28.8" width="9.6" height="9.59999" transform="rotate(180 29.2998 28.8)" fill="#F5F3FF"/>
<path opacity="0.4" d="M10.0996 19.2001L19.6996 9.6001V19.2001L10.0996 28.8001V19.2001Z" fill="#F5F3FF"/>
<path opacity="0.6" d="M19.7002 28.7999L10.1002 38.3999L10.1002 28.7999L19.7002 19.1999L19.7002 28.7999Z" fill="#F5F3FF"/>
<path opacity="0.8" d="M0.5 19.2L19.7 0V9.59999L10.1 19.2H0.5Z" fill="#F5F3FF"/>
<path opacity="0.8" d="M29.2998 28.8L10.0998 48L10.0998 38.4L19.6998 28.8L29.2998 28.8Z" fill="#F5F3FF"/>
<path d="M50.2085 34.28C48.6965 34.28 47.2311 34.0654 45.8125 33.636C44.4125 33.2067 43.3018 32.6374 42.4805 31.928L43.7405 29.1C44.5431 29.7347 45.5231 30.2574 46.6805 30.668C47.8565 31.06 49.0325 31.256 50.2085 31.256C51.6645 31.256 52.7471 31.0227 53.4565 30.556C54.1845 30.0894 54.5485 29.4734 54.5485 28.708C54.5485 28.148 54.3431 27.6907 53.9325 27.336C53.5405 26.9627 53.0365 26.6734 52.4205 26.468C51.8045 26.2627 50.9645 26.0294 49.9005 25.768C48.4071 25.4134 47.1938 25.0587 46.2605 24.704C45.3458 24.3494 44.5525 23.7987 43.8805 23.052C43.2271 22.2867 42.9005 21.26 42.9005 19.972C42.9005 18.8894 43.1898 17.9094 43.7685 17.032C44.3658 16.136 45.2525 15.4267 46.4285 14.904C47.6231 14.3814 49.0791 14.12 50.7965 14.12C51.9911 14.12 53.1671 14.2694 54.3245 14.568C55.4818 14.8667 56.4805 15.296 57.3205 15.856L56.1725 18.684C55.3138 18.18 54.4178 17.7974 53.4845 17.536C52.5511 17.2747 51.6458 17.144 50.7685 17.144C49.3311 17.144 48.2578 17.3867 47.5485 17.872C46.8578 18.3574 46.5125 19.0014 46.5125 19.804C46.5125 20.364 46.7085 20.8214 47.1005 21.176C47.5111 21.5307 48.0245 21.8107 48.6405 22.016C49.2565 22.2214 50.0965 22.4547 51.1605 22.716C52.6165 23.052 53.8111 23.4067 54.7445 23.78C55.6778 24.1347 56.4711 24.6854 57.1245 25.432C57.7965 26.1787 58.1325 27.1867 58.1325 28.456C58.1325 29.5387 57.8338 30.5187 57.2365 31.396C56.6578 32.2734 55.7711 32.9734 54.5765 33.496C53.3818 34.0187 51.9258 34.28 50.2085 34.28Z" fill="#F5F3FF"/>
<path d="M61.4058 19.048H64.9058V34H61.4058V19.048ZM63.1698 16.584C62.5352 16.584 62.0032 16.388 61.5738 15.996C61.1445 15.5854 60.9298 15.0814 60.9298 14.484C60.9298 13.8867 61.1445 13.392 61.5738 13C62.0032 12.5894 62.5352 12.384 63.1698 12.384C63.8045 12.384 64.3365 12.58 64.7658 12.972C65.1952 13.3454 65.4098 13.8214 65.4098 14.4C65.4098 15.016 65.1952 15.5387 64.7658 15.968C64.3552 16.3787 63.8232 16.584 63.1698 16.584Z" fill="#F5F3FF"/>
<path d="M74.1196 34.196C72.9062 34.196 71.7209 34.0374 70.5636 33.72C69.4063 33.4027 68.4822 33.0014 67.7916 32.516L69.1356 29.856C69.8076 30.304 70.6102 30.668 71.5436 30.948C72.4956 31.2094 73.4289 31.34 74.3436 31.34C76.4342 31.34 77.4796 30.7894 77.4796 29.688C77.4796 29.1654 77.2089 28.8014 76.6676 28.596C76.1449 28.3907 75.2956 28.1947 74.1196 28.008C72.8876 27.8214 71.8796 27.6067 71.0956 27.364C70.3302 27.1214 69.6582 26.7014 69.0796 26.104C68.5196 25.488 68.2396 24.6387 68.2396 23.556C68.2396 22.1374 68.8276 21.008 70.0036 20.168C71.1982 19.3094 72.8036 18.88 74.8196 18.88C75.8462 18.88 76.8729 19.0014 77.8996 19.244C78.9262 19.468 79.7662 19.776 80.4196 20.168L79.0756 22.828C77.8062 22.0814 76.3782 21.708 74.7916 21.708C73.7649 21.708 72.9809 21.8667 72.4396 22.184C71.9169 22.4827 71.6556 22.884 71.6556 23.388C71.6556 23.948 71.9356 24.3494 72.4956 24.592C73.0742 24.816 73.9609 25.0307 75.1556 25.236C76.3502 25.4227 77.3302 25.6374 78.0956 25.88C78.8609 26.1227 79.5142 26.5334 80.0556 27.112C80.6156 27.6907 80.8956 28.512 80.8956 29.576C80.8956 30.976 80.2889 32.096 79.0756 32.936C77.8622 33.776 76.2102 34.196 74.1196 34.196Z" fill="#F5F3FF"/>
<path d="M97.6363 19.048L90.6363 35.204C89.983 36.828 89.1896 37.9667 88.2563 38.62C87.323 39.292 86.1936 39.628 84.8683 39.628C84.1216 39.628 83.3843 39.5067 82.6563 39.264C81.9283 39.0214 81.331 38.6854 80.8643 38.256L82.2643 35.68C82.6003 35.9974 82.9923 36.2494 83.4403 36.436C83.907 36.6227 84.3736 36.716 84.8403 36.716C85.4563 36.716 85.9603 36.5574 86.3523 36.24C86.763 35.9227 87.1363 35.3907 87.4723 34.644L87.7243 34.056L81.2003 19.048H84.8403L89.5443 30.108L94.2763 19.048H97.6363Z" fill="#F5F3FF"/>
<path d="M108.112 18.88C109.568 18.88 110.865 19.1974 112.004 19.832C113.161 20.4667 114.066 21.3627 114.72 22.52C115.373 23.6774 115.7 25.012 115.7 26.524C115.7 28.036 115.373 29.38 114.72 30.556C114.066 31.7134 113.161 32.6094 112.004 33.244C110.865 33.8787 109.568 34.196 108.112 34.196C106.096 34.196 104.5 33.524 103.324 32.18V39.432H99.8238V19.048H103.156V21.008C103.734 20.2987 104.444 19.7667 105.284 19.412C106.142 19.0574 107.085 18.88 108.112 18.88ZM107.72 31.2C109.008 31.2 110.062 30.7707 110.884 29.912C111.724 29.0534 112.144 27.924 112.144 26.524C112.144 25.124 111.724 23.9947 110.884 23.136C110.062 22.2774 109.008 21.848 107.72 21.848C106.88 21.848 106.124 22.044 105.452 22.436C104.78 22.8094 104.248 23.3507 103.856 24.06C103.464 24.7694 103.268 25.5907 103.268 26.524C103.268 27.4574 103.464 28.2787 103.856 28.988C104.248 29.6974 104.78 30.248 105.452 30.64C106.124 31.0134 106.88 31.2 107.72 31.2Z" fill="#F5F3FF"/>
<path d="M127.503 18.88C129.388 18.88 130.9 19.4307 132.039 20.532C133.178 21.6334 133.747 23.2667 133.747 25.432V34H130.247V25.88C130.247 24.5734 129.939 23.5934 129.323 22.94C128.707 22.268 127.83 21.932 126.691 21.932C125.403 21.932 124.386 22.324 123.639 23.108C122.892 23.8734 122.519 24.984 122.519 26.44V34H119.019V13.224H122.519V20.784C123.098 20.168 123.807 19.7014 124.647 19.384C125.506 19.048 126.458 18.88 127.503 18.88Z" fill="#F5F3FF"/>
<path d="M152.663 19.048V34H149.331V32.096C148.771 32.768 148.071 33.2907 147.231 33.664C146.391 34.0187 145.486 34.196 144.515 34.196C142.518 34.196 140.94 33.6454 139.783 32.544C138.644 31.424 138.075 29.772 138.075 27.588V19.048H141.575V27.112C141.575 28.456 141.874 29.464 142.471 30.136C143.087 30.7894 143.955 31.116 145.075 31.116C146.326 31.116 147.315 30.7334 148.043 29.968C148.79 29.184 149.163 28.064 149.163 26.608V19.048H152.663Z" fill="#F5F3FF"/>
<path d="M161.866 34.196C160.652 34.196 159.467 34.0374 158.31 33.72C157.152 33.4027 156.228 33.0014 155.538 32.516L156.882 29.856C157.554 30.304 158.356 30.668 159.29 30.948C160.242 31.2094 161.175 31.34 162.09 31.34C164.18 31.34 165.226 30.7894 165.226 29.688C165.226 29.1654 164.955 28.8014 164.414 28.596C163.891 28.3907 163.042 28.1947 161.866 28.008C160.634 27.8214 159.626 27.6067 158.842 27.364C158.076 27.1214 157.404 26.7014 156.826 26.104C156.266 25.488 155.986 24.6387 155.986 23.556C155.986 22.1374 156.574 21.008 157.75 20.168C158.944 19.3094 160.55 18.88 162.566 18.88C163.592 18.88 164.619 19.0014 165.646 19.244C166.672 19.468 167.512 19.776 168.166 20.168L166.822 22.828C165.552 22.0814 164.124 21.708 162.538 21.708C161.511 21.708 160.727 21.8667 160.186 22.184C159.663 22.4827 159.402 22.884 159.402 23.388C159.402 23.948 159.682 24.3494 160.242 24.592C160.82 24.816 161.707 25.0307 162.902 25.236C164.096 25.4227 165.076 25.6374 165.842 25.88C166.607 26.1227 167.26 26.5334 167.802 27.112C168.362 27.6907 168.642 28.512 168.642 29.576C168.642 30.976 168.035 32.096 166.822 32.936C165.608 33.776 163.956 34.196 161.866 34.196Z" fill="#F5F3FF"/>
</g>
</svg>
