<svg width="178" height="48" viewBox="0 0 178 48" fill="none" xmlns="http://www.w3.org/2000/svg">
<g opacity="0.84">
<circle cx="20" cy="24" r="17" stroke="#F5F3FF" stroke-width="6"/>
<path d="M66.1836 20.4132C66.1836 21.4585 65.9316 22.4385 65.4276 23.3532C64.9423 24.2679 64.1676 25.0052 63.1036 25.5652C62.0583 26.1252 60.733 26.4052 59.1276 26.4052H55.8516V33.9092H51.9316V14.3652H59.1276C60.6396 14.3652 61.9276 14.6265 62.9916 15.1492C64.0556 15.6719 64.849 16.3905 65.3716 17.3052C65.913 18.2199 66.1836 19.2559 66.1836 20.4132ZM58.9596 23.2412C60.0423 23.2412 60.845 22.9985 61.3676 22.5132C61.8903 22.0092 62.1516 21.3092 62.1516 20.4132C62.1516 18.5092 61.0876 17.5572 58.9596 17.5572H55.8516V23.2412H58.9596Z" fill="#F5F3FF"/>
<path d="M74.7348 34.1612C73.2415 34.1612 71.8975 33.8345 70.7028 33.1812C69.5081 32.5092 68.5655 31.5665 67.8748 30.3532C67.2028 29.1399 66.8668 27.7399 66.8668 26.1532C66.8668 24.5665 67.2121 23.1665 67.9028 21.9532C68.6121 20.7399 69.5735 19.8065 70.7868 19.1532C72.0001 18.4812 73.3535 18.1452 74.8468 18.1452C76.3401 18.1452 77.6935 18.4812 78.9068 19.1532C80.1201 19.8065 81.0721 20.7399 81.7628 21.9532C82.4721 23.1665 82.8268 24.5665 82.8268 26.1532C82.8268 27.7399 82.4628 29.1399 81.7348 30.3532C81.0255 31.5665 80.0548 32.5092 78.8228 33.1812C77.6095 33.8345 76.2468 34.1612 74.7348 34.1612ZM74.7348 30.7452C75.4441 30.7452 76.1068 30.5772 76.7228 30.2412C77.3575 29.8865 77.8615 29.3639 78.2348 28.6732C78.6081 27.9825 78.7948 27.1425 78.7948 26.1532C78.7948 24.6785 78.4028 23.5492 77.6188 22.7652C76.8535 21.9625 75.9108 21.5612 74.7908 21.5612C73.6708 21.5612 72.7281 21.9625 71.9628 22.7652C71.2161 23.5492 70.8428 24.6785 70.8428 26.1532C70.8428 27.6279 71.2068 28.7665 71.9348 29.5692C72.6815 30.3532 73.6148 30.7452 74.7348 30.7452Z" fill="#F5F3FF"/>
<path d="M88.5023 13.1892V33.9092H84.5823V13.1892H88.5023Z" fill="#F5F3FF"/>
<path d="M106.095 18.3972L96.4912 41.2452H92.3192L95.6792 33.5172L89.4632 18.3972H93.8592L97.8632 29.2332L101.923 18.3972H106.095Z" fill="#F5F3FF"/>
<path d="M126.352 18.1732C128.256 18.1732 129.787 18.7612 130.944 19.9372C132.12 21.0945 132.708 22.7185 132.708 24.8092V33.9092H128.788V25.3412C128.788 24.1279 128.48 23.2039 127.864 22.5692C127.248 21.9159 126.408 21.5892 125.344 21.5892C124.28 21.5892 123.431 21.9159 122.796 22.5692C122.18 23.2039 121.872 24.1279 121.872 25.3412V33.9092H117.952V25.3412C117.952 24.1279 117.644 23.2039 117.028 22.5692C116.412 21.9159 115.572 21.5892 114.508 21.5892C113.426 21.5892 112.567 21.9159 111.932 22.5692C111.316 23.2039 111.008 24.1279 111.008 25.3412V33.9092H107.088V18.3972H111.008V20.2732C111.512 19.6199 112.156 19.1065 112.94 18.7332C113.743 18.3599 114.62 18.1732 115.572 18.1732C116.786 18.1732 117.868 18.4345 118.82 18.9572C119.772 19.4612 120.51 20.1892 121.032 21.1412C121.536 20.2452 122.264 19.5265 123.216 18.9852C124.187 18.4439 125.232 18.1732 126.352 18.1732Z" fill="#F5F3FF"/>
<path d="M134.3 26.0972C134.3 24.5292 134.608 23.1385 135.224 21.9252C135.859 20.7119 136.708 19.7785 137.772 19.1252C138.855 18.4719 140.059 18.1452 141.384 18.1452C142.542 18.1452 143.55 18.3785 144.408 18.8452C145.286 19.3119 145.986 19.8999 146.508 20.6092V18.3972H150.456V33.9092H146.508V31.6412C146.004 32.3692 145.304 32.9759 144.408 33.4612C143.531 33.9279 142.514 34.1612 141.356 34.1612C140.05 34.1612 138.855 33.8252 137.772 33.1532C136.708 32.4812 135.859 31.5385 135.224 30.3252C134.608 29.0932 134.3 27.6839 134.3 26.0972ZM146.508 26.1532C146.508 25.2012 146.322 24.3892 145.948 23.7172C145.575 23.0265 145.071 22.5039 144.436 22.1492C143.802 21.7759 143.12 21.5892 142.392 21.5892C141.664 21.5892 140.992 21.7665 140.376 22.1212C139.76 22.4759 139.256 22.9985 138.864 23.6892C138.491 24.3612 138.304 25.1639 138.304 26.0972C138.304 27.0305 138.491 27.8519 138.864 28.5612C139.256 29.2519 139.76 29.7839 140.376 30.1572C141.011 30.5305 141.683 30.7172 142.392 30.7172C143.12 30.7172 143.802 30.5399 144.436 30.1852C145.071 29.8119 145.575 29.2892 145.948 28.6172C146.322 27.9265 146.508 27.1052 146.508 26.1532Z" fill="#F5F3FF"/>
<path d="M157.729 21.6172V29.1212C157.729 29.6439 157.85 30.0265 158.093 30.2692C158.354 30.4932 158.783 30.6052 159.381 30.6052H161.201V33.9092H158.737C155.433 33.9092 153.781 32.3039 153.781 29.0932V21.6172H151.933V18.3972H153.781V14.5612H157.729V18.3972H161.201V21.6172H157.729Z" fill="#F5F3FF"/>
<path d="M171.636 18.1732C172.812 18.1732 173.858 18.4345 174.772 18.9572C175.687 19.4612 176.396 20.2172 176.9 21.2252C177.423 22.2145 177.684 23.4092 177.684 24.8092V33.9092H173.764V25.3412C173.764 24.1092 173.456 23.1665 172.84 22.5132C172.224 21.8412 171.384 21.5052 170.32 21.5052C169.238 21.5052 168.379 21.8412 167.744 22.5132C167.128 23.1665 166.82 24.1092 166.82 25.3412V33.9092H162.9V13.1892H166.82V20.3292C167.324 19.6572 167.996 19.1345 168.836 18.7612C169.676 18.3692 170.61 18.1732 171.636 18.1732Z" fill="#F5F3FF"/>
</g>
</svg>
