<svg width="200" height="48" viewBox="0 0 200 48" fill="none" xmlns="http://www.w3.org/2000/svg">
<g opacity="0.84">
<path d="M12.3324 4.48551L17.4808 23.6999V2.5752C17.8891 2.47993 18.3017 2.39604 18.7183 2.32386V23.7019L24.5091 2.09058C24.9264 2.12836 25.3403 2.17779 25.7506 2.23855L19.9132 24.024L31.5164 3.92661C31.8944 4.09667 32.2668 4.27708 32.6331 4.4675L20.9866 24.6398L37.6134 8.01298C37.9132 8.29646 38.205 8.58827 38.4884 8.88806L21.8591 25.5173L42.0338 13.8695C42.2242 14.2358 42.4046 14.6082 42.5746 14.9862L22.4822 26.5865L44.2617 20.7507C44.3224 21.161 44.3719 21.5749 44.4096 21.9923L22.7986 27.7829L44.176 27.7829C44.1038 28.1996 44.0199 28.6122 43.9246 29.0204L22.7953 29.0204L42.0134 34.1699C41.816 34.5478 41.608 34.9193 41.3897 35.284L22.4804 30.2172L38.274 39.3357C37.975 39.6431 37.6671 39.9419 37.3508 40.2315L21.8631 31.2897L33.5823 43.009C33.2116 43.2256 32.834 43.4316 32.45 43.6267L20.9867 32.1635L28.4976 45.1726C28.0863 45.2889 27.6702 45.3935 27.2496 45.486L19.9139 32.7804L23.4508 45.9799C23.1355 45.9933 22.8185 46.0001 22.5 46.0001C22.3913 46.0001 22.2827 45.9993 22.1744 45.9977L18.7183 33.0996V45.6763C18.3017 45.6041 17.8891 45.5202 17.4808 45.4249V33.1017L14.4336 44.4742C14.0449 44.321 13.6616 44.157 13.2841 43.9826L16.285 32.7831L10.6517 42.5403C10.303 42.3169 9.96095 42.084 9.62601 41.8419L15.215 32.1615L7.38799 39.9885C7.0882 39.705 6.79638 39.4132 6.5129 39.1135L14.3375 31.2889L4.65979 36.8763C4.41764 36.5414 4.18468 36.1994 3.9613 35.8507L13.7231 30.2147L2.518 33.2171C2.3436 32.8396 2.17957 32.4564 2.0263 32.0677L13.3988 29.0204L1.07541 29.0204C0.980119 28.6122 0.896197 28.1996 0.823994 27.7829L13.3955 27.7829L0.502398 24.3282C0.500801 24.219 0.5 24.1096 0.5 24.0001C0.5 23.6824 0.506734 23.3662 0.520068 23.0518L13.7213 26.5891L1.01362 19.2523C1.10615 18.8316 1.21072 18.4155 1.32695 18.0043L14.3414 25.5181L2.87334 14.0501C3.06845 13.666 3.27449 13.2884 3.49107 12.9177L15.2152 24.6418L6.26977 9.14795C6.55942 8.83159 6.85821 8.52372 7.16571 8.22477L16.2858 24.0212L11.2183 5.10905C11.5829 4.89081 11.9544 4.68283 12.3324 4.48551Z" fill="#F5F3FF"/>
<path d="M58.3477 33.9091H63.1357V25.5931H72.6837V21.3651H63.1357V17.8091H73.2997V13.6091H58.3477V33.9091Z" fill="#F5F3FF"/>
<path d="M81.4374 21.9811C83.2574 21.9811 84.7134 23.1011 84.7134 26.3211C84.7134 29.4851 83.3134 30.6891 81.4374 30.6891C79.5614 30.6891 78.1614 29.4851 78.1614 26.3211C78.1614 23.1011 79.6174 21.9811 81.4374 21.9811ZM81.4374 18.3971C77.2654 18.3971 73.4574 20.8611 73.4574 26.3211C73.4574 31.7811 77.2654 34.2731 81.4374 34.2731C85.6094 34.2731 89.4174 31.7811 89.4174 26.3211C89.4174 20.8611 85.6094 18.3971 81.4374 18.3971Z" fill="#F5F3FF"/>
<path d="M98.2888 18.3971C93.7248 18.3971 90.5888 21.5051 90.5888 26.2931C90.5888 31.0811 93.3328 34.2731 98.2888 34.2731C101.313 34.2731 104.925 32.8451 105.961 28.3651H101.649C101.313 29.7931 100.277 30.6891 98.5688 30.6891C96.9168 30.6891 95.2928 29.5971 95.2928 26.3211C95.2928 23.1011 96.9168 21.9811 98.5688 21.9811C99.9408 21.9811 101.033 22.5971 101.453 24.3611H105.765C104.869 19.8251 101.425 18.3971 98.2888 18.3971Z" fill="#F5F3FF"/>
<path d="M116.816 24.5011C110.964 24.9491 106.792 26.1531 106.792 29.8491C106.792 32.5931 109.144 34.2731 112 34.2731C114.156 34.2731 115.948 33.6851 117.068 32.0891L117.124 33.9091H121.66C121.436 32.9571 121.324 31.1931 121.324 29.5411V27.9731L121.38 24.6971C121.464 20.1331 119 18.3691 114.66 18.3691C110.18 18.3691 107.492 20.8891 107.268 23.7171H111.58C111.776 22.2611 112.784 21.5051 114.268 21.5051C115.948 21.5051 116.816 22.1211 116.816 23.9131V24.5011ZM116.928 27.5811C116.928 30.3531 115.528 31.1371 113.68 31.1371C112.476 31.1371 111.552 30.4931 111.552 29.5131C111.552 27.8891 113.708 27.5251 116.928 27.2171V27.5811Z" fill="#F5F3FF"/>
<path d="M128.372 13.6091H123.752V33.9091H128.372V13.6091Z" fill="#F5F3FF"/>
<path d="M131.317 13.6091V33.9091H136.105V26.8811H139.129C144.393 26.8811 148.341 25.5651 148.341 20.2171C148.341 14.8971 144.393 13.6091 139.129 13.6091H131.317ZM139.269 17.6411C141.509 17.6411 143.273 18.0891 143.273 20.2171C143.273 22.3451 141.509 22.8491 139.269 22.8491H136.105V17.6411H139.269Z" fill="#F5F3FF"/>
<path d="M156.458 21.9811C158.278 21.9811 159.734 23.1011 159.734 26.3211C159.734 29.4851 158.334 30.6891 156.458 30.6891C154.582 30.6891 153.182 29.4851 153.182 26.3211C153.182 23.1011 154.638 21.9811 156.458 21.9811ZM156.458 18.3971C152.286 18.3971 148.478 20.8611 148.478 26.3211C148.478 31.7811 152.286 34.2731 156.458 34.2731C160.63 34.2731 164.438 31.7811 164.438 26.3211C164.438 20.8611 160.63 18.3971 156.458 18.3971Z" fill="#F5F3FF"/>
<path d="M166.286 18.8451V33.9091H170.934V18.8451H166.286ZM166.286 13.6091V17.3051H170.906V13.6091H166.286Z" fill="#F5F3FF"/>
<path d="M178.303 18.8451H173.683V33.9091H178.303V26.1811C178.303 23.3811 179.115 22.0931 181.103 22.0931C183.343 22.0931 183.427 23.8571 183.427 26.0131V33.9091H188.047V24.8651C188.047 20.7771 186.843 18.5091 182.979 18.5091C180.599 18.5091 178.975 19.7131 178.303 20.8331V18.8451Z" fill="#F5F3FF"/>
<path d="M191.242 18.8451H188.862V22.1211H191.242V29.6811C191.242 33.1811 192.502 33.9091 196.226 33.9091H199.166V30.5771H197.85C196.31 30.5771 195.862 30.2971 195.862 28.8691V22.1211H199.166V18.8451H195.862V14.7291H191.242V18.8451Z" fill="#F5F3FF"/>
</g>
</svg>
