<svg width="166" height="48" viewBox="0 0 166 48" fill="none" xmlns="http://www.w3.org/2000/svg">
<g opacity="0.84">
<circle cx="22" cy="24.25" r="20.5" stroke="#F5F3FF" stroke-width="3"/>
<path d="M30.132 32.3817C25.9926 36.5211 21.3031 39.2233 17.1267 40.2972C12.9126 41.3808 9.51602 40.7571 7.50461 38.7456C5.4932 36.7342 4.86941 33.3376 5.95304 29.1235C7.02696 24.9472 9.72917 20.2576 13.8686 16.1182C18.008 11.9788 22.6975 9.27662 26.8739 8.2027C31.088 7.11907 34.4846 7.74286 36.496 9.75427C38.5074 11.7657 39.1312 15.1623 38.0476 19.3764C36.9736 23.5528 34.2714 28.2423 30.132 32.3817Z" stroke="#F5F3FF" stroke-width="3"/>
<path d="M30.1314 16.1182C34.2708 20.2576 36.973 24.9471 38.047 29.1235C39.1306 33.3376 38.5068 36.7342 36.4954 38.7456C34.484 40.757 31.0874 41.3808 26.8733 40.2972C22.6969 39.2233 18.0074 36.5211 13.868 32.3817C9.72859 28.2423 7.02638 23.5528 5.95245 19.3764C4.86883 15.1623 5.49262 11.7657 7.50402 9.75426C9.51543 7.74285 12.9121 7.11906 17.1262 8.20269C21.3025 9.27661 25.992 11.9788 30.1314 16.1182Z" stroke="#F5F3FF" stroke-width="3"/>
<path d="M62.8497 34.2401C67.5597 34.2401 70.7397 31.7801 70.7397 27.8501C70.7397 19.5401 59.6997 23.0801 59.6997 18.7001C59.6997 17.4701 60.8097 16.6301 62.5797 16.6301C64.5897 16.6301 65.8497 17.7101 65.9997 19.3601H70.2897C70.1697 15.3701 67.1097 12.7601 62.5797 12.7601C58.3197 12.7601 55.3197 15.2201 55.3197 18.7001C55.3197 26.9501 66.2097 23.8001 66.2097 27.9101C66.2097 29.5001 64.8597 30.3401 62.8497 30.3401C60.6297 30.3401 59.2197 28.9901 59.0397 26.8601H54.7197C54.8997 31.3301 58.0797 34.2401 62.8497 34.2401Z" fill="#F5F3FF"/>
<path d="M71.76 40.1201H75.93V32.6501C76.74 33.6701 78.21 34.2401 79.92 34.2401C84.27 34.2401 87.21 31.1501 87.21 26.4401C87.21 21.7301 84.51 18.6401 80.28 18.6401C78.33 18.6401 76.83 19.3601 75.93 20.5301V18.8801H71.76V40.1201ZM79.41 30.6401C77.16 30.6401 75.69 28.9601 75.69 26.4401C75.69 23.8901 77.16 22.2101 79.41 22.2101C81.6 22.2101 83.1 23.8901 83.1 26.4401C83.1 28.9601 81.6 30.6401 79.41 30.6401Z" fill="#F5F3FF"/>
<path d="M88.2189 34.0001H92.3889V25.7201C92.3889 23.7701 93.6789 22.3601 95.5089 22.3601C97.2489 22.3601 98.4489 23.6801 98.4489 25.5101V34.0001H102.619V24.5801C102.619 21.1001 100.399 18.6401 97.0089 18.6401C94.9089 18.6401 93.2589 19.5101 92.3889 20.9801V12.3101H88.2189V34.0001Z" fill="#F5F3FF"/>
<path d="M114.284 28.8701C113.954 30.1601 112.844 30.8201 111.164 30.8201C109.064 30.8201 107.714 29.5001 107.414 27.3701H118.274C118.304 27.0401 118.334 26.5901 118.334 26.0201C118.334 22.5701 116.204 18.6401 110.864 18.6401C105.734 18.6401 103.394 22.5701 103.394 26.4101C103.394 30.2201 106.034 34.2401 111.164 34.2401C114.884 34.2401 117.764 32.1401 118.364 28.8701H114.284ZM110.864 21.7001C112.874 21.7001 114.044 23.0501 114.164 24.7301H107.474C107.834 22.6301 108.974 21.7001 110.864 21.7001Z" fill="#F5F3FF"/>
<path d="M129.271 22.3601V18.8801H127.119C125.289 18.8801 124.149 19.5101 123.339 21.4001V18.8801H119.139V34.0001H123.339V26.6501C123.339 24.0701 124.269 22.3601 126.339 22.3601H129.271Z" fill="#F5F3FF"/>
<path d="M143.671 18.8801H139.471V27.1601C139.471 29.0801 138.181 30.5201 136.351 30.5201C134.641 30.5201 133.441 29.2001 133.441 27.3701V18.8801H129.271V28.3001C129.271 31.7501 131.491 34.2401 134.881 34.2401C136.951 34.2401 138.631 33.3401 139.471 31.9001V34.0001H143.671V18.8801Z" fill="#F5F3FF"/>
<path d="M145.471 34.0001H149.641V12.3101H145.471V34.0001Z" fill="#F5F3FF"/>
<path d="M161.546 28.8701C161.216 30.1601 160.106 30.8201 158.426 30.8201C156.326 30.8201 154.976 29.5001 154.676 27.3701H165.536C165.566 27.0401 165.596 26.5901 165.596 26.0201C165.596 22.5701 163.466 18.6401 158.126 18.6401C152.996 18.6401 150.656 22.5701 150.656 26.4101C150.656 30.2201 153.296 34.2401 158.426 34.2401C162.146 34.2401 165.026 32.1401 165.626 28.8701H161.546ZM158.126 21.7001C160.136 21.7001 161.306 23.0501 161.426 24.7301H154.736C155.096 22.6301 156.236 21.7001 158.126 21.7001Z" fill="#F5F3FF"/>
</g>
</svg>
