<svg width="176" height="48" viewBox="0 0 176 48" fill="none" xmlns="http://www.w3.org/2000/svg">
<g opacity="0.84">
<path d="M15.278 19.4497C21.0389 16.6945 25.5474 12.019 28.1357 6.17457C26.4658 4.42125 24.2951 3.16888 21.9573 2.41746L20.7049 2C20.6214 2.16698 20.5379 2.41747 20.5379 2.58445C18.5342 8.26187 14.4431 12.8539 8.93264 15.4421C5.09203 17.2789 2.25332 20.6186 0.917457 24.6262L0.5 25.8786C0.666983 25.962 0.917461 26.0455 1.08444 26.0455C2.67078 26.63 4.25712 27.3814 5.75996 28.2998C7.84725 24.5427 11.1869 21.37 15.278 19.4497Z" fill="#F5F3FF"/>
<path opacity="0.8" d="M39.491 19.7837C36.4018 24.4592 32.1437 28.2163 26.8838 30.7211C22.6257 32.7249 19.3695 36.482 17.8667 40.9905L17.4492 42.4099C19.0356 43.8292 20.9559 44.9146 23.0431 45.5826L24.2955 46C24.379 45.833 24.4625 45.5826 24.4625 45.4156C26.4663 39.7382 30.5574 35.1461 36.0678 32.5579C39.9084 30.7211 42.8306 27.3814 44.083 23.3738L44.5004 22.1215C42.7471 21.6205 41.0773 20.7856 39.491 19.7837Z" fill="#F5F3FF"/>
<path opacity="0.9" d="M14.1091 38.0681C16.1964 33.0586 20.037 28.9675 24.963 26.6297C29.4715 24.459 33.2287 21.1193 35.8169 17.0282C33.8966 15.1914 32.3102 13.1041 31.1414 10.5994C28.0522 16.2768 23.2097 20.8688 17.2818 23.7075C13.8586 25.2939 11.1034 28.0491 9.43359 31.3888C11.2704 33.1421 12.7733 35.3128 13.9421 37.7341C13.9421 37.7341 14.0256 37.9011 14.1091 38.0681Z" fill="#F5F3FF"/>
<path d="M54.4502 34.0001H68.5202V30.1001H58.9802V13.0001H54.4502V34.0001Z" fill="#F5F3FF"/>
<path d="M83.22 18.8801H79.02V27.1601C79.02 29.0801 77.73 30.5201 75.9 30.5201C74.19 30.5201 72.99 29.2001 72.99 27.3701V18.8801H68.82V28.3001C68.82 31.7501 71.04 34.2401 74.43 34.2401C76.5 34.2401 78.18 33.3401 79.02 31.9001V34.0001H83.22V18.8801Z" fill="#F5F3FF"/>
<path d="M84.7802 34.0001H88.9802V25.4201C88.9802 23.4701 90.0902 22.1801 91.8302 22.1801C93.4502 22.1801 94.4702 23.4701 94.4702 25.4201V34.0001H98.6702V25.4201C98.6702 23.4701 99.7802 22.1801 101.52 22.1801C103.14 22.1801 104.19 23.4701 104.19 25.4201V34.0001H108.36V24.1001C108.36 21.0701 106.23 18.6401 102.93 18.6401C100.5 18.6401 98.6102 19.9301 97.8902 21.4001C97.1702 19.6001 95.6402 18.6401 93.2702 18.6401C91.2302 18.6401 89.7902 19.6301 88.9802 21.0101V18.8801H84.7802V34.0001Z" fill="#F5F3FF"/>
<path d="M109.791 12.3101V16.7201H114.231V12.3101H109.791ZM109.911 34.0001H114.111V18.8801H109.911V34.0001Z" fill="#F5F3FF"/>
<path d="M115.677 34.0001H119.877V25.7201C119.877 23.7701 121.167 22.3601 122.997 22.3601C124.737 22.3601 125.907 23.6801 125.907 25.5101V34.0001H130.107V24.5801C130.107 21.1001 127.887 18.6401 124.467 18.6401C122.397 18.6401 120.717 19.5101 119.877 20.9801V18.8801H115.677V34.0001Z" fill="#F5F3FF"/>
<path d="M138.867 34.2401C143.517 34.2401 146.847 30.9401 146.847 26.4401C146.847 21.9401 143.517 18.6401 138.867 18.6401C134.217 18.6401 130.887 21.9401 130.887 26.4401C130.887 30.9401 134.217 34.2401 138.867 34.2401ZM138.867 30.6401C136.617 30.6401 135.087 28.9301 135.087 26.4401C135.087 23.9201 136.617 22.2101 138.867 22.2101C141.117 22.2101 142.647 23.9201 142.647 26.4401C142.647 28.9301 141.117 30.6401 138.867 30.6401Z" fill="#F5F3FF"/>
<path d="M162.058 18.8801H157.858V27.1601C157.858 29.0801 156.568 30.5201 154.738 30.5201C153.028 30.5201 151.828 29.2001 151.828 27.3701V18.8801H147.658V28.3001C147.658 31.7501 149.878 34.2401 153.268 34.2401C155.338 34.2401 157.018 33.3401 157.858 31.9001V34.0001H162.058V18.8801Z" fill="#F5F3FF"/>
<path d="M169.138 34.2401C172.678 34.2401 175.018 32.3501 175.018 29.4701C175.018 22.6301 166.738 26.1401 166.738 23.0501C166.738 22.0901 167.548 21.5801 168.718 21.5801C169.858 21.5801 171.028 22.2701 171.208 23.5601H174.838C174.688 20.5901 172.228 18.6401 168.598 18.6401C165.508 18.6401 163.198 20.5301 163.198 23.2001C163.198 29.5601 171.328 26.5301 171.328 29.6201C171.328 30.4601 170.428 31.0901 169.138 31.0901C167.578 31.0901 166.528 30.2501 166.378 28.9001H162.778C162.928 32.1701 165.448 34.2401 169.138 34.2401Z" fill="#F5F3FF"/>
</g>
</svg>
