<svg width="166" height="48" viewBox="0 0 166 48" fill="none" xmlns="http://www.w3.org/2000/svg">
<g opacity="0.84">
<path d="M16.2141 33.4284C24.8929 33.4284 31.9284 26.3929 31.9284 17.7141C31.9284 16.7306 31.8381 15.7681 31.6652 14.8345C30.7316 14.6617 29.7692 14.5713 28.7856 14.5713C20.1068 14.5713 13.0713 21.6068 13.0713 30.2856C13.0713 31.2692 13.1617 32.2317 13.3345 33.1652C14.2681 33.3381 15.2306 33.4284 16.2141 33.4284Z" fill="#F5F3FF"/>
<path opacity="0.8" fill-rule="evenodd" clip-rule="evenodd" d="M13.3347 33.1653C6.03118 31.8127 0.5 25.4095 0.5 17.7143C0.5 9.03553 7.53553 2 16.2143 2C23.9095 2 30.3128 7.53118 31.6653 14.8347C30.7318 14.6618 29.7693 14.5714 28.7857 14.5714C20.107 14.5714 13.0714 21.607 13.0714 30.2857C13.0714 31.2693 13.1618 32.2318 13.3347 33.1653Z" fill="#F5F3FF"/>
<path opacity="0.6" fill-rule="evenodd" clip-rule="evenodd" d="M16.2146 33.4284C24.8933 33.4284 31.9289 26.3928 31.9289 17.7141C31.9289 16.7305 31.8385 15.768 31.6656 14.8345C38.9691 16.187 44.5003 22.5903 44.5003 30.2855C44.5003 38.9643 37.4648 45.9998 28.786 45.9998C21.0908 45.9998 14.6875 40.4686 13.335 33.1651C14.2685 33.338 15.231 33.4284 16.2146 33.4284Z" fill="#F5F3FF"/>
<path d="M68.0495 34.2401C73.4195 34.2401 77.2895 31.2101 77.6795 26.7101H73.1795C72.8195 28.8701 70.7495 30.3401 68.0495 30.3401C64.6595 30.3401 62.0495 28.0001 62.0495 23.5001C62.0495 19.0001 64.6595 16.6301 68.0495 16.6301C70.6895 16.6301 72.7595 18.1001 73.0595 20.2901H77.7695C77.1995 15.7601 73.3295 12.7601 68.0495 12.7601C62.4395 12.7601 57.5195 16.4201 57.5195 23.5001C57.5195 30.5801 62.3495 34.2401 68.0495 34.2401Z" fill="#F5F3FF"/>
<path d="M86.0308 18.6401C81.8908 18.6401 79.4308 21.0701 79.2508 24.1001H82.9708C83.0308 22.8401 83.9608 21.7001 85.7908 21.7001C87.5008 21.7001 88.4908 22.5701 88.4908 23.8301C88.4908 24.4601 88.1008 24.9401 87.3508 24.9401H84.8008C81.5008 24.9401 79.2808 26.7401 79.2808 29.7101C79.2808 32.2901 81.2908 34.2401 84.2308 34.2401C86.3008 34.2401 87.9808 33.3101 88.4908 31.9001V34.0001H92.6308V24.2801C92.6308 20.8601 89.8408 18.6401 86.0308 18.6401ZM85.2808 31.2101C84.1108 31.2101 83.2708 30.5201 83.2708 29.5301C83.2708 28.3601 84.1708 27.5801 85.4308 27.5801H88.4908V27.7901C88.4908 29.7101 87.3208 31.2101 85.2808 31.2101Z" fill="#F5F3FF"/>
<path d="M95.4332 40.1201H99.6032V32.6501C100.413 33.6701 101.883 34.2401 103.593 34.2401C107.943 34.2401 110.883 31.1501 110.883 26.4401C110.883 21.7301 108.183 18.6401 103.953 18.6401C102.003 18.6401 100.503 19.3601 99.6032 20.5301V18.8801H95.4332V40.1201ZM103.083 30.6401C100.833 30.6401 99.3632 28.9601 99.3632 26.4401C99.3632 23.8901 100.833 22.2101 103.083 22.2101C105.273 22.2101 106.773 23.8901 106.773 26.4401C106.773 28.9601 105.273 30.6401 103.083 30.6401Z" fill="#F5F3FF"/>
<path d="M118.226 34.2401C121.766 34.2401 124.106 32.3501 124.106 29.4701C124.106 22.6301 115.826 26.1401 115.826 23.0501C115.826 22.0901 116.636 21.5801 117.806 21.5801C118.946 21.5801 120.116 22.2701 120.296 23.5601H123.926C123.776 20.5901 121.316 18.6401 117.686 18.6401C114.596 18.6401 112.286 20.5301 112.286 23.2001C112.286 29.5601 120.416 26.5301 120.416 29.6201C120.416 30.4601 119.516 31.0901 118.226 31.0901C116.666 31.0901 115.616 30.2501 115.466 28.9001H111.866C112.016 32.1701 114.536 34.2401 118.226 34.2401Z" fill="#F5F3FF"/>
<path d="M140.576 18.8801H136.376V27.1601C136.376 29.0801 135.086 30.5201 133.256 30.5201C131.546 30.5201 130.346 29.2001 130.346 27.3701V18.8801H126.176V28.3001C126.176 31.7501 128.396 34.2401 131.786 34.2401C133.856 34.2401 135.536 33.3401 136.376 31.9001V34.0001H140.576V18.8801Z" fill="#F5F3FF"/>
<path d="M143.576 34.0001H147.746V12.3101H143.576V34.0001Z" fill="#F5F3FF"/>
<path d="M160.851 28.8701C160.521 30.1601 159.411 30.8201 157.731 30.8201C155.631 30.8201 154.281 29.5001 153.981 27.3701H164.841C164.871 27.0401 164.901 26.5901 164.901 26.0201C164.901 22.5701 162.771 18.6401 157.431 18.6401C152.301 18.6401 149.961 22.5701 149.961 26.4101C149.961 30.2201 152.601 34.2401 157.731 34.2401C161.451 34.2401 164.331 32.1401 164.931 28.8701H160.851ZM157.431 21.7001C159.441 21.7001 160.611 23.0501 160.731 24.7301H154.041C154.401 22.6301 155.541 21.7001 157.431 21.7001Z" fill="#F5F3FF"/>
</g>
</svg>
