<svg width="160" height="48" viewBox="0 0 160 48" fill="none" xmlns="http://www.w3.org/2000/svg">
<g opacity="0.84">
<path opacity="0.8" d="M22 2C9.84969 2 0 11.8497 0 24C0 36.1503 9.84969 46 22 46C32.901 46 41.9502 38.0716 43.6958 27.6667H43.5379C41.9098 33.9925 36.1674 38.6667 29.3333 38.6667C21.2332 38.6667 14.6667 32.1002 14.6667 24C14.6667 15.8998 21.2332 9.33333 29.3333 9.33333C36.1674 9.33333 41.9098 14.0075 43.5379 20.3333H43.6958C41.9502 9.92838 32.901 2 22 2Z" fill="#F5F3FF"/>
<path d="M0 24C0 11.8497 9.84974 2 22 2C32.901 2 41.9502 9.92838 43.6958 20.3333H28.8713C27.2431 14.0075 21.5007 9.33333 14.6667 9.33333C6.56649 9.33333 0 15.8998 0 24Z" fill="#F5F3FF"/>
<path d="M0 24C0 36.1503 9.84974 46 22 46C32.901 46 41.9502 38.0716 43.6958 27.6667H28.8713C27.2431 33.9925 21.5007 38.6667 14.6667 38.6667C6.56649 38.6667 0 32.1002 0 24Z" fill="#F5F3FF"/>
<path d="M75.4386 20.5071C74.8122 15.9829 71.3321 13.3579 66.8179 13.3579C61.4983 13.3579 57.4912 17.2358 57.4912 23.8181C57.4912 30.3906 61.4486 34.2784 66.8179 34.2784C71.6602 34.2784 74.8719 31.1463 75.4386 27.2585L71.7199 27.2386C71.2526 29.625 69.3037 30.9673 66.8676 30.9673C63.5665 30.9673 61.2 28.4914 61.2 23.8181C61.2 19.2244 63.5466 16.669 66.8776 16.669C69.3534 16.669 71.2923 18.071 71.7199 20.5071H75.4386Z" fill="#F5F3FF"/>
<path d="M83.0526 34.3082C85.4489 34.3082 86.8808 33.1846 87.537 31.9019H87.6563V34H91.1166V23.7784C91.1166 19.7414 87.8254 18.5284 84.912 18.5284C81.7004 18.5284 79.2345 19.9602 78.439 22.7443L81.7998 23.2215C82.1578 22.1775 83.172 21.2826 84.9319 21.2826C86.6024 21.2826 87.5171 22.1377 87.5171 23.6392V23.6988C87.5171 24.7329 86.4333 24.7826 83.7387 25.071C80.7757 25.3892 77.9418 26.2741 77.9418 29.7144C77.9418 32.7173 80.1393 34.3082 83.0526 34.3082ZM83.9873 31.6633C82.4859 31.6633 81.412 30.9772 81.412 29.6548C81.412 28.2727 82.6151 27.696 84.2259 27.4673C85.1705 27.338 87.0597 27.0994 87.5271 26.7215V28.5213C87.5271 30.2215 86.1549 31.6633 83.9873 31.6633Z" fill="#F5F3FF"/>
<path d="M102.362 18.7272H99.3495V15.0681H95.7501V18.7272H93.5825V21.5113H95.7501V30.0028C95.7302 32.8764 97.8183 34.2883 100.523 34.2088C101.547 34.1789 102.253 33.9801 102.641 33.8508L102.034 31.0369C101.835 31.0866 101.428 31.1761 100.98 31.1761C100.075 31.1761 99.3495 30.8579 99.3495 29.4062V21.5113H102.362V18.7272Z" fill="#F5F3FF"/>
<path d="M109.767 34.3082C112.164 34.3082 113.596 33.1846 114.252 31.9019H114.371V34H117.831V23.7784C117.831 19.7414 114.54 18.5284 111.627 18.5284C108.415 18.5284 105.949 19.9602 105.154 22.7443L108.515 23.2215C108.873 22.1775 109.887 21.2826 111.647 21.2826C113.317 21.2826 114.232 22.1377 114.232 23.6392V23.6988C114.232 24.7329 113.148 24.7826 110.454 25.071C107.49 25.3892 104.657 26.2741 104.657 29.7144C104.657 32.7173 106.854 34.3082 109.767 34.3082ZM110.702 31.6633C109.201 31.6633 108.127 30.9772 108.127 29.6548C108.127 28.2727 109.33 27.696 110.941 27.4673C111.885 27.338 113.775 27.0994 114.242 26.7215V28.5213C114.242 30.2215 112.87 31.6633 110.702 31.6633Z" fill="#F5F3FF"/>
<path d="M125.05 13.6363H121.451V34H125.05V13.6363Z" fill="#F5F3FF"/>
<path d="M135.413 34.2983C139.888 34.2983 142.732 31.1463 142.732 26.4233C142.732 21.6903 139.888 18.5284 135.413 18.5284C130.939 18.5284 128.095 21.6903 128.095 26.4233C128.095 31.1463 130.939 34.2983 135.413 34.2983ZM135.433 31.4147C132.957 31.4147 131.744 29.2073 131.744 26.4133C131.744 23.6193 132.957 21.3821 135.433 21.3821C137.869 21.3821 139.082 23.6193 139.082 26.4133C139.082 29.2073 137.869 31.4147 135.433 31.4147Z" fill="#F5F3FF"/>
<path d="M152.429 40.0454C156.555 40.0454 159.598 38.1562 159.598 34.2485V18.7272H156.048V21.2528H155.849C155.302 20.1491 154.159 18.5284 151.464 18.5284C147.934 18.5284 145.16 21.2926 145.16 26.3139C145.16 31.2954 147.934 33.7812 151.454 33.7812C154.069 33.7812 155.292 32.3792 155.849 31.2556H156.028V34.1491C156.028 36.3963 154.537 37.321 152.488 37.321C150.321 37.321 149.366 36.2968 148.929 35.4019L145.687 36.1875C146.343 38.3252 148.541 40.0454 152.429 40.0454ZM152.459 30.9573C150.082 30.9573 148.829 29.1079 148.829 26.294C148.829 23.5198 150.062 21.4815 152.459 21.4815C154.775 21.4815 156.048 23.4005 156.048 26.294C156.048 29.2073 154.755 30.9573 152.459 30.9573Z" fill="#F5F3FF"/>
</g>
</svg>
