<svg width="90" height="25" viewBox="0 0 90 25" fill="none" xmlns="http://www.w3.org/2000/svg">
<g clip-path="url(#clip0_111_14)">
<path d="M17.7471 10.3384H10.2896C10.1972 10.3385 10.1086 10.3752 10.0432 10.4406C9.97786 10.5059 9.94112 10.5945 9.94107 10.687V14.3331C9.94112 14.4256 9.97784 14.5143 10.0432 14.5797C10.1085 14.6451 10.1971 14.682 10.2896 14.6822H13.1988V19.212C13.1988 19.212 12.5455 19.4349 10.7396 19.4349C8.6089 19.4349 5.63244 18.6562 5.63244 12.1112C5.63244 5.56487 8.73179 4.70336 11.6415 4.70336C14.1603 4.70336 15.2454 5.14705 15.9358 5.36049C16.1527 5.42701 16.3534 5.21117 16.3534 5.01843L17.1853 1.49572C17.1853 1.40573 17.1548 1.29707 17.0521 1.22334C16.7718 1.02339 15.0611 0.0661621 10.7396 0.0661621C5.76105 0.0661621 0.654297 2.18444 0.654297 12.3664C0.654297 22.549 6.50115 24.0662 11.4281 24.0662C15.5076 24.0662 17.9823 22.3228 17.9823 22.3228C18.0843 22.2663 18.0954 22.1238 18.0954 22.0584V10.6868C18.0954 10.4946 17.9395 10.3384 17.7471 10.3384ZM56.1802 1.28617C56.1806 1.2404 56.1719 1.19502 56.1547 1.15261C56.1375 1.1102 56.1121 1.07161 56.0799 1.03906C56.0478 1.0065 56.0095 0.980617 55.9673 0.962898C55.9251 0.945178 55.8798 0.935969 55.8341 0.9358H51.6348C51.589 0.93597 51.5436 0.945167 51.5013 0.962866C51.4591 0.980566 51.4207 1.00642 51.3884 1.03895C51.3561 1.07149 51.3305 1.11007 51.3131 1.15248C51.2957 1.1949 51.2869 1.24033 51.287 1.28617L51.2882 9.40098H44.743V1.28617C44.7433 1.24039 44.7346 1.19499 44.7174 1.15258C44.7001 1.11017 44.6747 1.07158 44.6425 1.03903C44.6103 1.00648 44.572 0.980604 44.5298 0.962889C44.4876 0.945174 44.4423 0.935969 44.3965 0.9358H40.1976C40.1052 0.936289 40.0167 0.973469 39.9516 1.03917C39.8866 1.10487 39.8503 1.19372 39.8508 1.28617V23.2588C39.8508 23.4525 40.0065 23.6101 40.1976 23.6101H44.3965C44.5885 23.6101 44.743 23.4523 44.743 23.2588V13.8602H51.2882L51.2767 23.2588C51.2767 23.4525 51.4327 23.6101 51.6247 23.6101H55.8337C56.0261 23.6101 56.1798 23.4523 56.1802 23.2588V1.28617ZM25.6708 4.16968C25.6708 2.65752 24.4586 1.43567 22.9631 1.43567C21.469 1.43567 20.2559 2.65752 20.2559 4.16968C20.2559 5.67999 21.469 6.90499 22.9631 6.90499C24.4586 6.90499 25.6708 5.67999 25.6708 4.16968ZM25.3706 18.6238V8.48127C25.3708 8.3888 25.3344 8.30001 25.2692 8.23436C25.2041 8.16871 25.1156 8.13158 25.0231 8.13109H20.8374C20.6454 8.13109 20.4735 8.32919 20.4735 8.52193V23.0529C20.4735 23.4802 20.7396 23.607 21.0841 23.607H24.8554C25.2691 23.607 25.3706 23.4037 25.3706 23.0463V18.6238ZM72.1382 8.16417H67.9713C67.7802 8.16417 67.6246 8.32161 67.6246 8.51546V19.2893C67.6246 19.2893 66.5659 20.0639 65.0636 20.0639C63.5612 20.0639 63.1626 19.3822 63.1626 17.9111V8.51546C63.1626 8.32161 63.0072 8.16417 62.8161 8.16417H58.5869C58.3962 8.16417 58.2397 8.32161 58.2397 8.51546V18.6223C58.2397 22.992 60.6751 24.061 64.0256 24.061C66.774 24.061 68.9899 22.5427 68.9899 22.5427C68.9899 22.5427 69.0954 23.3427 69.143 23.4377C69.1909 23.5323 69.3153 23.6278 69.4496 23.6278L72.1402 23.616C72.3309 23.616 72.4874 23.4582 72.4874 23.2653L72.486 8.51564C72.486 8.32161 72.3302 8.16417 72.1382 8.16417ZM81.8832 20.0506C80.438 20.0066 79.4576 19.3506 79.4576 19.3506V12.3926C79.4576 12.3926 80.4247 11.7998 81.6112 11.6937C83.1117 11.5594 84.5576 12.0127 84.5576 15.5919C84.5577 19.3665 83.9052 20.1114 81.8832 20.0506ZM83.5268 7.67077C81.1601 7.67077 79.5504 8.72667 79.5504 8.72667V1.28635C79.5504 1.09232 79.3954 0.9358 79.2039 0.9358H74.993C74.9472 0.936018 74.9019 0.945259 74.8597 0.962996C74.8174 0.980733 74.7791 1.00662 74.7469 1.03917C74.7147 1.07173 74.6892 1.11031 74.6719 1.15272C74.6545 1.19514 74.6458 1.24054 74.646 1.28635V23.2588C74.646 23.4525 74.8016 23.6101 74.9936 23.6101H77.9154C78.0467 23.6101 78.1463 23.5423 78.2199 23.4236C78.2925 23.3056 78.3973 22.4106 78.3973 22.4106C78.3973 22.4106 80.1192 24.0423 83.3788 24.0423C87.2055 24.0423 89.4001 22.1013 89.4001 15.3286C89.4001 8.55574 85.8951 7.67077 83.5268 7.67077ZM37.4388 8.12924H34.289L34.2842 3.96788C34.2842 3.81044 34.2031 3.73172 34.0211 3.73172H29.7287C29.5618 3.73172 29.4722 3.80527 29.4722 3.96548V8.2658C29.4722 8.2658 27.3212 8.78488 27.1758 8.82702C27.1033 8.84804 27.0395 8.89206 26.9941 8.95245C26.9488 9.01285 26.9243 9.08634 26.9243 9.16186V11.8641C26.9243 12.0585 27.0795 12.2148 27.2715 12.2148H29.4722V18.7155C29.4722 23.5441 32.8591 24.0185 35.1446 24.0185C36.1889 24.0185 37.4381 23.6833 37.6443 23.6068C37.7691 23.5609 37.8415 23.4318 37.8415 23.2917L37.845 20.3191C37.845 20.1251 37.6813 19.9686 37.4969 19.9686C37.3134 19.9686 36.8438 20.0432 36.3604 20.0432C34.8133 20.0432 34.289 19.3238 34.289 18.3926L34.2889 12.2146H37.4388C37.6308 12.2146 37.7862 12.0581 37.7862 11.8639V8.47905C37.7865 8.43325 37.7776 8.38787 37.7603 8.34548C37.7429 8.3031 37.7174 8.26455 37.6851 8.23206C37.6529 8.19956 37.6145 8.17376 37.5722 8.15611C37.53 8.13847 37.4846 8.12934 37.4388 8.12924Z" fill="#ede9fe" fill-opacity="0.75"/>
</g>
<defs>
<clipPath id="clip0_111_14">
<rect width="88.7574" height="24" fill="white" transform="translate(0.648438 0.0661621)"/>
</clipPath>
</defs>
</svg>
