<svg xmlns="http://www.w3.org/2000/svg" fill="none" viewBox="0 0 186 38" height="38" width="186">
<g clip-path="url(#clip0_7_2)">
<path fill="#89AA28" d="M85.9 0H81.5V19.8C81.5 21.3 81.8 22.7 82.4 24.1C83 25.3 83.8 26.5 84.8 27.5C85.8 28.5 87 29.3 88.3 29.9C89.6 30.5 91.1 30.8 92.6 30.8H94.8V26.4H92.6C91.7 26.4 90.8 26.2 90 25.9C89.2 25.6 88.5 25.1 87.9 24.5C87.3 23.9 86.8 23.2 86.5 22.4C86.2 21.6 86 20.7 86 19.8V13.3H94.8V8.9H86V0H85.9Z"></path>
<path fill="#89AA28" d="M105.5 9.69999C104.2 10.3 103 11.1 102 12C101 13 100.2 14.2 99.6 15.5C99 16.8 98.7 18.2 98.7 19.8V30.8H103.1V19.8C103.1 18.9 103.3 18 103.6 17.2C103.9 16.4 104.4 15.7 105 15.1C105.6 14.5 106.3 14 107.1 13.7C107.9 13.4 108.8 13.2 109.7 13.2H111.9V8.79999H109.8C108.3 8.79999 106.9 9.09999 105.5 9.69999Z"></path>
<path fill="#89AA28" d="M131.7 12C130.7 11 129.5 10.2 128.2 9.69999C126.9 9.09999 125.5 8.79999 123.9 8.79999C122.4 8.79999 121 9.09999 119.6 9.69999C118.3 10.3 117.1 11.1 116.1 12C115.1 13 114.3 14.2 113.7 15.5C113.1 16.8 112.8 18.2 112.8 19.8C112.8 21.3 113.1 22.7 113.7 24.1C114.3 25.4 115.1 26.6 116.1 27.6C117.1 28.6 118.3 29.4 119.6 30C120.9 30.6 122.4 30.9 123.9 30.9H134.9V19.9C134.9 18.4 134.6 16.9 134 15.6C133.4 14.2 132.6 13 131.7 12ZM130.5 26.4H123.9C123 26.4 122.1 26.2 121.3 25.9C120.5 25.6 119.8 25.1 119.2 24.5C118.6 23.9 118.1 23.2 117.8 22.4C117.5 21.6 117.3 20.7 117.3 19.8C117.3 18.9 117.5 18 117.8 17.2C118.1 16.4 118.6 15.7 119.2 15.1C119.8 14.5 120.5 14 121.3 13.7C122.1 13.4 123 13.2 123.9 13.2C124.8 13.2 125.7 13.4 126.5 13.7C127.3 14 128 14.5 128.6 15.1C129.2 15.7 129.7 16.4 130 17.2C130.3 18 130.5 18.9 130.5 19.8V26.4Z"></path>
<path fill="#89AA28" d="M184.2 15.5C183.6 14.2 182.8 13 181.9 12C180.9 11 179.7 10.2 178.4 9.69999C177.1 9.09999 175.7 8.79999 174.1 8.79999C172.6 8.79999 171.2 9.09999 169.8 9.69999C168.5 10.3 167.3 11.1 166.3 12C165.3 13 164.5 14.2 163.9 15.5C163.3 16.8 163 18.2 163 19.8C163 21.3 163.3 22.7 163.9 24.1C164.5 25.4 165.3 26.6 166.3 27.6C167.3 28.6 168.5 29.4 169.8 30C171.1 30.6 172.6 30.9 174.1 30.9H185.1V19.9C185.1 18.2 184.8 16.8 184.2 15.5ZM180.7 26.4H174.1C173.2 26.4 172.3 26.2 171.5 25.9C170.7 25.6 170 25.1 169.4 24.5C168.8 23.9 168.3 23.2 168 22.4C167.7 21.6 167.5 20.7 167.5 19.8C167.5 18.9 167.7 18 168 17.2C168.3 16.4 168.8 15.7 169.4 15.1C170 14.5 170.7 14 171.5 13.7C172.3 13.4 173.2 13.2 174.1 13.2C175 13.2 175.9 13.4 176.7 13.7C177.5 14 178.2 14.5 178.8 15.1C179.4 15.7 179.9 16.4 180.2 17.2C180.5 18 180.7 18.9 180.7 19.8V26.4Z"></path>
<path fill="#89AA28" d="M155.6 11C154.9 10.5 154.1 10 153.3 9.6C152 9 150.6 8.7 149 8.7C147.5 8.7 146.1 9 144.7 9.6C143.4 10.2 142.2 11 141.2 11.9C140.2 12.9 139.4 14.1 138.8 15.4C138.2 16.7 137.9 18.1 137.9 19.7C137.9 21.2 138.2 22.6 138.8 24C139.4 25.3 140.2 26.5 141.2 27.5C142.2 28.5 143.4 29.3 144.7 29.9C146 30.5 147.5 30.8 149 30.8H160V21.3V19.8V0H155.6V11ZM155.6 26.4H149C148.1 26.4 147.2 26.2 146.4 25.9C145.6 25.6 144.9 25.1 144.3 24.5C143.7 23.9 143.2 23.2 142.9 22.4C142.6 21.6 142.4 20.7 142.4 19.8C142.4 18.9 142.6 18 142.9 17.2C143.2 16.4 143.7 15.7 144.3 15.1C144.9 14.5 145.6 14 146.4 13.7C147.2 13.4 148.1 13.2 149 13.2C149.9 13.2 150.8 13.4 151.6 13.7C152.4 14 153.1 14.5 153.7 15.1C154.3 15.7 154.8 16.4 155.1 17.2C155.4 18 155.6 18.9 155.6 19.8V21.3V26.4Z"></path>
<path fill="#89AA28" d="M74.4 12.1C73.4 11.1 72.2 10.3 70.9 9.79999C69.6 9.19999 68.2 8.89999 66.6 8.89999H55.6V9.49999V13.2V30.8H60V13.2H66.6C67.5 13.2 68.4 13.4 69.2 13.7C70 14 70.7 14.5 71.3 15.1C71.9 15.7 72.4 16.4 72.7 17.2C73 18 73.2 18.9 73.2 19.8V30.8H77.6V19.8C77.6 18.3 77.3 16.8 76.7 15.5C76.2 14.2 75.4 13 74.4 12.1Z"></path>
<path fill="#89AA28" d="M49.1 10.5C48.1 9.50001 46.9 8.70001 45.6 8.10001C44.3 7.50001 42.8 7.20001 41.3 7.20001C39.8 7.20001 38.4 7.50001 37 8.10001C35.8 8.80001 34.6 9.50001 33.6 10.5C32.6 11.5 31.8 12.6 31.2 14C30.7 15 30.5 16.2 30.4 17.3V19.5C30.4 21 30.7 22.4 31.3 23.8C31.9 25.1 32.7 26.3 33.6 27.3C34.6 28.3 35.8 29.1 37.1 29.7C38.4 30.3 40.6 30.6 41.4 30.6C44.7 30.9 50.8 30.5 50.8 30.5V26.2C50.8 26.2 44.4 26.5 41.7 26.3C40.8 26.2 39.6 25.9 38.8 25.6C38 25.3 37.3 24.8 36.7 24.2C36.1 23.6 35.6 22.9 35.3 22.1C35.1 21.6 34.9 21 34.9 20.5H35.2H52.4V18.4C52.4 16.9 52.1 15.4 51.5 14.1C50.9 12.7 50.1 11.5 49.1 10.5ZM44.9 16.1C43.7 16.1 42.5 16.1 41.3 16.1C40 16.1 38.8 16.1 37.7 16.1C36.6 16.1 35.7 16.1 35.2 16.1C35.5 15.1 36 14.3 36.8 13.6C38.1 12.3 39.7 11.7 41.5 11.7C43 11.7 44.3 12.1 45.4 13C46.5 13.8 47.3 14.9 47.7 16.2C47 16.1 46.1 16.1 44.9 16.1Z"></path>
<path fill="white" d="M23.6 27.7C23.8 28.7 23.8 29.7 23.6 30.6C23.4 31.5 23 32.4 22.5 33.2C22 34 21.3 34.6 20.5 35.2C19.7 35.7 18.8 36.1 17.8 36.3L10.6 37.7L9.19999 30.5C8.99999 29.5 8.99999 28.6 9.19999 27.6C9.39999 26.7 9.79999 25.8 10.3 25C10.8 24.2 11.5 23.5 12.3 23C13.1 22.5 14 22.1 15 21.9C16 21.7 17 21.7 17.9 21.9C18.8 22.1 19.7 22.5 20.5 23C21.3 23.5 21.9 24.2 22.5 25C23 25.8 23.4 26.7 23.6 27.7Z"></path>
<path fill="white" d="M15.2 25.3C14.4 26 13.6 26.5 12.7 26.8C11.8 27.1 10.9 27.2 9.9 27.2C9 27.1 8.1 26.9 7.2 26.5C6.3 26.1 5.6 25.5 4.9 24.7L0 19.2L5.5 14.4C6.3 13.7 7.1 13.3 8 12.9C8.9 12.6 9.9 12.5 10.8 12.5C11.8 12.6 12.7 12.8 13.5 13.2C14.4 13.6 15.1 14.2 15.8 14.9C16.5 15.7 17 16.5 17.3 17.4C17.6 18.3 17.7 19.2 17.6 20.2C17.5 21.1 17.3 22.1 16.9 22.9C16.5 23.8 15.9 24.6 15.2 25.3Z"></path>
<path fill="white" d="M22.5 13.3C22 14.1 21.3 14.8 20.5 15.3C19.7 15.8 18.9 16.2 17.9 16.4C17 16.6 16 16.6 15 16.4C14 16.2 13.1 15.8 12.3 15.3C11.5 14.8 10.8 14.1 10.3 13.3C9.79999 12.5 9.39999 11.6 9.19999 10.7C8.99999 9.80001 8.99999 8.80001 9.19999 7.80001L10.6 0.600006L17.8 2.10001C18.8 2.30001 19.7 2.70001 20.5 3.20001C21.3 3.70001 21.9 4.40001 22.5 5.20001C23 6.00001 23.4 6.80001 23.6 7.80001C23.8 8.70001 23.8 9.70001 23.6 10.7C23.4 11.6 23 12.5 22.5 13.3Z"></path>
<path fill="#C8D1DB" d="M23.6 27.7C23.8 28.7 23.8 29.7 23.6 30.6C23.4 31.5 23 32.4 22.5 33.2C22 34 21.3 34.6 20.5 35.2C19.7 35.7 18.8 36.1 17.8 36.3L10.6 37.7L9.19999 30.5C8.99999 29.5 8.99999 28.6 9.19999 27.6C9.39999 26.7 9.79999 25.8 10.3 25C10.8 24.2 11.5 23.5 12.3 23C13.1 22.5 14 22.1 15 21.9C16 21.7 17 21.7 17.9 21.9C18.8 22.1 19.7 22.5 20.5 23C21.3 23.5 21.9 24.2 22.5 25C23 25.8 23.4 26.7 23.6 27.7Z"></path>
<path fill="#6D8293" d="M15.2 25.3C14.4 26 13.6 26.5 12.7 26.8C11.8 27.1 10.9 27.2 9.9 27.2C9 27.1 8.1 26.9 7.2 26.5C6.3 26.1 5.6 25.5 4.9 24.7L0 19.2L5.5 14.4C6.3 13.7 7.1 13.3 8 12.9C8.9 12.6 9.9 12.5 10.8 12.5C11.8 12.6 12.7 12.8 13.5 13.2C14.4 13.6 15.1 14.2 15.8 14.9C16.5 15.7 17 16.5 17.3 17.4C17.6 18.3 17.7 19.2 17.6 20.2C17.5 21.1 17.3 22.1 16.9 22.9C16.5 23.8 15.9 24.6 15.2 25.3Z" opacity="0.55"></path>
<path fill="#6D8293" d="M22.5 13.3C22 14.1 21.3 14.8 20.5 15.3C19.7 15.8 18.9 16.2 17.9 16.4C17 16.6 16 16.6 15 16.4C14 16.2 13.1 15.8 12.3 15.3C11.5 14.8 10.8 14.1 10.3 13.3C9.79999 12.5 9.39999 11.6 9.19999 10.7C8.99999 9.80001 8.99999 8.80001 9.19999 7.80001L10.6 0.600006L17.8 2.10001C18.8 2.30001 19.7 2.70001 20.5 3.20001C21.3 3.70001 21.9 4.40001 22.5 5.20001C23 6.00001 23.4 6.80001 23.6 7.80001C23.8 8.70001 23.8 9.70001 23.6 10.7C23.4 11.6 23 12.5 22.5 13.3Z"></path>
</g>
<defs>
<clipPath id="clip0_7_2">
<rect fill="white" height="37.7" width="185.1"></rect>
</clipPath>
</defs>
</svg>
