<svg id="Layer_1" data-name="Layer 1" xmlns="http://www.w3.org/2000/svg" viewBox="0 0 1000 250">
    <path d="M849.5,203h4c3.45,0,5.59-1.32,6.91-4.61L906.3,90.51c1.81-4.28-.16-6.91-4.61-6.91H895c-3.46,0-5.93,1.47-7.08,4.77L866.79,144,843.91,88.2c-1.15-3.13-3.3-4.6-6.75-4.6h-6.58c-4.45,0-6.43,2.79-4.62,6.91L857.57,163,844.9,196c-1.65,4.11.16,6.91,4.6,6.91m-90.21-49.88c-16.63,0-26.17-12.85-26.17-28.32,0-15.31,9.54-28.31,26.17-28.31,16.3,0,27.33,12,27.49,28.31-.16,16.3-11.19,28.32-27.49,28.32M757,167.88c11,0,21.73-3.78,29.46-14.81v7.08c0,3.79,2.31,5.92,6.09,5.92h5c3.78,0,5.92-2.13,5.92-5.92V53c0-3.78-2.14-5.92-5.92-5.92h-5c-3.78,0-6.09,2.14-6.09,5.92V96.6C778.72,85.57,768,81.79,757,81.79c-24.53,0-40.84,19.25-40.84,43s16.31,43.13,40.84,43.13M655.41,153.07c-14.65,0-26.67-12.52-26.67-28.16s12-28.31,26.67-28.31c15,0,26.83,12.68,26.83,28.31s-11.85,28.16-26.83,28.16m0,14.81c24.2,0,43.79-19.25,43.79-43.13,0-23.54-19.59-43-43.79-43-24,0-43.47,19.25-43.47,43a43.14,43.14,0,0,0,43.47,43.13m-99.93-16.13H526.33v-37h21.08c20.42,0,29,9.72,29,19.92,0,10.37-8.72,17.12-20.9,17.12m-5.27-86.59c11,0,20.58,5.76,20.58,16.78,0,9.88-7.41,19.6-27,19.6H526.33V65.16ZM567,107c15-3.78,21.73-14.49,21.73-26.34,0-18.6-16.3-29.79-38.36-29.79H514.81c-3.79,0-5.92,2.13-5.92,5.92V160.15c0,3.79,2.13,5.92,5.92,5.92h40.83c23.05,0,38.52-12.18,38.52-30.78,0-14.16-9-26.34-27.16-28.32m-124.14,46.1c-14.65,0-26.66-12.52-26.66-28.16s12-28.31,26.66-28.31c15,0,26.84,12.68,26.84,28.31s-11.85,28.16-26.84,28.16m0,14.81c24.21,0,43.8-19.25,43.8-43.13,0-23.54-19.59-43-43.8-43-24,0-43.45,19.25-43.45,43a43.13,43.13,0,0,0,43.45,43.13m-77.2-1.81h4.93c3.79,0,5.93-2.13,5.93-5.92V53c0-3.78-2.14-5.92-5.93-5.92h-4.93c-3.79,0-6.09,2.14-6.09,5.92V160.15c0,3.79,2.3,5.92,6.09,5.92m-46.92,0h4.94c3.78,0,5.93-2.13,5.93-5.92V53c0-3.78-2.15-5.92-5.93-5.92h-4.94c-3.79,0-6.1,2.14-6.1,5.92V160.15c0,3.79,2.31,5.92,6.1,5.92m-96.81-52c5.11-14,17-17.78,26.52-17.78,9.05,0,20.57,3.13,24.85,17.78Zm28.49,53.83c10.37,0,21.4-2.46,31-10.2,3.79-3.13,3.79-6.59,1.15-9.38L281.37,147c-2.63-2.64-5.27-2.8-8.39-.82a38.69,38.69,0,0,1-22.4,6.91c-17.94,0-30.62-11.2-30.12-26.51h63.87c4,0,6.26-2.13,5.76-6.09-2.3-26.34-21.23-38.68-42-38.68-25.69,0-44.46,19.25-44.46,43.29,0,23.55,17.78,42.8,46.76,42.8M99,166.07h5.6c3.79,0,5.93-2.13,5.93-5.92v-42h52.68v42c0,3.79,2.3,5.92,6.09,5.92h5.43c3.79,0,5.93-2.13,5.93-5.92V56.76c0-3.79-2.14-5.92-5.93-5.92h-5.43c-3.79,0-6.09,2.13-6.09,5.92V104H110.48V56.76c0-3.79-2.14-5.92-5.93-5.92H99C95.17,50.84,93,53,93,56.76V160.15c0,3.79,2.14,5.92,5.92,5.92"></path>
</svg>