<?xml version="1.0" encoding="UTF-8" standalone="no"?>
<!-- Created with Inkscape (http://www.inkscape.org/) -->
<svg
   xmlns:svg="http://www.w3.org/2000/svg"
   xmlns="http://www.w3.org/2000/svg"
   version="1.0"
   width="591"
   height="88"
   viewBox="0 -0.204 591 88"
   id="svg2"
   xml:space="preserve">
	<defs
   id="defs4">
	</defs>
	<g
   id="g6">
		<g
   id="g8">
			<polyline
   fill="#1F165E"
   points="421.457,87.188 430.462,43.049 430.682,43.049 438.807,87.188 470.434,87.188 488.223,0      467.139,0 457.256,49.417 457.035,49.417 448.69,0 422.336,0 411.574,49.417 411.359,49.417 403.668,0 374.897,0 389.834,87.188      "
   id="polyline10"
   style="fill:#1f165e" />
			<polyline
   fill="#1F165E"
   points="493.717,87.188 550.6,87.188 550.6,67.201 522.928,67.201 522.928,53.367 547.303,53.367      547.303,33.381 522.928,33.381 522.928,19.986 549.5,19.986 549.5,0 493.717,0 "
   id="polyline12"
   style="fill:#1f165e" />
			<polyline
   fill="#1F165E"
   points="313.625,87.188 370.508,87.188 370.508,67.201 342.835,67.201 342.835,53.367 367.211,53.367      367.211,33.381 342.835,33.381 342.835,19.986 369.408,19.986 369.408,0 313.625,0 "
   id="polyline14"
   style="fill:#1f165e" />
			<polyline
   fill="#1F165E"
   points="168.891,87.188 221.379,87.188 221.379,66.767 198.541,66.767 198.541,0 168.891,0 "
   id="polyline16"
   style="fill:#1f165e" />
			<rect
   width="29.65"
   height="87.188004"
   x="560.48199"
   y="0"
   style="fill:#1f165e"
   id="rect18" /> 
			<path
   d="M 48.538,87.188 L 99.268,87.188 L 103.003,74.233 L 129.577,74.233 L 132.653,87.188 L 164.496,87.188 L 138.801,0 L 104.541,0 L 78.403,77.528 L 58.86,28.771 L 82.797,0 L 55.564,0 L 29.43,34.26 L 29.21,0 L 0,0 L 0,87.188 L 29.21,87.188 L 29.21,64.354 L 36.676,55.125 M 117.062,24.601 L 124.309,54.247 L 108.713,54.247 L 117.062,24.601 z "
   style="fill:#1f165e;fill-rule:evenodd"
   id="path20" />
			<path
   d="M 227.971,87.188 L 263.549,87.188 C 288.365,87.188 305.934,74.672 305.934,43.923 C 305.934,12.516 291.661,0 271.455,0 L 227.971,0 M 263.769,20.426 C 271.235,20.426 275.19,26.354 275.19,43.923 C 275.19,60.618 270.576,66.767 261.352,66.767 C 258.939,66.767 257.617,66.546 257.617,66.546 L 257.617,21.085 C 257.616,21.085 260.473,20.426 263.769,20.426 z "
   style="fill:#1f165e;fill-rule:evenodd"
   id="path22" />
		</g>
	</g>
</svg>