<?xml version="1.0" encoding="UTF-8"?><svg id="Ebene_1" xmlns="http://www.w3.org/2000/svg" width="500" height="500" viewBox="0 0 500 500"><defs><style>.cls-1,.cls-2{fill:#ebeae8;}.cls-3{fill:#fff;}.cls-2{fill-rule:evenodd;}</style></defs><circle class="cls-3" cx="250" cy="250" r="243.11"/><g><path class="cls-1" d="M129.71,408.34c0-.68,.24-1.28,.73-1.78,.49-.5,1.09-.75,1.81-.75,.5,0,.96,.14,1.37,.43,.41,.29,.73,.68,.94,1.19l12.51,24.37v-23.45c0-.68,.24-1.28,.73-1.78,.49-.5,1.09-.75,1.81-.75s1.28,.25,1.78,.75c.5,.5,.75,1.1,.75,1.78v33.97c0,.54-.09,.98-.27,1.32-.18,.34-.39,.6-.62,.78-.23,.18-.47,.3-.7,.35-.23,.05-.42,.08-.57,.08-.47,0-.85-.05-1.16-.16-.31-.11-.57-.24-.78-.4-.22-.16-.38-.32-.49-.49-.11-.16-.2-.3-.27-.4l-12.56-24.53v23.45c0,.72-.24,1.32-.73,1.81-.49,.49-1.07,.73-1.75,.73-.72,0-1.32-.24-1.81-.73-.49-.49-.73-1.09-.73-1.81v-33.97h0Z"/><path class="cls-1" d="M180.28,441.45c.04,.11,.06,.22,.08,.32,.02,.11,.03,.22,.03,.32,0,.65-.23,1.23-.7,1.75-.47,.52-1.08,.78-1.83,.78-.54,0-1.05-.18-1.54-.54-.49-.36-.8-.83-.94-1.4l-2.64-10.35h-7.23l-2.64,10.35c-.14,.58-.45,1.04-.92,1.4-.47,.36-.99,.54-1.56,.54-.76,0-1.37-.26-1.83-.78-.47-.52-.7-1.11-.7-1.75v-.3c0-.09,.04-.21,.11-.35l8.68-33.97c.18-.54,.5-.99,.97-1.35,.47-.36,.99-.54,1.56-.54,.54,0,1.03,.19,1.48,.57,.45,.38,.75,.82,.89,1.32l8.73,33.97h0Zm-8.84-14.18l-2.37-9-2.26,9h4.64Z"/><path class="cls-1" d="M197.54,410.71v31.49c0,.72-.24,1.32-.73,1.81-.49,.49-1.09,.73-1.81,.73s-1.28-.24-1.78-.73c-.5-.49-.75-1.09-.75-1.81v-31.49h-6.15c-.68,0-1.28-.25-1.78-.75-.5-.5-.75-1.1-.75-1.78,0-.72,.25-1.32,.75-1.81,.5-.49,1.1-.73,1.78-.73h17.47c.68,0,1.28,.24,1.78,.73,.5,.49,.75,1.09,.75,1.81s-.25,1.28-.75,1.78c-.5,.5-1.1,.75-1.78,.75h-6.25Z"/><path class="cls-1" d="M215.82,433.36c0,.86,.17,1.67,.51,2.43,.34,.75,.79,1.42,1.35,1.99,.56,.58,1.21,1.02,1.97,1.35,.75,.32,1.55,.49,2.37,.49s1.62-.16,2.37-.49c.75-.32,1.42-.76,2-1.32,.57-.56,1.02-1.21,1.35-1.97,.32-.75,.49-1.55,.49-2.37v-25.29c0-.68,.24-1.28,.73-1.78,.49-.5,1.09-.75,1.81-.75s1.32,.25,1.81,.75c.49,.5,.73,1.1,.73,1.78v25.29c0,1.55-.3,2.99-.89,4.34-.59,1.35-1.4,2.53-2.43,3.56-1.02,1.02-2.22,1.83-3.59,2.43-1.37,.59-2.82,.89-4.37,.89s-2.95-.29-4.31-.86c-1.37-.58-2.56-1.37-3.59-2.37-1.02-1.01-1.84-2.17-2.45-3.5-.61-1.33-.92-2.75-.92-4.26v-25.5c0-.68,.25-1.28,.75-1.78,.5-.5,1.11-.75,1.83-.75s1.27,.25,1.75,.75c.49,.5,.73,1.1,.73,1.78v25.18h0Z"/><path class="cls-1" d="M251.13,424.25c.75,0,1.51-.13,2.26-.38,.75-.25,1.42-.61,2-1.08,.58-.47,1.03-1.03,1.37-1.7,.34-.67,.51-1.41,.51-2.24v-2.8c0-.93-.21-1.74-.62-2.43-.41-.68-.93-1.25-1.56-1.7-.63-.45-1.35-.77-2.16-.97-.81-.2-1.63-.3-2.45-.3-.43,0-.93,.02-1.48,.05-.56,.04-1.11,.07-1.67,.11-.56,.04-1.05,.1-1.48,.19-.43,.09-.75,.17-.97,.24v12.99h6.25Zm-6.25,5.07v12.83c0,.72-.24,1.32-.73,1.81-.49,.49-1.09,.73-1.81,.73s-1.28-.24-1.78-.73c-.5-.49-.75-1.09-.75-1.81v-30.9c0-1.37,.4-2.43,1.19-3.18,.79-.75,1.76-1.31,2.91-1.67,1.15-.36,2.37-.58,3.67-.67,1.29-.09,2.48-.13,3.56-.13,1.44,0,2.84,.25,4.21,.75,1.37,.5,2.56,1.22,3.59,2.16s1.84,2.04,2.45,3.32c.61,1.28,.92,2.69,.92,4.23v2.86c0,1.69-.34,3.19-1.02,4.5-.68,1.31-1.6,2.44-2.75,3.37,1.15,.9,2.08,2.02,2.78,3.37,.7,1.35,1.05,2.85,1.05,4.5v7.49c0,.72-.25,1.32-.75,1.81-.5,.49-1.1,.73-1.78,.73-.72,0-1.32-.24-1.81-.73-.49-.49-.73-1.09-.73-1.81v-7.49c0-.83-.18-1.57-.54-2.24-.36-.67-.83-1.23-1.4-1.7-.58-.47-1.23-.82-1.97-1.05-.74-.23-1.48-.35-2.24-.35h-6.25Z"/><path class="cls-1" d="M279.44,410.71v31.49c0,.72-.24,1.32-.73,1.81-.49,.49-1.09,.73-1.81,.73s-1.28-.24-1.78-.73c-.5-.49-.75-1.09-.75-1.81v-31.49h-6.15c-.68,0-1.28-.25-1.78-.75-.5-.5-.75-1.1-.75-1.78,0-.72,.25-1.32,.75-1.81,.5-.49,1.1-.73,1.78-.73h17.47c.68,0,1.28,.24,1.78,.73,.5,.49,.75,1.09,.75,1.81s-.25,1.28-.75,1.78-1.1,.75-1.78,.75h-6.25Z"/><path class="cls-1" d="M303.92,424.25c.75,0,1.51-.13,2.26-.38,.75-.25,1.42-.61,2-1.08,.58-.47,1.03-1.03,1.37-1.7,.34-.67,.51-1.41,.51-2.24v-2.8c0-.93-.21-1.74-.62-2.43-.41-.68-.93-1.25-1.56-1.7-.63-.45-1.35-.77-2.16-.97-.81-.2-1.63-.3-2.45-.3-.43,0-.93,.02-1.48,.05-.56,.04-1.11,.07-1.67,.11-.56,.04-1.05,.1-1.48,.19-.43,.09-.75,.17-.97,.24v12.99h6.25Zm-6.25,5.07v12.83c0,.72-.24,1.32-.73,1.81-.49,.49-1.09,.73-1.81,.73s-1.28-.24-1.78-.73c-.5-.49-.75-1.09-.75-1.81v-30.9c0-1.37,.4-2.43,1.19-3.18,.79-.75,1.76-1.31,2.91-1.67,1.15-.36,2.37-.58,3.67-.67,1.29-.09,2.48-.13,3.56-.13,1.44,0,2.84,.25,4.21,.75,1.37,.5,2.56,1.22,3.59,2.16,1.02,.93,1.84,2.04,2.45,3.32s.92,2.69,.92,4.23v2.86c0,1.69-.34,3.19-1.02,4.5-.68,1.31-1.6,2.44-2.75,3.37,1.15,.9,2.08,2.02,2.78,3.37,.7,1.35,1.05,2.85,1.05,4.5v7.49c0,.72-.25,1.32-.75,1.81-.5,.49-1.1,.73-1.78,.73-.72,0-1.32-.24-1.81-.73-.49-.49-.73-1.09-.73-1.81v-7.49c0-.83-.18-1.57-.54-2.24s-.83-1.23-1.4-1.7c-.58-.47-1.23-.82-1.97-1.05-.74-.23-1.48-.35-2.24-.35h-6.25Z"/><path class="cls-1" d="M340.53,405.7c.72,0,1.32,.24,1.81,.73,.49,.49,.73,1.09,.73,1.81s-.24,1.32-.73,1.81c-.49,.49-1.09,.73-1.81,.73h-6.23c-1.71,0-3.11,0-4.21,.03-1.1,.02-1.95,.03-2.56,.03s-1.05,0-1.32,.03c-.27,.02-.43,.03-.49,.03s-.08,.02-.08,.05v10.14h10.57c.68,0,1.28,.25,1.78,.75s.75,1.1,.75,1.78c0,.72-.25,1.32-.75,1.81-.5,.49-1.1,.73-1.78,.73h-10.57v13.32c0,.07,.05,.13,.13,.19,.09,.05,.3,.08,.62,.08h14.13c.72,0,1.32,.24,1.81,.73,.49,.49,.73,1.09,.73,1.81s-.24,1.32-.73,1.81c-.49,.49-1.09,.73-1.81,.73h-14.13c-1.33,0-2.38-.13-3.15-.4-.77-.27-1.36-.64-1.75-1.11-.4-.47-.65-1.03-.75-1.7-.11-.67-.16-1.37-.16-2.13v-28.58c0-.75,.06-1.45,.19-2.08,.13-.63,.39-1.18,.78-1.64,.4-.47,.98-.83,1.75-1.08,.77-.25,1.81-.38,3.1-.38h14.13Z"/><path class="cls-1" d="M352.82,433.36c0,.86,.17,1.67,.51,2.43,.34,.75,.79,1.42,1.35,1.99,.56,.58,1.21,1.02,1.97,1.35,.75,.32,1.55,.49,2.37,.49s1.62-.16,2.37-.49c.75-.32,1.42-.76,2-1.32,.57-.56,1.02-1.21,1.35-1.97,.32-.75,.49-1.55,.49-2.37v-25.29c0-.68,.24-1.28,.73-1.78,.49-.5,1.09-.75,1.81-.75s1.32,.25,1.81,.75c.49,.5,.73,1.1,.73,1.78v25.29c0,1.55-.3,2.99-.89,4.34-.59,1.35-1.4,2.53-2.43,3.56-1.02,1.02-2.22,1.83-3.59,2.43-1.37,.59-2.82,.89-4.37,.89s-2.95-.29-4.31-.86c-1.37-.58-2.56-1.37-3.59-2.37-1.02-1.01-1.84-2.17-2.45-3.5-.61-1.33-.92-2.75-.92-4.26v-25.5c0-.68,.25-1.28,.75-1.78,.5-.5,1.11-.75,1.83-.75s1.27,.25,1.75,.75c.49,.5,.73,1.1,.73,1.78v25.18h0Z"/><path class="cls-2" d="M129.71,57.16h240.58V390.51c0,1.04-.18,2.13-1.46,1.8-67.4-17.3-170.24-17.28-237.65,0-1.03,.26-1.46-.34-1.46-1.8V57.16h0Zm74.03,307.88c18.08-11.72,25.36-31.82,28.7-53.39-62.53-4.56-75.89-33.21-80.99-60.13,32.81,1.44,65.5,17.76,81.71,48.49-16.85-8.74-35.25-11.64-56.22-27.37,16.88,16.58,39.16,25.23,61.35,34.02,1.97,21.46,.23,40.82-9.08,55.89,10.55-.64,21.22-.85,31.89-.57-5.89-16.02-5.35-32.51-1.36-52.45,18.56-28.99,51.56-58.54,92.25-78.41-15.76,62.06-39.06,71.88-87.08,81.93,1.01,19.98,6.76,42.06,19.98,50.44,23.72,2.42,52.15,8.18,73.49,19.31h2.51V66.58H139.13V382.81c3.89,0,27.08-12.56,64.62-17.77h0Z"/><path class="cls-2" d="M258.86,299.32c-2.08-22.63,8.81-51.03,16.06-69.42-10.93,12.6-15.36,28.76-19.74,41.29,3.45-31.12,10.54-59.1,23.23-81.58,5.74-10.17,13.6,0,15.92,39.35-11.71,21.73-30.23,45.58-35.47,70.36h0Z"/><path class="cls-2" d="M289.69,265.47c2.32-15.9,15.34-49.86,48.45-71.25,5.48-3.54,13.84,9.22,11.13,24.64-20.36,12.26-43.42,26.1-59.58,46.61h0Z"/><path class="cls-2" d="M300.43,221.45c3.18-15.46,4.15-30.27-8.42-41.06,29.29-4.36,45.84-34.67,55.58-46.12,1.91,20.15-1.65,42.46-14.07,50.74-13.84,9.22-26.5,23.21-33.09,36.45h0Z"/><path class="cls-2" d="M292.01,171.16c4.61-32.29,32.29-41.51,14.07-92.25,13.6,9.22,38.73,18.02,36.67,41.51-2.06,23.5-31.96,44.85-50.74,50.74h0Z"/><path class="cls-2" d="M241.27,226.51c-4.94-11.95-10.95-31.02-4.61-55.35,6.33-24.33,27.67-36.9,50.74-92.25,28.78,32.17-2.63,71.72-8.99,92.25,3.41-19.69,6.12-39.49,4.61-59.96-3.33,52.11-16.62,72.87-41.75,115.31h0Z"/><path class="cls-2" d="M232.05,272.63c-25.48-25.87-71.94-43.61-76.63-90.11,19.28,27.61,48.96,25.54,74.18,54.04-8.33-3.35-16.42-8.16-24.99-10.04,13.6,9.22,22.86,22.15,27.44,46.12h0Z"/><path class="cls-2" d="M193.48,252.23c-20.16-15.26-32.8-21.75-39.84-44.17-.34,46.42,2.01,38.31,39.84,44.17h0Z"/><path class="cls-2" d="M224.11,212.98c-24.35-9.53-40.82-21.67-42.81-63.39-4.6,16.96-1.5,33.26,4.63,49.25-13.84-18.45-26.65-56.99-4.38-78.41,14.19,30.85,34.72,47.79,42.57,92.56h0Z"/><path class="cls-2" d="M222.33,171.3c-1.22-23.31-7.96-52.35-3.65-69.93,4.31-17.58,18.3-18.05,27.45-27.07-4.85,9.22-8.42,13.13-8.21,23.82,.21,10.69,12.21,17.56,9.49,29.66-2.72,12.09-19.97,29.54-25.08,43.52h0Z"/><path class="cls-2" d="M255.34,120.42c-2.64-8.71-7.19-18.36-7.91-26.12-.72-7.76,2.08-11.14,7.67-15.39,5.6-4.25,20.01-9.05,21.12,2.95,1.12,12.01-14.74,23.18-20.89,38.56h0Z"/><path class="cls-2" d="M208.99,143.49c-4.66-10.26-22.02-29.37-18.22-41.51,3.8-12.14,16.89-21.62,32.29-27.67-12.69,16.07-18.68,41.51-14.07,69.19h0Z"/></g></svg>