<svg width="189" height="72" viewBox="0 0 189 72" fill="none" xmlns="http://www.w3.org/2000/svg">
<path d="M34.2493 44.2174C33.3546 43.924 32.695 43.5578 32.2698 43.1028L33.8977 40.61C34.7772 41.4458 35.9508 41.9445 37.1091 41.9445C37.8714 41.9445 38.2973 41.7101 38.2973 41.2994C38.2973 40.9915 38.0775 40.8451 37.3152 40.6835C37.1689 40.6398 36.9337 40.5954 36.5966 40.5517C36.2741 40.4927 36.0979 40.4636 36.0688 40.4491C33.8403 40.053 32.8719 39.0854 32.8719 37.3847C32.8719 36.2701 33.3561 35.3171 34.2501 34.6575C35.0269 34.0707 36.0826 33.7627 37.2562 33.7627C38.9424 33.7627 40.4676 34.3051 41.4789 35.2435L39.8517 37.5165C39.1477 36.8569 38.1656 36.4608 37.1681 36.4608C36.5085 36.4608 36.1416 36.6516 36.1416 37.0477C36.1416 37.3265 36.3323 37.4583 36.9184 37.59C37.0356 37.6337 37.3581 37.6782 37.9304 37.7954C39.2358 38.0443 39.9099 38.2941 40.4378 38.6603C41.2146 39.1881 41.5961 39.9504 41.5961 40.9624C41.5961 42.1352 41.0828 43.1181 40.1298 43.7777C39.3086 44.35 38.1939 44.6426 36.9628 44.6426C36.0535 44.6426 35.1449 44.4963 34.2501 44.2174H34.2493Z" fill="white"/>
<path d="M46.7724 37.3994L48.6639 33.939H52.1389L48.3559 40.42V44.4673H45.0273V40.42L41.2444 33.939H44.8664L46.7724 37.3994Z" fill="white"/>
<path d="M52.9018 44.2174C52.0078 43.924 51.3474 43.5578 50.9222 43.1028L52.5502 40.61C53.4296 41.4458 54.6033 41.9445 55.7616 41.9445C56.5239 41.9445 56.9498 41.7101 56.9498 41.2994C56.9498 40.9915 56.7299 40.8451 55.9677 40.6835C55.8214 40.6398 55.5862 40.5954 55.2491 40.5517C54.9266 40.4927 54.7504 40.4636 54.7213 40.4491C52.4927 40.053 51.5244 39.0854 51.5244 37.3847C51.5244 36.2701 52.0086 35.3171 52.9026 34.6575C53.6801 34.0707 54.7358 33.7627 55.9087 33.7627C57.5948 33.7627 59.1201 34.3051 60.1313 35.2435L58.5042 37.5165C57.8001 36.8569 56.818 36.4608 55.8206 36.4608C55.161 36.4608 54.794 36.6516 54.794 37.0477C54.794 37.3265 54.9848 37.4583 55.5708 37.59C55.6881 37.6337 56.0106 37.6782 56.5828 37.7954C57.8882 38.0443 58.5624 38.2941 59.0902 38.6603C59.867 39.1881 60.2486 39.9504 60.2486 40.9624C60.2486 42.1352 59.7353 43.1181 58.7823 43.7777C57.961 44.35 56.8464 44.6426 55.6153 44.6426C54.7059 44.6426 53.7974 44.4963 52.9026 44.2174H52.9018Z" fill="white"/>
<path d="M69.7504 36.7247H66.7887V44.4668H63.4601V36.7247H60.4984V33.9385H69.7504V36.7247Z" fill="white"/>
<path d="M70.5717 33.939H78.4899V36.7252H73.8413V37.8108H77.6541V40.5235H73.8413V41.6818H78.4899V44.468H70.5717V33.9397V33.939Z" fill="white"/>
<path d="M86.4671 44.4668H84.3558L82.7133 38.4844V44.4668H79.4873V33.9385H84.1941L85.4551 39.0559L86.7161 33.9385H91.3639V44.4668H88.1088V38.4844L86.4663 44.4668H86.4671Z" fill="white"/>
<path d="M92.5383 33.939H100.457V36.7252H95.808V37.8108H99.6208V40.5235H95.808V41.6818H100.457V44.468H92.5383V33.9397V33.939Z" fill="white"/>
<path d="M32.8464 26.78V0.266602H51.7526C57.7718 0.266602 61.095 2.88814 61.095 7.61488C61.095 9.94071 59.6548 12.0459 57.6239 13.0801C60.2454 14.2614 61.7968 16.5145 61.7968 19.2096C61.7968 24.0466 58.4 26.7792 52.3808 26.7792H32.8472L32.8464 26.78ZM40.8964 10.3843H50.8663C52.3801 10.3843 53.1929 9.8304 53.1929 8.68587C53.1929 7.54134 52.3801 6.98746 50.8663 6.98746H40.8964V10.3843ZM40.8964 16.4409V19.9856H51.4577C52.8979 19.9856 53.71 19.3574 53.71 18.2129C53.71 17.0684 52.8972 16.4409 51.4577 16.4409H40.8964Z" fill="white"/>
<path d="M63.4598 26.78V0.266602H71.8423V19.7634H87.5731V26.7792H63.4606L63.4598 26.78Z" fill="white"/>
<path d="M92.5342 24.1209C89.9862 22.0533 88.7306 19.1728 88.7306 15.4435V0.266602H97.1131V14.4828C97.1131 18.0275 99.2183 19.9481 103.095 19.9481C106.973 19.9481 109.078 18.0283 109.078 14.4828V0.266602H117.46V15.4435C117.46 19.1728 116.205 22.0533 113.657 24.1209C111.109 26.1886 107.601 27.2228 103.095 27.2228C98.5901 27.2228 95.083 26.1886 92.535 24.1209H92.5342Z" fill="white"/>
<path d="M140.738 0.266602H149.12V26.7792H140.738V16.9197H127.74V26.7792H119.357V0.266602H127.74V9.90394H140.738V0.266602Z" fill="white"/>
<path d="M172.946 26.78H166.225L159.135 9.1662V26.78H150.974V0.266602H163.344L169.658 16.4769L175.972 0.266602H188.195V26.7792H180.035V9.16543L172.945 26.7792L172.946 26.78Z" fill="white"/>
<path d="M18.5101 58.803H67.9808L55.6131 71.2281H0L18.5101 15.314V58.803Z" fill="white"/>
</svg>
