<svg width="93" height="26" viewBox="0 0 93 26" fill="none" xmlns="http://www.w3.org/2000/svg">
<g clip-path="url(#clip0_111_12)">
<path d="M87.6211 12.4673L92.5598 25.5417C91.1043 25.3338 89.6497 25.0734 88.1685 24.8389L85.3864 17.6148L82.5279 24.2425C81.1248 24.008 79.7467 23.9299 78.3435 23.7477L83.3596 12.3118L78.81 0.590576H83.021L85.5676 7.13942L88.2973 0.590576H92.559L87.6211 12.4673ZM75.485 0.590576H71.6641V23.2545C72.9117 23.3327 74.2108 23.3842 75.485 23.5398V0.590576ZM68.3631 22.9942C64.8808 22.7605 61.3975 22.5534 57.837 22.4744V0.590677H61.7353V18.7841C63.9709 18.8357 66.2056 19.017 68.3631 19.1209V22.9942ZM53.6777 9.45401V13.3522H48.3498V22.2148H44.5041V0.590576H55.4201V4.48876H48.3506V9.45411H53.6785L53.6777 9.45401ZM37.9535 4.48876V22.4228C36.6536 22.4228 35.3288 22.4228 34.0545 22.4744V4.48876H30.0258V0.590576H42.0071V4.48876H37.9535ZM25.8158 13.5593C24.1007 13.5593 22.073 13.5593 20.6176 13.6384V19.4336C22.9047 19.2773 25.1919 19.0959 27.5048 19.0178V22.7605L16.7194 23.6188V0.590576H27.5041V4.48876H20.6175V9.73928C22.1253 9.73928 24.4383 9.66116 25.8156 9.66116V13.5601L25.8158 13.5593ZM4.21632 11.3761V24.9952C2.81407 25.1516 1.56565 25.3337 0.240723 25.5417V0.590576H3.95766L9.02534 14.7562V0.590576H12.9243V23.9299C11.547 24.1644 10.1431 24.2425 8.66184 24.4497L4.21632 11.3761Z" fill="#ede9fe" fill-opacity="0.75"/>
</g>
<defs>
<clipPath id="clip0_111_12">
<rect width="92.3191" height="25" fill="white" transform="translate(0.240723 0.566162)"/>
</clipPath>
</defs>
</svg>
