<svg width="146" height="20" viewBox="0 0 146 20" fill="none" xmlns="http://www.w3.org/2000/svg">
<g clip-path="url(#clip0_111_46)">
<path d="M63.0372 12.8461H72.6314L67.5584 4.68434L58.2475 19.4411H54.0102L65.3351 1.71495C65.8274 0.998908 66.6481 0.566162 67.5584 0.566162C68.4386 0.566162 69.2593 0.983879 69.7369 1.68518L81.1065 19.4411H76.8692L74.87 16.1436H65.1564L63.0372 12.8461ZM107.054 16.1433V0.745102H103.458V17.6506C103.458 18.1131 103.637 18.5609 103.98 18.904C104.323 19.2471 104.786 19.4411 105.293 19.4411H121.691L123.81 16.1436L107.054 16.1433ZM47.5641 13.3829C51.0559 13.3829 53.8909 10.563 53.8909 7.07154C53.8909 3.57979 51.0559 0.744819 47.5641 0.744819H31.833V19.4414H35.4277V4.04288H47.3257C48.9968 4.04288 50.3396 5.40095 50.3396 7.0721C50.3396 8.74297 48.9968 10.1008 47.3257 10.1008L37.1884 10.086L47.9223 19.4414H53.1448L45.9231 13.3835H47.5644L47.5641 13.3829ZM9.70566 19.4411C4.54446 19.4414 0.355957 15.2634 0.355957 10.1008C0.355957 4.93786 4.54446 0.745386 9.70566 0.745386H20.5725C25.7348 0.745386 29.9202 4.93786 29.9202 10.1008C29.9202 15.2634 25.7348 19.4411 20.5722 19.4411H9.70566ZM20.3309 16.1436C23.6746 16.1436 26.3828 13.4428 26.3828 10.1005C26.3828 6.75846 23.6746 4.04288 20.3309 4.04288H9.94613C6.60355 4.04288 3.89393 6.75846 3.89393 10.1008C3.89393 13.4428 6.60355 16.1436 9.94585 16.1436H20.3309ZM88.6118 19.4411C83.4495 19.4411 79.2564 15.2634 79.2564 10.1008C79.2564 4.93786 83.4495 0.745386 88.6118 0.745386H101.519L99.4146 4.04288H88.8506C85.5083 4.04288 82.7927 6.75846 82.7927 10.1008C82.7927 13.4428 85.5083 16.1436 88.8506 16.1436H101.817L99.6979 19.4411H88.6118ZM132.584 16.1436C129.824 16.1436 127.481 14.2935 126.765 11.7418H142.133L144.252 8.44436H126.765C127.481 5.90771 129.824 4.04288 132.584 4.04288H143.133L145.266 0.744819H132.345C127.182 0.744819 122.99 4.93758 122.99 10.1002C122.99 15.2631 127.182 19.4408 132.345 19.4408H143.431L145.55 16.1436H132.584Z" fill="#ede9fe" fill-opacity="0.75"/>
</g>
<defs>
<clipPath id="clip0_111_46">
<rect width="145.26" height="19" fill="white" transform="translate(0.323242 0.566162)"/>
</clipPath>
</defs>
</svg>
