<svg width="78" height="33" viewBox="0 0 78 33" fill="none" xmlns="http://www.w3.org/2000/svg">
<g clip-path="url(#clip0_111_30)">
<mask id="mask0_111_30" style="mask-type:luminance" maskUnits="userSpaceOnUse" x="0" y="0" width="78" height="33">
<path d="M0.510742 0.182373H77.3697V32.0634H0.510742V0.182373Z" fill="white"/>
</mask>
<g mask="url(#mask0_111_30)">
<path fill-rule="evenodd" clip-rule="evenodd" d="M8.53316 14.5233C6.87677 13.9106 5.969 13.4341 5.969 12.6853C5.969 12.0498 6.49096 11.6868 7.42135 11.6868C9.12319 11.6868 10.8703 12.3449 12.073 12.9348L12.7537 8.737C11.8007 8.28312 9.8492 7.53431 7.14906 7.53431C5.243 7.53431 3.6545 8.03346 2.52006 8.96386C1.34001 9.93952 0.727343 11.3464 0.727343 13.0483C0.727343 16.1342 2.61077 17.4504 5.67408 18.5622C7.64821 19.2656 8.30631 19.7649 8.30631 20.5364C8.30631 21.2852 7.67084 21.7162 6.51359 21.7162C5.08405 21.7162 2.72428 21.0129 1.18122 20.1053L0.500488 24.3485C1.81652 25.0973 4.26717 25.8687 6.80869 25.8687C8.82809 25.8687 10.5073 25.3922 11.6419 24.4846C12.9125 23.4861 13.5706 22.0113 13.5706 20.1053C13.5706 16.9511 11.6419 15.6351 8.53316 14.5233ZM24.6525 12.0498L25.3332 7.87468H21.7394V2.80627L16.9076 3.60137L16.2098 7.87468L14.5104 8.15038L13.8742 12.0498H16.2028V20.2414C16.2028 22.3743 16.7474 23.8493 17.8592 24.7569C18.7896 25.5057 20.1283 25.8687 22.0117 25.8687C23.4639 25.8687 24.3489 25.6192 24.9615 25.4603V21.0355C24.6212 21.1264 23.8497 21.2852 23.3278 21.2852C22.2159 21.2852 21.7394 20.7179 21.7394 19.4245V12.0498H24.6525ZM35.4448 7.63081C33.8565 7.63081 32.5858 8.46471 32.0866 9.96232L31.7462 7.87468H26.8223V25.5284H32.4496V14.0694C33.1531 13.207 34.1514 12.8953 35.5129 12.8953C35.808 12.8953 36.1256 12.8953 36.5114 12.9633V7.76695C36.1256 7.67625 35.7852 7.63081 35.4448 7.63081ZM40.7093 6.1274C42.3431 6.1274 43.6591 4.78874 43.6591 3.15497C43.6591 1.4984 42.3431 0.182373 40.7093 0.182373C39.0527 0.182373 37.7367 1.4984 37.7367 3.15497C37.7367 4.78874 39.0527 6.1274 40.7093 6.1274ZM37.8729 7.87468H43.523V25.5284H37.8729V7.87468ZM59.5344 9.46301C58.5359 8.16961 57.1518 7.53431 55.3819 7.53431C53.7481 7.53431 52.3186 8.21505 50.9797 9.64459L50.6848 7.87468H45.7381V32.0634L51.3655 31.1332V25.4603C52.2277 25.7326 53.1126 25.8687 53.9069 25.8687C55.3138 25.8687 57.356 25.5057 58.9443 23.7812C60.4646 22.1247 61.2362 19.5607 61.2362 16.1796C61.2362 13.1844 60.6688 10.9154 59.5344 9.46301ZM54.8599 20.3548C54.406 21.2171 53.7027 21.671 52.8858 21.671C52.3186 21.671 51.8192 21.5575 51.3655 21.3306V12.9348C52.3186 11.9365 53.1807 11.8229 53.4985 11.8229C54.928 11.8229 55.6314 13.366 55.6314 16.3839C55.6314 18.1083 55.3819 19.4472 54.8599 20.3548ZM77.3696 16.5427C77.3696 13.729 76.757 11.5052 75.5543 9.93952C74.329 8.3512 72.491 7.53431 70.1538 7.53431C65.3659 7.53431 62.3935 11.0741 62.3935 16.7469C62.3935 19.9237 63.1875 22.3063 64.7532 23.8265C66.1601 25.188 68.1797 25.8687 70.7891 25.8687C73.1943 25.8687 75.4181 25.3015 76.825 24.3711L76.2124 20.5137C74.8281 21.2625 73.2171 21.671 71.4018 21.671C70.3126 21.671 69.5638 21.4439 69.0192 20.9674C68.4292 20.4683 68.0888 19.6514 67.9755 18.4941H77.3016C77.3242 18.2219 77.3696 16.9511 77.3696 16.5427ZM67.93 15.045C68.0888 12.5263 68.7696 11.3464 70.063 11.3464C71.3337 11.3464 71.9918 12.5491 72.0825 15.045H67.93Z" fill="#ede9fe" fill-opacity="0.75"/>
</g>
</g>
<defs>
<clipPath id="clip0_111_30">
<rect width="76.9231" height="32" fill="white" transform="translate(0.500488 0.0661621)"/>
</clipPath>
</defs>
</svg>
