<svg width="180" height="25" viewBox="0 0 180 25" fill="none" xmlns="http://www.w3.org/2000/svg">
<g clip-path="url(#clip0_111_22)">
<path d="M110.193 21.2005H110.128C108.681 23.0274 107.234 24.0662 104.906 24.0662C101.976 24.0662 99.9051 22.4327 99.9051 19.4381C99.9051 14.0865 105.887 13.6781 109.849 13.6781H111.325C111.454 13.2411 111.454 12.7683 111.454 12.2954C111.454 10.662 109.691 10.1891 108.208 10.1891C106.353 10.1891 104.555 10.662 102.885 11.45L103.487 8.08288C105.285 7.45243 107.105 7.10855 108.996 7.10855C112.235 7.10855 115.294 8.30497 115.294 12.1091C115.294 14.2799 113.689 20.6417 113.309 23.6936H109.756L110.193 21.2005ZM106.066 20.9856C109.211 20.9856 110.186 18.8148 110.852 16.1999H109.369C107.32 16.1999 103.924 16.5438 103.924 19.2877C103.924 20.4196 104.999 20.9856 106.066 20.9856ZM0.838792 7.45959H3.89073L4.62148 4.12825L9.14924 2.64527L8.11043 7.45959H11.886L11.2269 10.5474H7.45133L5.91103 17.6327C5.78208 18.1485 5.7176 18.6787 5.7176 19.2088C5.7176 20.1832 6.3767 20.785 7.32237 20.785C8.08178 20.785 8.83402 20.6274 9.37133 20.4053L8.64775 23.6793C7.92417 23.8369 7.10745 24.059 6.38387 24.059C3.5182 24.059 1.50506 22.9271 1.50506 19.8106C1.50506 18.5497 1.75581 17.3247 2.04237 16.028L3.23879 10.5545H0.179688L0.838792 7.45959ZM13.6269 7.45959H17.8466L14.3863 23.6721H10.1666L13.6269 7.45959ZM15.1672 0.47452H19.3869L18.5057 4.50795H14.286L15.1672 0.47452ZM30.5773 11.1778C29.7534 10.6405 28.6573 10.3611 27.4895 10.3611C24.1224 10.3611 22.231 13.5062 22.231 16.5653C22.231 18.6715 22.926 20.785 25.8203 20.785C26.8591 20.785 28.1486 20.4984 29.2519 19.9682L28.7791 23.3068C27.4895 23.9372 26.0997 24.059 24.717 24.059C20.5331 24.059 17.8251 21.2578 17.8251 17.0739C17.8251 11.4071 21.5719 7.09422 27.3964 7.09422C28.9725 7.09422 30.4842 7.38079 31.6161 7.72467L30.5773 11.1778ZM35.2054 0.0661621H39.4251L36.6239 13.3485H36.6883L42.5773 7.45959H48.0507L40.2704 14.8602L45.1492 23.6721H40.3994L36.2155 15.0751H36.151L34.3242 23.6721H30.2048L35.2054 0.0661621ZM63.2531 7.45959H66.3051L67.0286 4.12825L71.5636 2.64527L70.5248 7.45959H74.3003L73.6412 10.5474H69.8657L68.3254 17.6327C68.2036 18.1485 68.1391 18.6787 68.1391 19.2088C68.1391 20.1832 68.7982 20.785 69.7439 20.785C70.5033 20.785 71.2555 20.6274 71.7928 20.4053L71.0692 23.6793C70.3457 23.8369 69.5289 24.059 68.8054 24.059C65.9397 24.059 63.9266 22.9271 63.9266 19.8106C63.9266 18.5497 64.1773 17.3247 64.4639 16.028L65.6603 10.5545H62.6083L63.2531 7.45959Z" fill="#ede9fe" fill-opacity="0.75"/>
<path d="M61.842 13.2554C61.842 9.12885 59.1984 7.08705 55.2008 7.08705C49.8778 7.08705 45.9805 11.9372 45.9805 16.9736C45.9805 21.788 49.1255 24.059 53.7894 24.059C55.5232 24.059 57.3142 23.6506 58.9476 23.1491L59.4849 19.8106C57.9088 20.5342 56.2396 20.9712 54.513 20.9712C51.8121 20.9712 50.236 20.0112 50.0354 17.4608C50.0282 17.3103 50.0139 17.1671 50.0139 17.0166V16.8733C50.0354 15.77 50.2718 14.6739 50.7017 13.6566C51.5112 11.5933 52.6575 10.1677 55.1435 10.1677C56.9058 10.1677 57.8229 11.142 57.8229 12.8757C57.8229 13.2554 57.787 13.5993 57.7297 13.979H51.9554C51.5829 15.2542 51.5184 16.1068 51.5041 16.8733H61.4336C61.6843 15.6769 61.842 14.4805 61.842 13.2554ZM76.1273 9.2578C76.2491 8.62735 76.3781 7.96825 76.4712 7.45959H80.4044L80.0246 9.63034H80.0891C81.2211 7.96108 83.0766 7.07989 85.0611 7.07989C86.9811 7.07989 88.9655 8.21183 89.1876 10.1605H89.2521C90.3267 8.05422 92.6838 7.07989 94.9476 7.07989C97.3691 7.07989 99.4539 9.06437 99.4539 11.5217C99.4539 12.9688 99.0742 14.6094 98.7303 15.9277L97.0324 23.6721H92.8127L94.5106 15.77C94.7255 14.7957 95.0408 13.2841 95.0408 12.3097C95.0408 11.1133 94.1309 10.3611 93.0563 10.3611C90.1261 10.3611 89.4026 13.7641 88.8724 15.9635L87.2032 23.6793H82.9835L84.6814 15.7772C84.9035 14.8029 85.2187 13.2912 85.2187 12.3169C85.2187 11.1205 84.3088 10.3682 83.2342 10.3682C80.3685 10.3682 79.5805 13.7999 79.0503 15.9706L77.3811 23.6865H73.1614L76.1273 9.2578ZM127.817 10.7623C127.366 10.5187 126.198 10.1677 125.001 10.1677C123.74 10.1677 122.172 10.5187 122.172 11.8011C122.172 13.85 127.645 14.6023 127.645 18.5712C127.645 22.7909 123.963 24.0447 120.337 24.0447C118.64 24.0447 116.942 23.7939 115.394 23.0703L116.304 19.7032C117.5 20.3623 118.697 20.9641 120.33 20.9641C121.749 20.9641 123.225 20.4912 123.225 19.173C123.225 16.5581 117.751 16.3074 117.751 12.2453C117.751 8.43392 121.434 7.07989 124.772 7.07989C126.312 7.07989 127.889 7.36646 128.72 7.58138L127.817 10.7623ZM130.511 7.45959H133.563L134.286 4.12825L138.821 2.64526L137.782 7.45959H141.558L140.892 10.5474H137.116L135.576 17.6327C135.447 18.1485 135.389 18.6787 135.382 19.2088C135.382 20.1832 136.041 20.785 136.987 20.785C137.746 20.785 138.499 20.6274 139.029 20.4053L138.305 23.6793C137.582 23.8369 136.765 24.059 136.041 24.059C133.176 24.059 131.163 22.9271 131.163 19.8106C131.163 18.5497 131.413 17.3247 131.7 16.028L132.896 10.5545H129.852L130.511 7.45959ZM159.11 9.6375C159.239 8.94258 159.361 8.219 159.49 7.46676H163.516L162.95 10.5187H163.014C163.774 8.75631 165.852 7.08705 167.8 7.08705C168.337 7.08705 168.903 7.11571 169.405 7.24467L168.524 11.3712C168.051 11.2136 167.456 11.1205 166.919 11.1205C163.924 11.1205 162.477 13.7999 161.947 16.4077L160.435 23.6793H156.216L159.11 9.6375ZM156.187 13.2554C156.187 9.12885 153.543 7.08705 149.546 7.08705C144.223 7.08705 140.318 11.9372 140.318 16.9736C140.318 21.788 143.463 24.059 148.127 24.059C149.854 24.059 151.652 23.6506 153.293 23.1491L153.83 19.8106C152.254 20.5342 150.592 20.9712 148.858 20.9712C146.157 20.9712 144.581 20.0112 144.38 17.4608C144.373 17.3103 144.359 17.1671 144.359 17.0166C144.359 16.988 144.366 16.9593 144.366 16.9235V16.8733H144.373C144.388 15.7629 144.631 14.6668 145.061 13.6566C145.871 11.5933 147.017 10.1677 149.503 10.1677C151.265 10.1677 152.182 11.142 152.182 12.8757C152.182 13.2554 152.146 13.5993 152.089 13.979H146.315C145.942 15.2542 145.878 16.1068 145.863 16.8733H155.8C156.029 15.6769 156.187 14.4805 156.187 13.2554ZM175.373 6.49243C177.379 6.49243 179.019 8.12586 179.019 10.139C179.019 12.145 177.379 13.7856 175.373 13.7856C173.367 13.7856 171.726 12.1521 171.726 10.139C171.726 8.13303 173.367 6.49243 175.373 6.49243ZM175.38 13.2411C177.056 13.2411 178.317 11.8871 178.317 10.139C178.317 8.39094 177.049 7.03691 175.38 7.03691C173.682 7.03691 172.421 8.39094 172.421 10.139C172.421 11.8871 173.689 13.2411 175.38 13.2411ZM173.983 7.99691H175.616C176.598 7.99691 177.078 8.39094 177.078 9.20049C177.078 9.88825 176.648 10.3826 175.974 10.3826L177.192 12.2739H176.454L175.258 10.3826H174.671V12.2739H173.976V7.99691H173.983ZM174.678 9.8381H175.502C176.039 9.8381 176.383 9.73064 176.383 9.17183C176.383 8.68467 175.946 8.54138 175.502 8.54138H174.678V9.8381Z" fill="#ede9fe" fill-opacity="0.75"/>
</g>
<defs>
<clipPath id="clip0_111_22">
<rect width="179.104" height="24" fill="white" transform="translate(0.0473633 0.0661621)"/>
</clipPath>
</defs>
</svg>
