<svg width="78" height="29" viewBox="0 0 78 29" fill="none" xmlns="http://www.w3.org/2000/svg">
<g clip-path="url(#clip0_111_17)">
<path d="M11.7269 0.0759277C11.9121 0.162385 12.0295 0.341475 12.1777 0.483512C12.4185 0.693479 12.5977 0.971377 12.8324 1.18752C13.1226 1.46542 13.3079 1.81742 13.5487 2.13237C13.9686 2.76845 14.3392 3.44776 14.5306 4.18882C14.7282 4.69521 14.7591 5.24483 14.7468 5.78828C14.7591 6.28232 14.6232 6.77018 14.4009 7.21482C14.018 7.88795 13.3264 8.33877 12.6038 8.57961C11.7022 8.79575 10.7079 8.83281 9.83716 8.44992C9.52215 8.27701 9.16403 8.15967 8.91084 7.88795C8.32416 7.40626 7.98451 6.62197 8.09567 5.86238C8.26858 4.50995 9.07758 3.34895 9.94215 2.34852C10.0224 2.49673 9.95444 2.66964 10.0101 2.82403C10.0842 3.15133 10.2015 3.49716 10.4485 3.73183C10.7511 3.45393 11.0723 3.17604 11.3317 2.85491C11.5664 2.50908 11.7577 2.1262 11.838 1.71861C11.8566 1.19987 11.906 0.656426 11.7083 0.162385L11.7269 0.0759277ZM0.413331 6.24527C1.8584 6.25762 3.30965 6.23291 4.75478 6.25762C4.75478 7.69651 4.76707 9.13541 4.74854 10.5743C5.77374 10.5928 6.79881 10.5805 7.83012 10.5805C7.84247 10.6916 7.84865 10.8028 7.84865 10.914C7.8363 12.0997 7.85482 13.2792 7.8363 14.4649C6.80499 14.4772 5.77985 14.4649 4.74854 14.471C4.76707 16.6016 4.74237 18.726 4.76089 20.8565C4.79795 21.0418 4.82265 21.2271 4.81647 21.4185C4.79788 21.5915 4.90287 21.7335 4.93998 21.894C5.02026 22.2645 5.22406 22.598 5.45866 22.8883C5.80455 23.2342 6.24913 23.475 6.72464 23.5799C7.15693 23.6479 7.58922 23.6849 8.02774 23.654C8.05238 23.7281 8.06479 23.8022 8.06479 23.8825C8.05862 24.9941 8.05862 26.1057 8.06479 27.2111C8.06479 27.3655 8.03391 27.5199 8.00921 27.6681C7.38549 27.6681 6.76182 27.7113 6.13803 27.6681C5.7675 27.5878 5.37233 27.6248 5.01409 27.4643C4.01983 27.2296 3.0688 26.7356 2.35862 25.9883C1.31496 24.9818 0.752984 23.5614 0.52449 22.1534C0.462735 21.999 0.499788 21.8199 0.475024 21.6532C0.388629 21.3135 0.42562 20.9553 0.413269 20.6095C0.407155 15.8235 0.407155 11.0313 0.413331 6.24527ZM21.5089 10.247C21.7682 10.1791 22.0461 10.2285 22.3055 10.1729C22.8489 10.105 23.3862 10.1914 23.9235 10.2099C24.3002 10.2038 24.6645 10.3149 25.035 10.389C26.4122 10.7225 27.7152 11.4574 28.6601 12.5319C28.8268 12.8098 29.08 13.0136 29.2405 13.2977C29.6419 13.9338 29.9075 14.644 30.136 15.3603C30.2781 15.8852 30.3521 16.4287 30.4201 16.966C30.451 18.1578 30.4324 19.3559 30.4386 20.5478C30.4324 22.9253 30.4448 25.3029 30.4324 27.6805C28.9874 27.6619 27.5485 27.6743 26.1096 27.6681C26.0972 27.6619 26.0664 27.6372 26.054 27.6249C26.0478 24.2964 26.054 20.9677 26.054 17.6453C26.0602 17.2377 25.9861 16.8424 25.8996 16.4534C25.7452 16.0582 25.5476 15.6814 25.2759 15.3603C25.1153 15.1689 24.893 15.0454 24.7139 14.8786C24.436 14.6934 24.1087 14.6069 23.7938 14.5205C23.627 14.5081 23.4603 14.5205 23.3059 14.4649C22.6451 14.4216 21.972 14.4772 21.3544 14.7304C20.9036 14.9466 20.4836 15.243 20.1873 15.6567C19.6994 16.2372 19.5388 17.0277 19.5512 17.7688C19.5512 21.0665 19.5574 24.3704 19.5512 27.6681C18.0937 27.6805 16.6363 27.6619 15.1789 27.6805C15.1542 24.5001 15.1789 21.3135 15.1666 18.1331C15.1727 17.7255 15.1604 17.318 15.1913 16.9103C15.2716 16.7065 15.2159 16.4843 15.2777 16.2866C15.3888 15.5332 15.6729 14.8168 15.9879 14.1313C16.2966 13.5323 16.6672 12.958 17.1489 12.4825C17.5256 12.0996 17.9146 11.6982 18.3902 11.4326C19.3104 10.7904 20.3973 10.4014 21.5089 10.247ZM73.2597 10.2099C73.7969 10.1976 74.3281 10.0926 74.8653 10.1791C75.1555 10.2161 75.452 10.2099 75.7422 10.2223C75.7978 10.7596 75.7545 11.303 75.7669 11.8403V14.0017C75.7669 14.1376 75.7854 14.2796 75.7298 14.4093C75.5877 14.3044 75.3964 14.3414 75.2358 14.2981C74.5811 14.2426 73.9081 14.2735 73.2905 14.5205C72.5556 14.7737 71.9133 15.311 71.5551 16.0088C71.4501 16.1385 71.4501 16.3238 71.3328 16.4473C71.1413 17.1389 71.129 17.8615 71.1413 18.5717C71.1351 21.61 71.1599 24.6422 71.129 27.6805C69.6901 27.662 68.245 27.6805 66.7999 27.6682C66.7876 27.6558 66.769 27.6311 66.7567 27.6188V17.7071C66.7382 17.2933 66.8308 16.8919 66.8247 16.4843C66.9235 16.2867 66.8988 16.0582 66.9605 15.8544C67.2693 14.292 68.0907 12.8161 69.3381 11.8095C69.5789 11.5377 69.9248 11.4081 70.2089 11.1919C71.1291 10.6299 72.1975 10.3582 73.2597 10.2099ZM9.25049 10.5743C10.7079 10.599 12.1653 10.5681 13.6228 10.5867C13.6228 16.2372 13.6166 21.8816 13.6228 27.5261C13.6228 27.5817 13.6228 27.6928 13.5363 27.6743H9.2629C9.22579 26.7418 9.25667 25.8031 9.24431 24.8706C9.25049 20.1093 9.24432 15.3418 9.25049 10.5743ZM54.9802 22.0361C55.3507 21.894 55.7089 21.7087 56.0855 21.5791C56.629 21.3692 57.1601 21.116 57.7035 20.906C58.8275 20.3873 59.9884 19.955 61.1247 19.4671C61.3964 19.3189 61.7052 19.251 61.9707 19.0904C62.2733 18.9731 62.576 18.868 62.8724 18.7322C63.1318 18.5778 63.4282 18.516 63.6938 18.3802C64.0458 18.2381 64.3854 18.0776 64.7436 17.9479C65.108 17.7441 65.5155 17.6453 65.8799 17.4476C65.9787 17.3797 66.1392 17.3982 66.201 17.2809C66.096 17.1328 66.1516 16.9475 66.096 16.7869C66.0157 16.4967 65.9354 16.2125 65.8675 15.9285C65.5896 15.0701 65.1882 14.2488 64.6448 13.5324C63.984 12.5752 63.0762 11.8033 62.0696 11.2351C61.4088 10.8337 60.6678 10.6052 59.9267 10.4076C59.4697 10.352 59.0312 10.1915 58.5681 10.1977C58.1481 10.1421 57.7159 10.1174 57.3021 10.1915C56.5672 10.2038 55.8632 10.3829 55.1654 10.5867C53.9488 11.0128 52.794 11.6613 51.8615 12.5567C51.5836 12.8161 51.3551 13.1187 51.0895 13.3842C50.6758 13.9153 50.299 14.4773 50.015 15.0825C49.6136 15.9903 49.2307 16.9413 49.1875 17.9479C49.0517 18.4296 49.0948 18.936 49.0887 19.43C49.0763 19.745 49.1257 20.0538 49.1875 20.3564C49.1689 20.6774 49.2925 20.9739 49.3357 21.2827C49.4407 21.9373 49.7309 22.5424 49.9965 23.1476C50.7252 24.6421 51.8738 25.939 53.3127 26.785C54.2576 27.3655 55.3074 27.7793 56.4066 27.9337C57.3021 28.0758 58.2223 28.1004 59.1239 27.9831C59.4327 28.0078 59.7291 27.8719 60.0379 27.8534C61.3532 27.5446 62.6439 26.9888 63.6382 26.0563C63.9347 25.8216 64.2126 25.5437 64.4472 25.2473C64.8424 24.8458 65.1265 24.358 65.4106 23.8764C65.6823 23.3637 65.9047 22.8203 66.0653 22.2584C65.9788 22.2213 65.88 22.2337 65.7936 22.2337C64.3485 22.2399 62.9096 22.2275 61.4645 22.2337C61.3287 22.2337 61.3287 22.4189 61.2421 22.493C60.9951 22.8512 60.6802 23.1538 60.3467 23.4379C59.865 23.7838 59.2969 23.969 58.7349 24.1357C58.5867 24.1543 58.4446 24.1481 58.3088 24.2037C57.9629 24.2284 57.6109 24.2161 57.2589 24.2099C56.8699 24.1358 56.4808 24.0493 56.1041 23.9258C55.5237 23.6294 54.9555 23.2897 54.5171 22.808C54.4058 22.6722 54.2268 22.5672 54.1897 22.3881C54.2886 22.3448 54.3812 22.2769 54.4923 22.2584C54.6714 22.2275 54.8072 22.0855 54.9802 22.0361ZM53.2016 18.9112C53.1152 18.6951 53.1954 18.4419 53.183 18.2134C53.2819 17.8984 53.3128 17.565 53.4301 17.25C53.7265 16.5521 54.0908 15.8667 54.6219 15.317C54.8689 15.1132 55.0789 14.8662 55.363 14.7118C55.573 14.6007 55.7767 14.4772 55.9929 14.3784C56.3943 14.2611 56.7834 14.0758 57.2034 14.0758C57.5862 13.9832 57.9815 14.0326 58.3705 14.0387C59.3894 14.1808 60.4146 14.6192 61.0753 15.4282C61.1433 15.5888 60.9148 15.6012 60.8221 15.6629C60.4207 15.8852 59.9699 15.9963 59.5685 16.2249C59.3894 16.2558 59.235 16.3669 59.0621 16.4225C57.7838 16.9783 56.4808 17.4661 55.2148 18.0467C54.5355 18.3122 53.8624 18.5963 53.2016 18.9112ZM48.6008 3.02782C47.2484 3.01547 45.8959 3.02782 44.5435 3.02165C44.4447 3.034 44.3274 2.99077 44.2471 3.06488C44.2594 5.96737 44.2471 8.87603 44.2533 11.7785C44.2471 11.8835 44.2718 11.9885 44.2286 12.0873C44.1051 12.0688 44.0433 11.9514 43.9507 11.8835C43.327 11.3462 42.6292 10.8893 41.851 10.6237C41.3261 10.4199 40.7765 10.3149 40.2208 10.2161C39.5908 10.2038 38.9548 10.1852 38.3186 10.2223C38.2507 10.2408 38.1889 10.2593 38.1211 10.2655C36.7069 10.4631 35.3853 11.1239 34.2984 12.0317C33.6932 12.5999 33.088 13.1927 32.6619 13.9091C32.1617 14.6193 31.8406 15.4344 31.5318 16.2372C31.3898 16.7436 31.2477 17.2439 31.1859 17.7626C31.0686 18.5592 31.118 19.3744 31.1303 20.1772C31.1612 20.3872 31.2291 20.5848 31.2353 20.7948C31.3465 21.4741 31.5441 22.141 31.8158 22.7771C32.0442 23.3885 32.4148 23.9443 32.7544 24.5001C32.9953 24.8089 33.2299 25.13 33.5202 25.4017C33.9525 25.8278 34.3785 26.291 34.922 26.5874C35.5642 27.0753 36.3238 27.3656 37.0649 27.6496C37.3366 27.699 37.5898 27.8534 37.8677 27.8596C38.1024 27.8781 38.3185 27.9892 38.5532 27.9768C38.6768 27.9645 38.7879 28.0509 38.9175 28.0386C39.5166 28.0571 40.1218 28.0571 40.7208 28.0386C40.8196 28.0386 40.9184 27.9954 41.0234 27.9892C41.4371 27.9954 41.82 27.8348 42.2214 27.7792C42.7463 27.5878 43.3083 27.4643 43.7961 27.1803C44.5187 26.8468 45.1733 26.3774 45.7599 25.8463C46.501 25.2041 47.1 24.4013 47.5447 23.5243C47.7361 23.1352 47.9522 22.7585 48.0758 22.3386C48.3105 21.7581 48.4154 21.1405 48.4958 20.5292C48.6316 19.9919 48.5884 19.4299 48.6007 18.8741C48.6008 13.5941 48.6008 8.31406 48.6008 3.02782ZM44.2101 19.7511C44.173 20.4058 43.926 21.0294 43.6357 21.6161C43.1479 22.5363 42.3265 23.2403 41.394 23.6849C41.2519 23.759 41.0667 23.7529 40.9679 23.8887C40.795 23.8887 40.6221 23.8949 40.4554 23.9567C39.9242 23.969 39.3746 24.0185 38.8559 23.8702C38.6336 23.7653 38.3866 23.7221 38.1642 23.6047C37.8863 23.4503 37.5714 23.3453 37.3429 23.1107C36.9106 22.8081 36.5772 22.3943 36.2745 21.9682C36.0337 21.5544 35.7928 21.1283 35.6817 20.659C35.5582 20.412 35.5705 20.1341 35.5026 19.8747C35.4841 19.214 35.447 18.5347 35.6014 17.8923C35.6694 17.6886 35.7126 17.4724 35.7867 17.2686C35.9658 16.9413 36.0769 16.577 36.3116 16.2805C36.4351 16.0212 36.6512 15.8297 36.8242 15.6074C37.2874 15.0763 37.9235 14.7367 38.5657 14.4711C38.8065 14.4156 39.0412 14.2921 39.2944 14.2921C39.807 14.1623 40.338 14.2674 40.8445 14.36C41.5114 14.6009 42.1722 14.9343 42.691 15.4284C42.8824 15.6075 43.0244 15.8298 43.2159 16.0089C44.0063 17.0709 44.3706 18.4357 44.2101 19.7511ZM73.2226 25.5067H74.8406C74.8468 25.6302 74.8468 25.7537 74.8406 25.8772C74.6554 25.9019 74.4701 25.871 74.291 25.8957C74.2664 26.4515 74.291 27.0012 74.2787 27.557C74.112 27.5446 73.9452 27.5446 73.7847 27.5508C73.7661 27.1123 73.7723 26.6676 73.7784 26.2292C73.7784 26.1119 73.8031 25.976 73.6982 25.8957C73.5376 25.8711 73.377 25.902 73.2165 25.8772C73.2102 25.7537 73.2102 25.6302 73.2226 25.5067ZM75.137 25.5129C75.3655 25.5066 75.594 25.4943 75.8226 25.5252C75.8102 25.7042 75.9584 25.8278 76.0016 25.9946C76.0634 26.2045 76.156 26.4021 76.2178 26.6121C76.2672 26.7047 76.3536 26.785 76.3227 26.9024C76.4463 26.4206 76.6377 25.9637 76.8291 25.5129C77.0453 25.5066 77.2676 25.5005 77.4899 25.5129C77.5022 26.1736 77.4899 26.8468 77.4899 27.5076C77.3417 27.5199 77.1934 27.5199 77.039 27.5076C77.0453 27.0444 77.039 26.5812 77.0514 26.1242C76.9959 26.1736 76.9402 26.2169 76.897 26.2786C76.8167 26.6986 76.6006 27.0814 76.4956 27.5014C76.3721 27.52 76.2548 27.52 76.1313 27.5076C76.0942 27.2729 75.9275 27.0815 75.9275 26.8407C75.7608 26.6368 75.7545 26.3466 75.6249 26.1181C75.5385 26.2849 75.6064 26.4824 75.5878 26.6616C75.5632 26.9518 75.6187 27.2482 75.5632 27.5385C75.4149 27.5385 75.2481 27.5879 75.1309 27.4829C75.1494 26.8283 75.1309 26.1736 75.137 25.5129Z" fill="#ede9fe" fill-opacity="0.75" stroke="#ede9fe" stroke-opacity="0.85" stroke-width="0.188247"/>
</g>
<defs>
<clipPath id="clip0_111_17">
<rect width="77.0925" height="28" fill="white" transform="translate(0.405762 0.0661621)"/>
</clipPath>
</defs>
</svg>
