<?xml version="1.0" encoding="UTF-8"?><svg id="Ebene_2" xmlns="http://www.w3.org/2000/svg" xmlns:xlink="http://www.w3.org/1999/xlink" viewBox="0 0 554.95 221.32"><defs><linearGradient id="Unbenannter_Verlauf_65" x1="231.23" y1="110.66" x2="0" y2="110.66" gradientUnits="userSpaceOnUse"><stop offset="0" stop-color="#94c605"/><stop offset="1" stop-color="#ddff70"/></linearGradient><linearGradient id="Unbenannter_Verlauf_65-2" x1="356.75" x2="125.52" xlink:href="#Unbenannter_Verlauf_65"/><linearGradient id="Unbenannter_Verlauf_65-3" x1="554.95" y1="73.77" x2="356.75" y2="73.77" xlink:href="#Unbenannter_Verlauf_65"/></defs><g id="Ebene_1-2"><path d="M80.8,24.67C71.59,9.26,56.1,0,39.51,0H0l117.4,196.64c9.2,15.41,24.7,24.67,41.29,24.67h72.54l-22.14-8.24c-13.18-4.9-24.52-14.58-32.22-27.48L80.8,24.67Z" style="fill:url(#Unbenannter_Verlauf_65);"/><path d="M198.07,0h-72.54l22.14,8.24c13.18,4.9,24.52,14.58,32.22,27.48l96.07,160.92c9.2,15.41,24.7,24.67,41.29,24.67h39.51L239.35,24.67C230.15,9.26,214.66,0,198.07,0Z" style="fill:url(#Unbenannter_Verlauf_65-2);"/><path d="M554.95,0h-66.2c-20.16,0-38.6,12.72-47.62,32.86l-33.17,74.08c-7.41,16.55-20.4,29.13-36.12,34.98l-15.09,5.62h66.2c20.16,0,38.6-12.72,47.62-32.86l33.17-74.08c7.41-16.55,20.4-29.13,36.12-34.98l15.09-5.62Z" style="fill:url(#Unbenannter_Verlauf_65-3);"/></g></svg>