<?xml version="1.0" encoding="UTF-8"?><svg id="Ebene_2" xmlns="http://www.w3.org/2000/svg" xmlns:xlink="http://www.w3.org/1999/xlink" viewBox="0 0 1125.43 199.84"><defs><linearGradient id="Unbenannter_Verlauf_65" x1="207.09" y1="99.15" x2="0" y2="99.15" gradientUnits="userSpaceOnUse"><stop offset="0" stop-color="#94c605"/><stop offset="1" stop-color="#ddff70"/></linearGradient><linearGradient id="Unbenannter_Verlauf_65-2" x1="319.52" x2="112.42" xlink:href="#Unbenannter_Verlauf_65"/><linearGradient id="Unbenannter_Verlauf_65-3" x1="497.02" y1="66.11" x2="319.52" y2="66.11" xlink:href="#Unbenannter_Verlauf_65"/></defs><g id="Ebene_1-2"><path d="M72.36,22.14C64.12,8.33,50.24.04,35.39.04H0l105.15,176.12c8.24,13.81,22.12,22.1,36.98,22.1h64.97l-19.83-7.38c-11.8-4.39-21.96-13.05-28.86-24.61L72.36,22.14Z" style="fill:url(#Unbenannter_Verlauf_65);"/><path d="M177.39.04h-64.97l19.83,7.38c11.8,4.39,21.96,13.05,28.86,24.61l86.04,144.12c8.24,13.81,22.12,22.1,36.98,22.1h35.39L214.37,22.14C206.13,8.33,192.25.04,177.39.04Z" style="fill:url(#Unbenannter_Verlauf_65-2);"/><path d="M497.02.04h-59.29c-18.06,0-34.57,11.39-42.65,29.43l-29.71,66.35c-6.64,14.82-18.27,26.09-32.35,31.33l-13.52,5.03h59.29c18.06,0,34.57-11.39,42.65-29.43l29.71-66.35c6.64-14.82,18.27-26.09,32.35-31.33L497.02.04Z" style="fill:url(#Unbenannter_Verlauf_65-3);"/><path d="M580.05,0l16.41,58.16L612.99,0h15.43l16.63,58.16L661.35,0h17.73l-23.75,80.6h-18.71l-15.87-55.8-15.98,55.8h-18.71L562.32,0h17.73Z" style="fill:#fff;"/><path d="M687.62,0h60.73v16.12h-43.77v16.37h40.49v14.63h-40.49v17.36h43.77v16.12h-60.73V0Z" style="fill:#fff;"/><path d="M801.53,0c9.34,0,16.5,2.27,21.5,6.82,5,4.55,7.5,11.08,7.5,19.59,0,6.28-1.35,11.39-4.05,15.31-2.7,3.93-6.64,6.72-11.82,8.37l15.87,30.5h-18.27l-14.12-28.64h-20.46v28.64h-16.96V0h40.82ZM799.67,37.57c4.6,0,7.99-.95,10.18-2.85,2.19-1.9,3.28-4.67,3.28-8.31,0-6.94-4.49-10.42-13.46-10.42h-21.99v21.58h21.99Z" style="fill:#fff;"/><path d="M859.3,26.04v54.56h-16.96V0h18.82l35.24,54.56V0h16.96v80.6h-18.93l-35.12-54.56Z" style="fill:#fff;"/><path d="M928.13,0h60.73v16.12h-43.77v16.37h40.49v14.63h-40.49v17.36h43.77v16.12h-60.73V0Z" style="fill:#fff;"/><path d="M1042.04,0c9.34,0,16.5,2.27,21.5,6.82,5,4.55,7.5,11.08,7.5,19.59,0,6.28-1.35,11.39-4.05,15.31-2.7,3.93-6.64,6.72-11.82,8.37l15.87,30.5h-18.27l-14.12-28.64h-20.46v28.64h-16.96V0h40.82ZM1040.18,37.57c4.6,0,7.99-.95,10.18-2.85,2.19-1.9,3.28-4.67,3.28-8.31,0-6.94-4.49-10.42-13.46-10.42h-21.99v21.58h21.99Z" style="fill:#fff;"/><path d="M633.67,175.17c0,8.02-2.99,14.14-8.97,18.35-5.98,4.22-14.3,6.32-24.95,6.32-11.45,0-20.17-2.38-26.15-7.13-5.98-4.75-8.83-11.22-8.54-19.41h16.3c.14,3.72,1.77,6.49,4.87,8.31,3.1,1.82,7.9,2.73,14.39,2.73,1.38,0,3.01-.06,4.87-.19s3.63-.47,5.31-1.05c1.68-.58,3.1-1.47,4.27-2.67,1.17-1.2,1.75-2.87,1.75-5.02,0-1.74-.53-3.14-1.59-4.22-1.06-1.07-2.46-1.94-4.21-2.6-1.75-.66-3.78-1.16-6.07-1.49-2.3-.33-4.72-.66-7.28-.99-3.58-.41-7.28-.95-11.11-1.61-3.83-.66-7.31-1.82-10.45-3.47-3.14-1.65-5.71-3.99-7.71-7.01-2.01-3.02-3.01-7.05-3.01-12.09,0-7.94,2.97-14.11,8.92-18.54,5.95-4.42,14.21-6.63,24.79-6.63s18.66,2.15,24.46,6.45c5.8,4.3,8.92,10.5,9.36,18.6h-16.41c-.88-6.45-6.71-9.67-17.51-9.67-5.25.08-9.27.91-12.04,2.48-2.77,1.57-4.16,3.84-4.16,6.82,0,1.82.49,3.31,1.48,4.46.98,1.16,2.3,2.07,3.94,2.73,1.64.66,3.57,1.18,5.8,1.55,2.22.37,4.54.72,6.95,1.05,3.65.42,7.4.93,11.27,1.55,3.87.62,7.39,1.74,10.56,3.35,3.17,1.61,5.78,3.91,7.82,6.88,2.04,2.98,3.06,7.03,3.06,12.15Z" style="fill:#fff;"/><path d="M667.48,134.12h-28.45v-16.12h73.75v16.12h-28.34v64.48h-16.96v-64.48Z" style="fill:#fff;"/><path d="M762.68,118c9.34,0,16.5,2.27,21.5,6.82,5,4.55,7.5,11.08,7.5,19.59,0,6.28-1.35,11.39-4.05,15.31-2.7,3.93-6.64,6.72-11.82,8.37l15.87,30.5h-18.27l-14.12-28.64h-20.46v28.64h-16.96v-80.6h40.82ZM760.82,155.57c4.6,0,7.99-.95,10.18-2.85,2.19-1.9,3.28-4.67,3.28-8.31,0-6.94-4.49-10.42-13.46-10.42h-21.99v21.58h21.99Z" style="fill:#fff;"/><path d="M827.24,118h20.79l29.98,80.6h-17.84l-5.25-14.63h-34.58l-5.25,14.63h-17.95l30.09-80.6ZM849.89,169.34l-12.26-34.22-12.26,34.22h24.51Z" style="fill:#fff;"/><path d="M917.85,184.34c3.35,0,6.18-.39,8.48-1.18,2.3-.78,4.17-1.98,5.64-3.6,1.46-1.61,2.52-3.7,3.17-6.26.66-2.56.99-5.62.99-9.18l.11-46.13h16.96v47.86c0,11.08-2.94,19.51-8.81,25.3-5.87,5.79-14.72,8.68-26.54,8.68s-20.68-2.87-26.59-8.62c-5.91-5.75-8.86-14.2-8.86-25.36v-47.86h16.96v46.13c0,7.11,1.38,12.26,4.16,15.44,2.77,3.18,7.55,4.77,14.33,4.77Z" style="fill:#fff;"/><path d="M963.47,158.18c0-6.61.91-12.48,2.74-17.61,1.82-5.12,4.49-9.44,7.99-12.96,3.5-3.51,7.79-6.2,12.86-8.06,5.07-1.86,10.81-2.79,17.23-2.79,11.45,0,20.35,2.67,26.7,8s10.07,13.21,11.16,23.62h-17.51c-1.02-5.12-3.19-8.91-6.51-11.35-3.32-2.44-8.01-3.66-14.06-3.66-7.59,0-13.35,2.07-17.29,6.2-3.94,4.13-5.91,10.29-5.91,18.48,0,16.7,7.8,25.05,23.42,25.05,6.27,0,11.07-1.32,14.39-3.97,3.32-2.64,5.38-6.7,6.18-12.15h17.4c-.88,10.83-4.49,19.01-10.83,24.55-6.35,5.54-15.39,8.31-27.14,8.31-13.13,0-23.22-3.6-30.26-10.79-7.04-7.19-10.56-17.48-10.56-30.88Z" style="fill:#fff;"/><path d="M1053.42,118h16.96v32.24h38.08v-32.24h16.96v80.6h-16.96v-31.87h-38.08v31.87h-16.96v-80.6Z" style="fill:#fff;"/></g></svg>