<?xml version="1.0" encoding="UTF-8" standalone="no"?>
<!DOCTYPE svg PUBLIC "-//W3C//DTD SVG 1.1//EN" "http://www.w3.org/Graphics/SVG/1.1/DTD/svg11.dtd">
<svg width="100%" height="100%" viewBox="0 0 14307 4215" version="1.1" xmlns="http://www.w3.org/2000/svg" xmlns:xlink="http://www.w3.org/1999/xlink" xml:space="preserve" xmlns:serif="http://www.serif.com/" style="fill-rule:evenodd;clip-rule:evenodd;stroke-linejoin:round;stroke-miterlimit:2;">
    <g transform="matrix(1,0,0,1,-1217.67,-4462.66)">
        <g transform="matrix(4.16667,0,0,4.16667,0,0)">
            <g transform="matrix(0.17333,0,0,0.17333,736.091,360.905)">
                <text x="5663.64px" y="6695.6px" style="font-family:'Oswald-Medium', 'Oswald';font-weight:500;font-size:3206.17px;fill:rgb(10,22,40);">WERNER</text>
                <text x="5663.64px" y="9901.77px" style="font-family:'Oswald-Medium', 'Oswald';font-weight:500;font-size:3206.17px;fill:rgb(10,22,40);">STRAUC</text>
                <text x="15576.5px" y="9901.77px" style="font-family:'Oswald-Medium', 'Oswald';font-weight:500;font-size:3206.17px;fill:rgb(10,22,40);">H</text>
            </g>
        </g>
        <g transform="matrix(4.16667,0,0,4.16667,0,0)">
            <g transform="matrix(1.85261,0,0,1.85261,-2733.78,-1484.65)">
                <path d="M2271.17,1398.55C2225.02,1409.94 2175.06,1450.49 2194.22,1503.31C2234.59,1614.59 2264.64,1700.68 2284.36,1761.46C2332.57,1910.25 2179.6,1951 2073.35,1908.52C2069.81,1907.09 2069.94,1906.16 2073.73,1905.72C2116.22,1900.93 2176.25,1877.47 2183.9,1830.01C2185.7,1818.51 2182.9,1802.21 2175.5,1781.06C2149.31,1706.59 2122.87,1632.26 2096.12,1558.05C2086.42,1531.11 2081.63,1509.66 2081.69,1493.54C2082.25,1386.92 2208.78,1361.41 2292.01,1390.91C2294,1391.59 2294,1392.28 2291.95,1392.89C2284.92,1395 2278.02,1396.88 2271.17,1398.55Z" style="fill:rgb(200,255,0);fill-rule:nonzero;"/>
            </g>
        </g>
        <g transform="matrix(4.16667,0,0,4.16667,0,0)">
            <g transform="matrix(1.85261,0,0,1.85261,-2733.78,-1489.6)">
                <path d="M1633.87,1476.43L1710.82,1384.86C1711.81,1383.69 1713.8,1383.99 1714.3,1385.49L1873.36,1833.55C1873.61,1834.24 1873.43,1835.05 1872.99,1835.55L1796.04,1927.12C1795.04,1928.3 1793.06,1927.99 1792.56,1926.49L1633.49,1478.43C1633.24,1477.74 1633.43,1476.94 1633.87,1476.43Z" style="fill:rgb(200,255,0);fill-rule:nonzero;"/>
            </g>
        </g>
        <g transform="matrix(4.16667,0,0,4.16667,0,0)">
            <g transform="matrix(1.85261,0,0,1.85261,-2735.62,-1490.2)">
                <path d="M2089.09,1835.49L2011.9,1927.37C2010.96,1928.48 2009.16,1928.12 2008.66,1926.8L1849.54,1478.23C1849.29,1477.61 1849.42,1476.94 1849.85,1476.43L1927.05,1384.62C1927.98,1383.49 1929.78,1383.88 1930.28,1385.18L2089.41,1833.68C2089.65,1834.31 2089.53,1835 2089.09,1835.49Z" style="fill:rgb(200,255,0);fill-rule:nonzero;"/>
            </g>
        </g>
    </g>
</svg>
