<svg width="502" height="281" viewBox="0 0 502 281" fill="none" xmlns="http://www.w3.org/2000/svg">
<g filter="url(#filter0_d_137_46990)">
<circle cx="251" cy="175.566" r="44" fill="#221C33"/>
</g>
<g filter="url(#filter1_dd_137_46990)">
<circle cx="251" cy="175.566" r="40" fill="#221F2E" fill-opacity="0.75" shape-rendering="crispEdges"/>
</g>
<rect x="248" y="219" width="6" height="60" fill="#221C33"/>
<g clip-path="url(#clip0_137_46990)">
<path d="M229.437 181.854C228.737 181.854 228.112 181.363 227.968 180.651C226.72 174.464 227.968 168.171 231.482 162.929C231.943 162.241 232.875 162.057 233.563 162.518C234.251 162.979 234.435 163.912 233.974 164.599C230.909 169.171 229.82 174.661 230.908 180.057C231.072 180.869 230.546 181.661 229.734 181.825C229.634 181.844 229.535 181.854 229.437 181.854Z" fill="#A78BFA" fill-opacity="0.65"/>
<path d="M235.913 161.5C235.515 161.5 235.117 161.342 234.822 161.029C234.253 160.426 234.281 159.477 234.883 158.909C238.071 155.9 242.037 153.851 246.352 152.98C251.614 151.92 256.916 152.649 261.686 155.09C262.423 155.467 262.715 156.371 262.338 157.109C261.961 157.847 261.057 158.14 260.319 157.76C256.16 155.631 251.536 154.995 246.945 155.921C243.18 156.68 239.721 158.468 236.942 161.091C236.652 161.364 236.282 161.5 235.913 161.5Z" fill="#A78BFA" fill-opacity="0.65"/>
<path d="M272.549 173.161C271.849 173.161 271.224 172.67 271.08 171.958C270.153 167.36 267.654 163.188 264.044 160.21C263.405 159.683 263.315 158.737 263.841 158.098C264.368 157.459 265.313 157.368 265.953 157.896C270.092 161.311 272.957 166.094 274.02 171.365C274.184 172.177 273.658 172.969 272.846 173.133C272.747 173.151 272.647 173.161 272.549 173.161Z" fill="#A78BFA" fill-opacity="0.65"/>
<path d="M245.317 198.755C244.965 198.755 244.612 198.632 244.327 198.382C243.705 197.835 243.643 196.888 244.19 196.265C249.03 190.756 250.976 183.48 249.529 176.303C249.365 175.491 249.891 174.699 250.703 174.535C251.514 174.374 252.306 174.897 252.47 175.709C254.104 183.813 251.908 192.026 246.444 198.245C246.148 198.582 245.733 198.755 245.317 198.755Z" fill="#A78BFA" fill-opacity="0.65"/>
<path d="M251.695 199.487C251.403 199.487 251.109 199.402 250.849 199.225C250.165 198.757 249.991 197.824 250.458 197.14C254.789 190.811 256.586 182.025 254.932 175.277C254.341 172.831 252.53 171.608 250.201 172.076C247.989 172.522 246.648 174.556 247.083 176.808C248.463 183.958 246.152 191.161 240.901 196.073C240.296 196.639 239.346 196.608 238.781 196.002C238.215 195.398 238.246 194.448 238.851 193.882C243.344 189.679 245.321 183.509 244.138 177.377C243.394 173.524 245.797 169.903 249.609 169.135C253.499 168.357 256.886 170.586 257.848 174.568C259.692 182.09 257.719 191.844 252.935 198.835C252.644 199.259 252.174 199.487 251.695 199.487Z" fill="#A78BFA" fill-opacity="0.65"/>
<path d="M235.442 193.054C235.007 193.054 234.577 192.866 234.28 192.504C233.755 191.863 233.849 190.918 234.49 190.394C237.555 187.883 239.229 184.036 238.967 180.1C238.912 179.274 239.537 178.559 240.364 178.503C241.176 178.455 241.905 179.073 241.96 179.9C242.287 184.8 240.205 189.59 236.39 192.713C236.113 192.942 235.776 193.054 235.442 193.054Z" fill="#A78BFA" fill-opacity="0.65"/>
<path d="M262.368 179.5C261.595 179.5 260.939 178.907 260.874 178.123C260.765 176.793 260.574 175.449 260.308 174.13C260.303 174.106 260.299 174.081 260.295 174.057C259.78 171.599 258.347 169.483 256.253 168.092C254.139 166.688 251.607 166.189 249.116 166.692C245.042 167.512 241.923 170.972 241.531 175.105C241.453 175.93 240.715 176.539 239.896 176.457C239.071 176.379 238.466 175.646 238.544 174.822C239.06 169.384 243.164 164.831 248.523 163.751C255.285 162.395 261.888 166.778 263.251 173.536C263.256 173.563 263.261 173.59 263.265 173.616C263.546 175.024 263.747 176.458 263.865 177.878C263.933 178.704 263.319 179.428 262.493 179.496C262.451 179.498 262.409 179.5 262.368 179.5Z" fill="#A78BFA" fill-opacity="0.65"/>
<path d="M258.883 198.034C258.662 198.034 258.439 197.985 258.227 197.883C257.482 197.52 257.173 196.622 257.536 195.877C259.527 191.791 260.67 187.429 260.934 182.913C260.982 182.085 261.684 181.446 262.519 181.503C263.346 181.551 263.977 182.261 263.929 183.087C263.642 188.001 262.399 192.746 260.233 197.191C259.973 197.725 259.438 198.034 258.883 198.034Z" fill="#A78BFA" fill-opacity="0.65"/>
<path d="M232.068 188.711C231.642 188.711 231.219 188.531 230.922 188.181C230.386 187.549 230.465 186.603 231.097 186.067C232.944 184.502 233.814 182.075 233.388 179.704C233.374 179.658 233.362 179.612 233.353 179.565C231.536 170.556 236.76 161.657 245.503 158.867C246.291 158.613 247.136 159.05 247.388 159.84C247.639 160.629 247.204 161.473 246.415 161.725C239.179 164.035 234.837 171.367 236.264 178.824C236.279 178.872 236.291 178.921 236.301 178.97C237.005 182.457 235.753 186.054 233.036 188.357C232.755 188.594 232.41 188.711 232.068 188.711Z" fill="#A78BFA" fill-opacity="0.65"/>
<path d="M266.605 192.997C266.477 192.997 266.347 192.981 266.218 192.946C265.417 192.733 264.942 191.911 265.155 191.11C266.729 185.205 266.918 179.156 265.715 173.128C265.708 173.1 265.701 173.071 265.695 173.043C264.288 166.067 258.114 161.007 251.012 161.007C251.008 161.007 251.004 161.007 251 161.007C250.172 161.007 249.5 160.336 249.5 159.508C249.5 158.68 250.17 158.008 250.999 158.007C251.003 158.007 251.008 158.007 251.013 158.007C259.508 158.007 266.895 164.035 268.618 172.36C268.626 172.39 268.633 172.421 268.639 172.451C269.952 178.964 269.755 185.502 268.054 191.885C267.875 192.555 267.268 192.997 266.605 192.997Z" fill="#A78BFA" fill-opacity="0.65"/>
</g>
<defs>
<filter id="filter0_d_137_46990" x="72" y="0.566406" width="358" height="358" filterUnits="userSpaceOnUse" color-interpolation-filters="sRGB">
<feFlood flood-opacity="0" result="BackgroundImageFix"/>
<feColorMatrix in="SourceAlpha" type="matrix" values="0 0 0 0 0 0 0 0 0 0 0 0 0 0 0 0 0 0 127 0" result="hardAlpha"/>
<feMorphology radius="35" operator="dilate" in="SourceAlpha" result="effect1_dropShadow_137_46990"/>
<feOffset dy="4"/>
<feGaussianBlur stdDeviation="50"/>
<feComposite in2="hardAlpha" operator="out"/>
<feColorMatrix type="matrix" values="0 0 0 0 0.545098 0 0 0 0 0.360784 0 0 0 0 0.964706 0 0 0 0.15 0"/>
<feBlend mode="normal" in2="BackgroundImageFix" result="effect1_dropShadow_137_46990"/>
<feBlend mode="normal" in="SourceGraphic" in2="effect1_dropShadow_137_46990" result="shape"/>
</filter>
<filter id="filter1_dd_137_46990" x="208" y="133.566" width="86" height="86" filterUnits="userSpaceOnUse" color-interpolation-filters="sRGB">
<feFlood flood-opacity="0" result="BackgroundImageFix"/>
<feColorMatrix in="SourceAlpha" type="matrix" values="0 0 0 0 0 0 0 0 0 0 0 0 0 0 0 0 0 0 127 0" result="hardAlpha"/>
<feOffset dy="1"/>
<feComposite in2="hardAlpha" operator="out"/>
<feColorMatrix type="matrix" values="0 0 0 0 0 0 0 0 0 0 0 0 0 0 0 0 0 0 0.2 0"/>
<feBlend mode="normal" in2="BackgroundImageFix" result="effect1_dropShadow_137_46990"/>
<feColorMatrix in="SourceAlpha" type="matrix" values="0 0 0 0 0 0 0 0 0 0 0 0 0 0 0 0 0 0 127 0" result="hardAlpha"/>
<feOffset dy="1"/>
<feGaussianBlur stdDeviation="1.5"/>
<feComposite in2="hardAlpha" operator="out"/>
<feColorMatrix type="matrix" values="0 0 0 0 0 0 0 0 0 0 0 0 0 0 0 0 0 0 0.4 0"/>
<feBlend mode="normal" in2="effect1_dropShadow_137_46990" result="effect2_dropShadow_137_46990"/>
<feBlend mode="normal" in="SourceGraphic" in2="effect2_dropShadow_137_46990" result="shape"/>
</filter>
<clipPath id="clip0_137_46990">
<rect width="48" height="48" fill="white" transform="translate(227 152)"/>
</clipPath>
</defs>
</svg>
