<?xml version="1.0" encoding="utf-8"?>
<!-- Generator: Adobe Illustrator 28.0.0, SVG Export Plug-In . SVG Version: 6.00 Build 0)  -->
<svg version="1.1" xmlns="http://www.w3.org/2000/svg" xmlns:xlink="http://www.w3.org/1999/xlink" x="0px" y="0px"
	 viewBox="0 0 2241.2 470.9" style="enable-background:new 0 0 2241.2 470.9;" xml:space="preserve">
<style type="text/css">
	.st0{fill:url(#SVGID_1_);}
	.st1{fill:url(#SVGID_00000103257951590894169610000017679266332968561589_);}
	.st2{fill:none;stroke:#1D1D1B;stroke-width:40;stroke-linecap:round;stroke-linejoin:round;stroke-miterlimit:10;}
	.st3{fill:#FFFFFF;}
	.st4{fill:none;stroke:#FFFFFF;stroke-width:16.6936;stroke-miterlimit:10;}
	.st5{fill:none;stroke:#FFFFFF;stroke-width:36.4982;stroke-miterlimit:10;}
	.st6{fill:none;stroke:#FFFFFF;stroke-width:34.9293;stroke-miterlimit:10;}
	.st7{fill:#1D1D1B;}
	.st8{fill:none;stroke:#1D1D1B;stroke-width:35;stroke-linecap:square;stroke-miterlimit:10;}
	.st9{fill:none;stroke:#000000;stroke-width:29.1475;stroke-miterlimit:10;}
	.st10{stroke:#1D1D1B;stroke-width:7;stroke-miterlimit:10;}
	.st11{fill:none;stroke:#FFFFFF;stroke-width:15.9145;stroke-miterlimit:10;}
	.st12{fill:none;stroke:#000000;stroke-width:57.2765;stroke-linecap:square;stroke-miterlimit:10;}
	.st13{fill:none;stroke:#000000;stroke-width:57.2765;stroke-linecap:round;stroke-linejoin:round;stroke-miterlimit:10;}
	.st14{fill:none;stroke:#000000;stroke-width:57.2765;stroke-linecap:round;stroke-miterlimit:10;}
	.st15{fill:none;stroke:#FFFFFF;stroke-width:17.6357;stroke-miterlimit:10;}
	.st16{fill:none;stroke:#009245;stroke-width:50;stroke-miterlimit:10;}
	.st17{fill:none;stroke:#FCEE21;stroke-width:50;stroke-miterlimit:10;}
	.st18{fill:url(#SVGID_00000037677506071940474010000012202690017519691676_);stroke:#FFFF00;stroke-width:3;stroke-miterlimit:10;}
	.st19{fill:#1F91F1;stroke:#FFFF00;stroke-width:3;stroke-miterlimit:10;}
	.st20{fill:#1F91F1;}
	.st21{fill:url(#SVGID_00000121272262488921275370000005304293087346814908_);}
	.st22{fill:url(#SVGID_00000051378301257747579090000017269108597586370974_);}
	.st23{fill:url(#SVGID_00000003071334413774390610000014047781842666988719_);}
	.st24{fill:url(#SVGID_00000131327232962836362920000003306174987749350296_);}
	.st25{fill:url(#SVGID_00000030478884028905910510000005117816302751931786_);}
	.st26{fill:url(#SVGID_00000082326207870826072530000004545864272849052039_);}
	.st27{fill:url(#SVGID_00000083084293918780280620000007636545403482309311_);}
	.st28{fill:url(#SVGID_00000155847034529864719330000011042031658053744314_);}
	.st29{fill:url(#SVGID_00000088826167343890555890000018326156020751157401_);}
	.st30{fill:url(#SVGID_00000129185674957232269390000014295396309241075340_);}
	.st31{fill:url(#SVGID_00000065754436078832519580000005047082193027263384_);}
	.st32{fill:url(#SVGID_00000018234339932995949900000013298555388144119705_);}
	.st33{fill:url(#SVGID_00000075864739201413459350000007606246702792535192_);}
	.st34{fill:url(#SVGID_00000048461551977864557180000001012449424398103988_);}
	.st35{fill:url(#SVGID_00000030477985846414806760000002256715814486139837_);}
	.st36{fill:url(#SVGID_00000038405330764856007440000002106708564814925983_);}
	.st37{fill:url(#SVGID_00000109727813650677727720000009081276768433941424_);}
	.st38{fill:url(#SVGID_00000065793167994924510940000005724568673200419519_);}
	.st39{fill:url(#SVGID_00000079481100745322243020000011050749830862981003_);}
	.st40{fill:url(#SVGID_00000068637626270203327580000006358200074119252613_);}
	.st41{fill:url(#SVGID_00000028315215737974354240000002447077787088138122_);}
	.st42{fill:url(#SVGID_00000153672610172983450700000002242908292527278748_);}
	.st43{fill:url(#SVGID_00000112624333113526283660000005106696040821948576_);stroke:#FFFF00;stroke-width:3;stroke-miterlimit:10;}
	.st44{fill:url(#SVGID_00000070831369177500145710000002144724649985583547_);}
	.st45{fill:url(#SVGID_00000099641860290589964970000006935273504078657697_);}
	.st46{fill:url(#SVGID_00000039854759504047644710000017729316946740134562_);}
	.st47{fill:url(#SVGID_00000008138113956874853590000006601649316225133457_);}
	.st48{fill:url(#SVGID_00000000918382218506692560000013692760104638810509_);}
	.st49{fill:url(#SVGID_00000170242285413814509650000001280180689400267155_);}
	.st50{fill:url(#SVGID_00000013897669567614472190000001176696395097781669_);}
	.st51{fill:url(#SVGID_00000026863504904887122340000017367116548461839286_);}
	.st52{fill:url(#SVGID_00000151506573816815606820000004637984137481402770_);}
	.st53{fill:url(#SVGID_00000023963725742053320140000014537157214093027995_);}
	.st54{fill:url(#SVGID_00000131351604251876749180000010093808625319378876_);}
	.st55{fill:url(#SVGID_00000174567737823379059170000007167648300514575283_);}
	.st56{fill:url(#SVGID_00000075135133213562992300000006878177302556237721_);}
	.st57{fill:url(#SVGID_00000097490568523388696830000002643500027682116026_);}
	.st58{fill:url(#SVGID_00000028306745140629537880000017892133201670297488_);}
	.st59{fill:url(#SVGID_00000180326414182138411440000016656482472787741840_);}
	.st60{fill:url(#SVGID_00000073715003746759955160000004635683011545060757_);}
	.st61{fill:url(#SVGID_00000136386864408701369090000009701164449784531841_);stroke:#FFFF00;stroke-width:3;stroke-miterlimit:10;}
	.st62{fill:url(#SVGID_00000023255112260483991430000008435280022404281998_);}
	.st63{fill:url(#SVGID_00000083779051328677743990000008591562773668745656_);}
	.st64{fill:url(#SVGID_00000179623980652940345370000009625708961116168106_);}
	.st65{fill:url(#SVGID_00000163048134375653887250000001031347945769978284_);}
	.st66{fill:url(#SVGID_00000054255422578690982140000008290771418340749209_);}
	.st67{fill:url(#SVGID_00000119806842021306473760000018276263074907799684_);}
	.st68{fill:url(#SVGID_00000070108347722998586050000016631711134593631673_);}
	.st69{fill:url(#SVGID_00000098210730029819823330000011643110718985048238_);}
	.st70{fill:url(#SVGID_00000015336564393762596120000015530534807536421009_);}
	.st71{fill:#0A2F50;}
	.st72{fill:url(#SVGID_00000008863089515561781480000004512143884851086752_);}
	.st73{fill:url(#SVGID_00000080909684709321601000000015918419853812430474_);}
	.st74{fill:url(#SVGID_00000029739494022742889090000010836761386640843437_);}
	.st75{fill:url(#SVGID_00000178206060803608436310000014547610302769963914_);}
	.st76{fill:url(#SVGID_00000145741721090135185960000013084324091249299607_);}
	.st77{fill:url(#SVGID_00000011742124226183521120000003299448577989749421_);}
	.st78{fill:url(#SVGID_00000090977709944455293500000015515411852208909720_);}
	.st79{fill:url(#SVGID_00000050629083982619357720000010928797115481423536_);}
	.st80{fill:url(#SVGID_00000081637857721126845510000006673581379781686183_);}
	.st81{fill:url(#SVGID_00000049199055140610573170000010546867721706174369_);}
	.st82{fill:url(#SVGID_00000085938906826000445700000015209368715379592117_);}
	.st83{fill:url(#SVGID_00000100350509697669722930000012452708536967690683_);}
	.st84{fill:url(#SVGID_00000024705438138596381080000018148705191876738699_);}
	.st85{fill:url(#SVGID_00000062904651188850073100000001656466152251353263_);}
	.st86{fill:url(#SVGID_00000068640167026112316310000005286101976625073305_);}
	.st87{fill:url(#SVGID_00000060010118994703207310000017462726930749794186_);}
	.st88{fill:url(#SVGID_00000085233834048101574710000010655983952401450131_);}
	.st89{fill:url(#SVGID_00000073714727611583587530000016762747992960210862_);}
	.st90{fill:url(#SVGID_00000128463379059583727020000008596898653471109306_);}
	.st91{fill:url(#SVGID_00000044157457917097806750000018118200169930006958_);}
	.st92{fill:url(#SVGID_00000045615088529440473620000006542535000932379581_);}
	.st93{fill:url(#SVGID_00000018211252027720710840000001613642377044162976_);}
	.st94{fill:url(#SVGID_00000024718886767270820460000000915786351187393726_);}
	.st95{fill:url(#SVGID_00000091014456996371262240000005590168982379608997_);}
	.st96{fill:url(#SVGID_00000112631959838666932230000002473852355672241065_);}
	.st97{fill:url(#SVGID_00000048480821362657197550000006980552118105163161_);}
	.st98{fill:url(#SVGID_00000145059627907568126500000018077820829577448611_);}
	.st99{fill:url(#SVGID_00000178189636001556325570000012272041762795547062_);}
	.st100{fill:url(#SVGID_00000165212500408082804570000017817051779042440094_);}
	.st101{fill:url(#SVGID_00000127741479373639458010000003366855594687572649_);}
	.st102{fill:url(#SVGID_00000059283655763203952920000009071354630815082678_);}
	.st103{fill:url(#SVGID_00000034796032748677868770000000803082556197880458_);}
	.st104{fill:url(#SVGID_00000170959094859219490110000015371466964455489689_);}
	.st105{fill:url(#SVGID_00000003809638669823486740000009068442498149556367_);}
	.st106{fill:url(#SVGID_00000029739207472668662680000013044213408779050636_);}
	.st107{fill:url(#SVGID_00000130611973343828131400000009582711620732757949_);}
	.st108{fill:url(#SVGID_00000107545999193556638960000006102838109213287344_);}
	.st109{fill:url(#SVGID_00000057136991191864631280000014406207562387272344_);}
	.st110{fill:url(#SVGID_00000167354246680892628310000006309094472697984155_);}
	.st111{fill:url(#SVGID_00000137117031006854788610000015802794517889688248_);}
	.st112{fill:url(#SVGID_00000125601818508731358960000001194806769634161546_);}
	.st113{fill:url(#SVGID_00000173138621741301607660000015253195998671558821_);}
	.st114{fill:url(#SVGID_00000103950138294978966030000011396856217053446295_);}
	.st115{fill:url(#SVGID_00000044175504793843776090000012472406770142549926_);}
	.st116{fill:url(#SVGID_00000076567309322206665840000004390814381325167235_);}
	.st117{fill:url(#SVGID_00000121975716051825922110000010974747712502271897_);}
	.st118{fill:url(#SVGID_00000116919668385650705910000007474847445739388053_);}
	.st119{fill:url(#SVGID_00000176043403377425495200000009109522529399607218_);}
	.st120{fill:url(#SVGID_00000052078315702444129620000010298186771298488240_);}
	.st121{fill:url(#SVGID_00000122705870046546612930000000159293141712432526_);}
	.st122{fill:url(#SVGID_00000094604017657623909930000014890495665849265821_);}
	.st123{fill:url(#SVGID_00000139275489769408112760000004889648714030141350_);}
	.st124{fill:url(#SVGID_00000035520512707024282670000010504782302588229818_);}
	.st125{fill:url(#SVGID_00000036215840675469482700000002007462019780386713_);}
	.st126{fill:url(#SVGID_00000041993815190932558490000005821095855277569176_);}
	.st127{fill:url(#SVGID_00000065046409345338524100000008418851454547825795_);}
	.st128{fill:url(#SVGID_00000003826351830580478000000010504730762422730656_);}
	.st129{fill:url(#SVGID_00000069381264143991766390000014491460461414537602_);}
	.st130{fill:url(#SVGID_00000053528322630267688920000005219611795183301009_);}
	.st131{fill:url(#SVGID_00000018218918546216237080000013271686703438498231_);}
	.st132{fill:url(#SVGID_00000100364495752730507920000006761929164421659019_);}
	.st133{display:none;}
	.st134{display:inline;}
</style>
<g id="Ebene_1">
	<g>
		<path class="st3" d="M250.7,364.1l47.6-47.6l47.6,47.6H488L369.3,245.5L555.7,59.1L517.4,59L330.9,245.5l91.5,91.5H357l-58.8-58.8
			L212.4,364L250.7,364.1z M78.1,432.9l187.4-187.4L174,153.9h65.4l58.8,58.8l86-86l-38.4,0l-47.6,47.6l-47.6-47.6H108.4
			l118.7,118.7L39,433.5L78.1,432.9z"/>
	</g>
	<g>
		<path class="st3" d="M516.2,225.3l-19.3,20.2h-51l116.1-117.4h74.3l-5.6,117.4h-49.9l1-20.2H516.2z M587.5,151.6l-49.1,51h45.5
			L587.5,151.6z"/>
		<path class="st3" d="M858.7,128.2L820,202.3c-0.9,1.8-9.3,15.1-10.4,16.7c-7,9.7-19.1,17.6-33.7,22c-14.3,4.2-26.7,5.5-57.7,5.5
			c-29.1,0-42.7-1.2-52.9-4.8c-13.6-4.9-16.7-12.1-10.9-25.9c1.3-3.5,1.9-4.8,5.2-11.1l39.9-76.6h49.1l-39.9,76.6
			c-6.6,12.7-2.8,14.8,25.2,14.8c23.6,0,29.2-2.5,36.5-16.4l39.1-75H858.7z"/>
		<path class="st3" d="M910.1,245.6H861l47.2-90.5h-46.3l14.1-26.9h144.7l-14.1,26.9h-49.3L910.1,245.6z"/>
		<path class="st3" d="M1170.1,131.3c15,4.9,20.8,13.2,18.1,25.7c-0.9,5.5-4.9,14.1-13.4,30.4c-13.2,25.3-19.4,33.4-32.7,42.2
			c-18.5,12.3-41.6,16.7-86.3,16.7c-28.5,0-41.9-1.6-51.2-6.3c-11.3-5.6-15.1-13-12.7-24.5c1.2-4.9,3.8-10.9,9.8-22.5
			c11.1-21.3,18.5-32.7,26.1-40.7c9.3-9.9,26-17.8,46.6-22c11-2.1,26.3-3.2,49.6-3.2C1148.9,127.3,1161,128.3,1170.1,131.3z
			 M1072.6,161.3c-5,3.9-8.9,9.7-18,27.1c-15.2,29-14,31,19.5,31c20,0,27.2-1.8,34.8-8.4c5.1-4.6,8.7-9.9,16.8-25.3
			c8.4-16.2,9.8-19.9,9.3-24.1c-0.9-5.6-6.7-7.2-26.4-7.2C1087.2,154.2,1079.9,155.6,1072.6,161.3z"/>
		<path class="st3" d="M1391.5,245.6h-48.2l18.4-35.2c6-11.4,8.8-16.4,23.9-41l8.3-13.7h-1.6l-13.3,13.4l-13.6,13.4l-27.7,26.8
			l-37.9,36.4h-41.9l-0.4-36.6l-0.1-26.6c0.3-6.9,0.6-15.8,0.8-26.8h-1.6l-5.8,13.7c-10.7,24.6-13.5,31.2-18.7,41l-18.4,35.2h-48.2
			l61.3-117.4h76.5l-0.5,33.6c-0.1,11.3-0.4,16.5-1,26c-0.6,4.8-1.1,9.5-1.3,14.1h1.9l9.3-10c13.7-14.6,15.6-16.7,29-29.9l34.1-33.8
			h78.1L1391.5,245.6z"/>
		<path class="st3" d="M1605.1,131.3c15,4.9,20.8,13.2,18.1,25.7c-0.9,5.5-4.9,14.1-13.4,30.4c-13.2,25.3-19.4,33.4-32.7,42.2
			c-18.5,12.3-41.6,16.7-86.3,16.7c-28.5,0-41.9-1.6-51.2-6.3c-11.3-5.6-15.1-13-12.7-24.5c1.2-4.9,3.8-10.9,9.8-22.5
			c11.1-21.3,18.5-32.7,26.1-40.7c9.3-9.9,26-17.8,46.6-22c11-2.1,26.3-3.2,49.6-3.2C1583.9,127.3,1596,128.3,1605.1,131.3z
			 M1507.6,161.3c-5,3.9-8.9,9.7-18,27.1c-15.2,29-14,31,19.5,31c20,0,27.2-1.8,34.8-8.4c5.1-4.6,8.7-9.9,16.8-25.3
			c8.4-16.2,9.8-19.9,9.3-24.1c-0.9-5.6-6.7-7.2-26.4-7.2C1522.2,154.2,1514.9,155.6,1507.6,161.3z"/>
		<path class="st3" d="M1683.8,245.6h-49.1l47.2-90.5h-46.3l14.1-26.9h144.7l-14.1,26.9H1731L1683.8,245.6z"/>
		<path class="st3" d="M1798.4,245.6h-49.1l61.3-117.4h49.1L1798.4,245.6z"/>
		<path class="st3" d="M2055.8,128.2l-114.7,117.4h-75.9l9.4-117.4h49.6l-3.3,45.2c-0.7,7.6-1.3,15.1-1.9,22.5
			c-0.7,7.6-1.6,15.1-2.5,22.7h1.4c13.7-14.6,28.1-29.7,43.1-45.2l44.2-45.2H2055.8z"/>
		<path class="st3" d="M2096.2,175.2h77.8l-11.3,21.6h-77.8l-11.9,22.9h85l-13.5,25.9h-134l61.3-117.4H2204l-13.5,25.9h-83.3
			L2096.2,175.2z"/>
	</g>
</g>
<g id="Ebene_2" class="st133">
</g>
</svg>
